<svg xmlns="http://www.w3.org/2000/svg" width="243" height="260" viewBox="0 0 243 260" version="1.1">
	<path d="M 122.021 13.695 C 111.318 19.201, 106.917 23.575, 101.912 33.678 L 97.599 42.384 96.182 38.942 C 95.403 37.049, 94.533 33.813, 94.251 31.750 C 93.968 29.688, 93.342 28, 92.859 28 C 92.376 28, 90.607 30.234, 88.927 32.965 L 85.872 37.930 79.736 33.465 C 76.361 31.009, 73.296 29, 72.925 29 C 71.744 29, 70.963 35.104, 70.308 49.435 L 69.672 63.370 67.013 60.185 C 65.551 58.433, 64.082 57, 63.750 57 C 63.417 57, 61.711 60.712, 59.958 65.250 C 57.111 72.618, 56.836 74.220, 57.390 80.232 L 58.011 86.963 53.255 86.358 C 50.640 86.025, 46.482 85.396, 44.016 84.962 C 41.550 84.527, 39.136 84.416, 38.652 84.715 C 34.994 86.976, 48.640 115.417, 58.341 125.750 L 61.392 129 57.946 129.024 C 53.628 129.054, 47.054 130.546, 45.825 131.775 C 44.906 132.694, 62.894 147.083, 67.700 149.273 C 70.740 150.658, 70.602 151.334, 67 152.694 C 65.350 153.317, 64 154.309, 64 154.899 C 64 156.087, 73.404 161.046, 79.250 162.940 C 83.607 164.352, 84.029 165.525, 80.500 166.411 C 75.655 167.627, 78.306 170.298, 85.518 171.469 C 92.699 172.635, 94 173.026, 94 174.019 C 94 174.565, 90.967 175, 87.165 175 C 80.832 175, 80.135 175.220, 77.658 178 C 76.187 179.650, 74.158 181, 73.147 181 C 72.137 181, 70.495 181.900, 69.500 183 C 68.305 184.321, 66.420 185, 63.952 185 C 61.552 185, 60.008 185.537, 59.638 186.500 C 59.286 187.419, 57.769 188, 55.726 188 C 51.327 188, 39.836 191.822, 38.250 193.813 C 36.063 196.559, 36.857 197.786, 43.007 201.167 C 46.311 202.983, 49.273 205.286, 49.590 206.285 C 49.907 207.283, 51.600 209.540, 53.353 211.300 C 58.450 216.419, 61.729 221.254, 62.467 224.739 C 63.321 228.765, 64.335 229.431, 67.229 227.862 C 68.478 227.185, 71.429 226.333, 73.787 225.969 C 77.844 225.341, 78.228 225.500, 80.938 228.922 C 83.729 232.445, 87.641 234.599, 101.757 240.385 C 120.059 247.885, 134.800 247.725, 148.833 239.873 C 151.767 238.232, 154.692 237.071, 155.333 237.293 C 157.027 237.881, 166.909 232.243, 171.072 228.313 C 174.535 225.045, 174.828 224.961, 180.572 225.603 C 183.833 225.967, 187.272 226.936, 188.215 227.756 C 189.763 229.101, 190.021 229.015, 190.856 226.873 C 194.310 218.015, 195.987 214.972, 199.750 210.727 C 202.088 208.090, 204 205.510, 204 204.992 C 204 204.475, 205.463 203.312, 207.250 202.409 C 211.740 200.139, 215 196.985, 215 194.908 C 215 193.741, 213.432 192.589, 210.250 191.420 C 207.637 190.460, 202.835 188.622, 199.578 187.337 C 196.320 186.052, 192.393 185, 190.851 185 C 188.975 185, 187.512 184.185, 186.434 182.540 C 185.144 180.570, 183.674 179.949, 179.070 179.428 C 174.296 178.888, 172.660 178.159, 169.452 175.139 L 165.587 171.500 174.294 169.565 C 179.216 168.470, 183 167.117, 183 166.451 C 183 165.802, 181.200 164.025, 179 162.500 C 176.800 160.975, 175 159.619, 175 159.486 C 175 159.353, 177.626 158.262, 180.835 157.062 C 185.759 155.220, 188.686 152.901, 199.585 142.204 L 212.500 129.529 205.284 129.221 L 198.068 128.914 202.642 122.707 C 206.799 117.065, 215.797 99.784, 217.459 94.250 C 218.312 91.409, 216.776 91.332, 210.877 93.921 C 208.470 94.978, 204.740 96.166, 202.589 96.563 C 199.183 97.190, 198.760 97.067, 199.320 95.609 C 200.742 91.902, 202.930 82.182, 203.508 77 C 203.845 73.975, 204.327 70.487, 204.579 69.250 C 205.239 66.016, 202.940 66.401, 199.437 70.111 C 196.473 73.249, 186.874 80.208, 186.300 79.634 C 186.130 79.463, 186.429 77.010, 186.966 74.182 C 187.502 71.354, 188.006 62.280, 188.085 54.017 C 188.215 40.585, 187.994 38.413, 185.999 33.498 C 184.772 30.474, 183.413 28, 182.979 28 C 182.545 28, 181.050 29.946, 179.656 32.324 C 176.929 36.977, 168.312 47, 167.039 47 C 166.612 47, 166.023 45.210, 165.730 43.021 C 165.150 38.696, 153.189 13.876, 151.404 13.294 C 150.801 13.097, 149.144 14.695, 147.721 16.845 C 146.299 18.995, 143.192 21.845, 140.817 23.178 C 138.443 24.511, 135.232 26.438, 133.682 27.460 L 130.865 29.319 131.480 22.909 C 131.819 19.384, 132.319 15.038, 132.593 13.250 C 133.265 8.863, 131.251 8.948, 122.021 13.695 M 141.872 12.750 C 140.629 14.336, 140.664 14.371, 142.250 13.128 C 143.916 11.821, 144.445 11, 143.622 11 C 143.415 11, 142.627 11.787, 141.872 12.750 M 120.500 18.735 C 117.200 20.615, 113.678 22.895, 112.674 23.801 C 109.930 26.276, 104.258 36.895, 98.796 49.784 C 94.560 59.778, 94.007 61.861, 94.576 65.656 C 95.201 69.823, 96.667 72.501, 96.667 69.476 C 96.667 68.686, 97.246 66.119, 97.955 63.770 C 98.663 61.422, 99.556 58.396, 99.939 57.047 C 100.322 55.698, 100.437 58.735, 100.195 63.797 C 99.901 69.947, 100.111 73, 100.827 73 C 101.416 73, 102.678 75.475, 103.632 78.500 C 104.585 81.525, 105.661 84, 106.023 84 C 106.926 84, 108.812 74.866, 109.532 67 C 110.673 54.553, 111.144 51.494, 112.069 50.550 C 112.647 49.960, 113.022 50.907, 113.057 53.050 C 113.131 57.469, 113.931 65.264, 114.355 65.688 C 114.534 65.867, 117.390 62.475, 120.702 58.151 L 126.724 50.288 127.202 34.554 C 127.724 17.385, 127.538 17.208, 122.849 30.409 C 121.268 34.859, 120.261 36.925, 120.612 35 C 120.962 33.075, 122.515 27.909, 124.062 23.521 C 125.609 19.133, 126.791 15.491, 126.688 15.429 C 126.584 15.367, 123.800 16.854, 120.500 18.735 M 150.938 24 C 150.752 28.158, 150.690 28.256, 150.118 25.286 L 149.500 22.071 144.500 25.153 C 134.202 31.500, 129 36.090, 129 38.830 C 129 41.347, 129.127 41.296, 133.701 36.958 L 138.402 32.500 133.701 38.159 C 131.115 41.272, 129.015 44.422, 129.033 45.159 C 129.053 45.974, 129.803 45.618, 130.944 44.250 C 131.976 43.013, 133.591 42, 134.533 42 C 135.909 42, 136.011 42.282, 135.050 43.440 C 134.393 44.231, 134.001 46.144, 134.178 47.690 L 134.500 50.500 136.786 48.214 C 138.044 46.956, 138.858 45.579, 138.595 45.153 C 138.331 44.727, 139.479 42.831, 141.145 40.939 C 143.756 37.975, 144.078 37.828, 143.480 39.875 C 141.903 45.270, 149.134 35.907, 151.646 29.302 L 153.092 25.500 152.535 28.931 C 151.787 33.534, 148.433 38.935, 140.502 48.308 C 134.187 55.771, 133.909 56.322, 134.198 60.776 L 134.500 65.436 137.744 60.468 C 140.810 55.771, 140.969 55.667, 140.646 58.567 C 140.458 60.255, 139.508 63.723, 138.533 66.274 C 137.359 69.349, 137.013 71.855, 137.507 73.707 L 138.253 76.500 139.412 73.785 C 140.492 71.255, 140.573 71.426, 140.601 76.285 C 140.620 79.749, 141.414 83.011, 142.963 86 C 144.246 88.475, 145.205 90.500, 145.094 90.500 C 144.983 90.500, 145.985 92.975, 147.320 96 L 149.747 101.500 155.124 101.522 C 160.255 101.542, 160.729 101.315, 165.528 96.522 C 168.293 93.760, 172.476 87.900, 174.823 83.500 C 177.171 79.100, 178.807 76.625, 178.458 78 C 178.110 79.375, 176.099 83.537, 173.989 87.250 C 171.879 90.963, 170.366 94, 170.626 94 C 170.886 94, 172.423 93.316, 174.040 92.479 C 177.215 90.838, 179.824 86.408, 182.276 78.500 C 183.936 73.142, 185.228 43.973, 184.046 38.500 L 183.399 35.500 182.625 39.500 C 181.773 43.903, 173.936 64.269, 173.327 63.661 C 173.118 63.452, 174.984 57.538, 177.473 50.520 C 179.963 43.502, 182 37.564, 182 37.323 C 182 37.083, 179.535 39.791, 176.523 43.342 C 172.151 48.496, 169.349 50.668, 162.636 54.105 L 154.226 58.411 153.027 63.956 C 152.368 67.005, 151.592 70.518, 151.303 71.761 C 150.925 73.386, 151.161 73.882, 152.139 73.522 C 152.887 73.246, 154.175 73.477, 155 74.034 C 156.268 74.890, 156.074 75.398, 153.750 77.311 C 151.249 79.370, 149.927 83.090, 151.750 82.937 C 152.162 82.902, 154.971 79.995, 157.990 76.477 C 163.249 70.351, 165.993 69.296, 164.509 73.972 C 164.072 75.349, 163.279 75.937, 162.344 75.579 C 161.292 75.175, 161.028 75.512, 161.422 76.756 C 161.968 78.477, 161.378 79.603, 155.524 88.008 L 152.548 92.281 150.763 88.391 C 148.623 83.725, 148.809 73.540, 151.245 62 C 152.116 57.875, 153.084 51.350, 153.396 47.500 L 153.964 40.500 152.440 46 C 149.842 55.376, 145.879 66.957, 145.104 67.436 C 144.698 67.687, 145.867 62.404, 147.703 55.696 C 149.539 48.988, 151.562 40.677, 152.198 37.227 C 153.955 27.697, 155.504 30.946, 155.480 44.113 C 155.469 50.166, 155.590 54.729, 155.750 54.251 C 155.909 53.774, 156.431 51.385, 156.910 48.942 L 157.781 44.500 157.890 49.285 C 157.993 53.747, 158.135 53.998, 160 53 C 161.615 52.136, 162 50.906, 162 46.616 C 162 42.189, 161.094 39.485, 156.569 30.402 L 151.138 19.500 150.938 24 M 63.917 32.500 C 63.352 37.506, 63.512 38.821, 64.559 37.774 C 64.867 37.467, 64.975 35.029, 64.800 32.357 L 64.482 27.500 63.917 32.500 M 77.944 40.337 C 78.967 43.310, 80.005 46.588, 80.251 47.622 C 80.602 49.091, 81.058 48.691, 82.349 45.782 C 83.257 43.737, 83.990 41.712, 83.979 41.282 C 83.967 40.852, 82.186 39.247, 80.021 37.715 L 76.084 34.931 77.944 40.337 M 75.219 41.579 C 74.289 42.597, 74.015 46.340, 74.219 55.241 L 74.500 67.500 77.367 59.513 L 80.234 51.527 78.367 45.851 C 76.812 41.123, 76.286 40.410, 75.219 41.579 M 83.796 51.772 C 78.678 65.672, 75.535 76.036, 72.951 87.534 L 70.695 97.567 74.993 107.368 L 79.291 117.168 81.610 114.334 C 84.373 110.956, 84.486 109.841, 82.459 105.921 C 81.612 104.282, 81.164 102.543, 81.465 102.056 C 81.766 101.569, 81.483 100.994, 80.835 100.778 C 79.561 100.354, 79.329 99.359, 78.553 91 L 78.042 85.500 79.497 89.885 C 80.297 92.297, 80.748 94.599, 80.499 95.001 C 80.251 95.404, 80.937 96.538, 82.024 97.521 C 83.111 98.505, 84 99.915, 84 100.655 C 84 101.395, 84.353 102, 84.784 102 C 85.216 102, 86.331 103.290, 87.262 104.867 C 88.883 107.611, 89.127 107.688, 92.959 106.666 C 95.745 105.922, 98.488 105.910, 101.982 106.626 C 106.182 107.486, 107.235 107.396, 108.423 106.077 C 109.668 104.695, 109.351 103.695, 105.867 98 C 99.430 87.479, 96.365 80.917, 94.639 73.971 C 92.922 67.057, 90.097 49.538, 89.887 44.500 C 89.632 38.394, 87.091 54.618, 86.911 63.500 L 86.728 72.500 85.768 65.919 C 85.030 60.855, 85.171 57.414, 86.384 50.983 C 87.251 46.387, 87.829 42.496, 87.669 42.336 C 87.509 42.175, 85.766 46.422, 83.796 51.772 M 92.189 46.500 C 92.215 49.250, 92.543 52.850, 92.917 54.500 L 93.597 57.500 94.824 53.907 C 95.886 50.798, 95.788 49.721, 94.096 45.907 L 92.141 41.500 92.189 46.500 M 124.327 56.812 C 113.673 71.378, 111.418 75.544, 108.495 86.055 L 105.838 95.610 108.018 99.305 C 109.217 101.337, 110.408 103, 110.665 103 C 112.917 103, 114.980 100.320, 115.853 96.260 C 117.906 86.702, 118.613 86.021, 119.332 92.905 C 119.692 96.351, 120.242 99.582, 120.553 100.085 C 121.416 101.482, 124.994 101.182, 124.544 99.750 C 123.783 97.334, 122.831 81.508, 123.486 82.157 C 124.204 82.871, 126.085 93.113, 126.164 96.743 C 126.191 97.977, 126.609 98.741, 127.095 98.441 C 127.580 98.142, 127.709 98.594, 127.382 99.448 C 126.935 100.612, 127.454 101, 129.463 101 C 132.415 101, 141 106.410, 141 108.271 C 141 108.917, 141.719 108.418, 142.599 107.162 C 144.049 105.092, 144.055 104.447, 142.661 100.211 C 140.577 93.883, 141.349 93.630, 143.680 99.877 C 145.089 103.654, 145.893 104.684, 146.931 104.043 C 148.460 103.098, 146.445 97.107, 140.699 85.513 C 134.473 72.951, 132.662 66.915, 132.069 56.753 L 131.500 47.007 124.327 56.812 M 63 49.500 C 63 50.325, 63.450 51, 64 51 C 64.550 51, 65 50.325, 65 49.500 C 65 48.675, 64.550 48, 64 48 C 63.450 48, 63 48.675, 63 49.500 M 54.513 58.500 C 53.681 60.425, 52.319 63.575, 51.487 65.500 C 50.654 67.425, 50.354 69, 50.819 69 C 51.284 69, 52.139 67.537, 52.718 65.750 C 53.298 63.962, 54.504 60.813, 55.399 58.750 C 56.295 56.688, 56.802 55, 56.527 55 C 56.252 55, 55.346 56.575, 54.513 58.500 M 138.162 61.543 C 136.487 65.220, 136.807 66.005, 138.618 62.662 C 139.464 61.100, 139.969 59.636, 139.741 59.407 C 139.512 59.179, 138.802 60.140, 138.162 61.543 M 65.412 67.626 C 66.881 75.978, 66.844 78.188, 65.337 72.079 C 63.813 65.900, 63.703 65.750, 62.412 68.079 C 60.988 70.649, 60.613 79.024, 61.642 85.250 C 62.371 89.664, 64.949 90.409, 65.100 86.250 C 65.198 83.542, 65.210 83.537, 65.877 85.926 C 67.186 90.610, 68.684 89.016, 70.711 80.779 L 72.749 72.500 68.740 68.126 L 64.731 63.753 65.412 67.626 M 116.104 71.205 C 114.593 73.624, 112.924 84.165, 114.174 83.392 C 114.628 83.112, 115.020 81.671, 115.044 80.191 C 115.068 78.711, 115.723 75.717, 116.499 73.538 C 118.124 68.975, 117.990 68.184, 116.104 71.205 M 84.024 75.083 C 84.085 78.713, 87.842 93.232, 88.997 94.300 C 90.040 95.265, 90.139 95.108, 89.504 93.500 C 89.069 92.400, 87.854 87.689, 86.804 83.031 C 84.976 74.919, 83.973 72.051, 84.024 75.083 M 195 78.684 C 192.525 80.654, 188.606 83.119, 186.291 84.161 C 183.977 85.204, 181.813 86.494, 181.482 87.028 C 180.642 88.388, 181.595 88.244, 185.300 86.452 C 191.809 83.302, 184.843 87.902, 174.500 93.584 C 169 96.605, 163.471 99.861, 162.214 100.820 L 159.927 102.564 164.473 105.768 C 168.560 108.649, 170.658 111.706, 172.453 117.400 C 173.029 119.226, 173.141 119.217, 175.350 117.141 C 176.614 115.953, 178.025 115.323, 178.485 115.741 C 178.944 116.158, 179.019 115.974, 178.651 115.330 C 178.282 114.687, 179.028 113.337, 180.308 112.330 C 181.587 111.324, 182.604 110.182, 182.567 109.793 C 182.530 109.404, 183.276 108.504, 184.225 107.793 C 185.174 107.082, 187.986 102.911, 190.475 98.524 C 192.964 94.138, 195 90.919, 195 91.372 C 195 93.401, 186.099 109.028, 182.111 114 C 175.346 122.434, 175.179 122.904, 180.873 117.500 C 186.325 112.325, 191.826 103.595, 195.154 94.837 C 197.680 88.188, 200.069 77.839, 198.912 78.554 C 197.580 79.378, 197.797 77.603, 199.200 76.200 C 201.454 73.946, 199.505 75.099, 195 78.684 M 195.511 81.623 C 194.566 83.066, 194.287 83.941, 194.891 83.567 C 196.045 82.854, 198.374 79, 197.650 79 C 197.419 79, 196.457 80.180, 195.511 81.623 M 30.607 83.582 C 29.655 86.062, 29.896 90, 31 90 C 31.550 90, 32 88.200, 32 86 C 32 81.737, 31.589 81.023, 30.607 83.582 M 137.084 86.500 C 137.084 87.050, 137.946 89.075, 139 91 C 140.054 92.925, 140.916 94.050, 140.916 93.500 C 140.916 92.950, 140.054 90.925, 139 89 C 137.946 87.075, 137.084 85.950, 137.084 86.500 M 182 95.146 C 177.875 99.023, 175.400 101.734, 176.500 101.170 C 178.388 100.202, 190.968 87.946, 189.969 88.048 C 189.711 88.074, 186.125 91.268, 182 95.146 M 43.440 90.296 C 42.840 91.860, 47.436 101.669, 54.313 113.500 C 58.688 121.027, 73.479 136.440, 75.267 135.335 C 75.879 134.957, 74.614 133.097, 72.239 130.882 C 68.088 127.010, 62.789 120.567, 62.925 119.557 C 63.175 117.701, 62.867 117.029, 61.866 117.250 C 61.242 117.388, 59.780 115.842, 58.616 113.816 C 57.452 111.789, 53.986 106.614, 50.913 102.316 C 45.482 94.719, 42.336 89.648, 45.305 93.277 C 49.336 98.202, 65.196 114.586, 70.246 119.042 L 75.992 124.111 77.074 121.738 C 77.975 119.760, 77.619 118.294, 74.935 112.932 C 73.164 109.395, 70.992 105.665, 70.108 104.645 C 69.224 103.625, 68.612 102.612, 68.750 102.395 C 69.513 101.190, 68.633 100.195, 65.466 98.685 C 60.229 96.188, 59.899 96.659, 64.819 99.607 C 73.374 104.734, 68.103 102.837, 55.930 96.407 C 49.094 92.796, 44.400 90.188, 45.500 90.612 C 46.600 91.035, 49.300 91.342, 51.500 91.293 C 54.407 91.229, 54.855 91.385, 53.140 91.864 C 50.887 92.494, 50.947 92.604, 54.458 94.279 C 56.482 95.244, 58.626 95.731, 59.223 95.362 C 59.820 94.993, 60.043 95.122, 59.717 95.649 C 59.386 96.184, 60.672 96.651, 62.632 96.707 C 66.966 96.829, 66.260 96.001, 60.179 93.828 C 57.606 92.908, 56.231 92.120, 57.124 92.078 C 58.018 92.035, 60.662 92.675, 63 93.500 C 68.132 95.311, 67.670 95.303, 68.327 93.591 C 68.894 92.112, 63.571 90.900, 50.256 89.474 C 45.211 88.933, 43.902 89.091, 43.440 90.296 M 33.564 100.707 C 33.022 102.132, 33.136 102.247, 34.124 101.267 C 34.808 100.588, 35.115 99.781, 34.807 99.474 C 34.499 99.166, 33.940 99.721, 33.564 100.707 M 201.147 101.063 C 195.538 102.684, 192.130 104.988, 192.032 107.225 C 191.992 108.137, 195.484 106.822, 201.688 103.589 C 211.255 98.602, 211.162 98.168, 201.147 101.063 M 208.468 102.035 C 207.455 103.155, 206.094 103.866, 205.444 103.617 C 204.793 103.367, 202.852 104.020, 201.131 105.067 C 196.726 107.745, 197.219 108.367, 201.750 105.847 L 205.500 103.760 201.500 107.364 C 199.300 109.347, 194.575 112.374, 191 114.091 C 186.836 116.092, 182.809 119.062, 179.795 122.357 C 174.575 128.064, 173.699 130.071, 177.500 127.615 C 178.875 126.727, 181.238 125.271, 182.750 124.381 C 185.493 122.766, 185.493 122.769, 182.485 125.631 C 180.827 127.209, 178.352 129.238, 176.985 130.141 C 175.618 131.043, 174.862 132.155, 175.304 132.612 C 175.747 133.068, 176.527 132.780, 177.039 131.971 C 177.551 131.162, 177.976 130.972, 177.985 131.550 C 178.008 133.180, 175.894 134.897, 174.514 134.367 C 173.751 134.074, 173.028 135.108, 172.640 137.048 C 171.893 140.784, 172.500 142.129, 174.575 141.333 C 175.406 141.014, 175.850 140.517, 175.561 140.228 C 175.018 139.685, 177.190 137.605, 181.019 135 C 182.231 134.175, 185.086 132.042, 187.362 130.260 C 189.638 128.478, 191.950 127.007, 192.500 126.992 C 194.778 126.931, 203.233 115.537, 207.893 106.250 C 209.618 102.813, 210.867 100, 210.669 100 C 210.472 100, 209.481 100.916, 208.468 102.035 M 115.087 104.306 C 112.301 105.281, 110.787 107.052, 106.837 113.959 C 104.016 118.892, 102 123.665, 102 125.411 C 102 129.424, 106.362 146.975, 106.803 144.738 C 106.995 143.769, 107.455 143.161, 107.826 143.388 C 108.197 143.616, 108.529 142.381, 108.565 140.645 C 108.645 136.740, 112.909 127.518, 116.491 123.500 L 119.165 120.500 117.091 123.643 C 114.172 128.064, 108.997 139.206, 109.027 141 C 109.042 141.825, 110.503 139.827, 112.275 136.559 C 116.820 128.179, 125.742 119, 129.342 119 C 133.350 119, 135.963 120.698, 137.542 124.329 L 138.922 127.500 139.072 124.500 C 139.414 117.688, 139.575 116.396, 140.352 114.201 C 141.401 111.237, 139.302 107.968, 134.409 104.944 C 131.027 102.854, 130.327 102.763, 126.108 103.867 C 123.574 104.529, 120.263 105.969, 118.750 107.066 C 117.237 108.163, 116 108.574, 116 107.981 C 116 107.388, 117.912 106.034, 120.250 104.973 C 124.337 103.118, 124.385 103.045, 121.500 103.078 C 119.850 103.097, 116.964 103.650, 115.087 104.306 M 148.370 105.440 C 143.688 107.478, 143.436 108.960, 148.041 107.374 C 151.433 106.205, 152.543 106.203, 155.274 107.359 C 157.048 108.110, 159.400 109.762, 160.500 111.032 L 162.500 113.339 159.467 111.142 C 154.788 107.752, 149.820 107.330, 145.563 109.961 C 141.233 112.637, 140.364 116.703, 144.527 114.806 C 146.469 113.921, 147.337 113.939, 148.277 114.886 C 149.244 115.860, 149.124 115.975, 147.709 115.437 C 146.533 114.989, 146.018 115.183, 146.209 116.002 C 146.369 116.689, 145.875 117.477, 145.111 117.755 C 144.179 118.093, 143.983 117.837, 144.515 116.975 C 145.040 116.127, 144.912 115.937, 144.138 116.415 C 143.494 116.813, 143.195 117.506, 143.473 117.956 C 143.751 118.405, 143.308 119.329, 142.489 120.009 C 140.779 121.428, 140.494 124, 142.047 124 C 142.622 124, 142.285 125.096, 141.297 126.436 C 139.662 128.653, 138.802 128.872, 131.754 128.875 C 127.493 128.876, 123.511 129.184, 122.904 129.559 C 122.297 129.934, 120.050 132.950, 117.910 136.260 L 114.020 142.279 117.588 146.229 C 119.550 148.401, 120.896 150.438, 120.578 150.756 C 120.260 151.073, 118.532 149.635, 116.737 147.558 L 113.474 143.783 111.765 147.367 L 110.056 150.951 114.672 154.475 C 119.718 158.328, 120.582 158.623, 121.338 156.750 C 121.615 156.063, 121.878 156.528, 121.921 157.785 C 121.992 159.843, 121.777 159.953, 119.750 158.890 C 118.513 158.242, 115.860 156.426, 113.856 154.855 C 111.852 153.285, 109.939 152, 109.606 152 C 108.339 152, 109.073 154.337, 110.750 155.642 C 112.398 156.925, 112.392 156.967, 110.649 156.357 C 109.578 155.982, 108.462 156.253, 108 157 C 107.428 157.926, 106.758 157.432, 105.631 155.254 C 104.732 153.515, 102.741 151.757, 100.973 151.140 C 98.050 150.122, 97.922 150.183, 98.569 152.282 C 100.569 158.766, 101.580 159.605, 109.001 160.931 C 116.567 162.283, 118.061 161.983, 116.020 159.524 C 114.907 158.183, 115.208 158.189, 118.523 159.574 C 121.613 160.865, 122.441 160.910, 123.130 159.824 C 123.763 158.825, 123.973 158.807, 123.985 159.750 C 124.012 161.994, 125.997 161.062, 126.116 158.750 C 126.203 157.057, 126.345 156.933, 126.689 158.250 C 126.941 159.213, 127.350 160, 127.598 160 C 127.847 160, 131.177 158.425, 135 156.500 C 142.906 152.519, 143.147 152.453, 142.364 154.494 C 142.048 155.316, 141.421 155.760, 140.970 155.482 C 140.519 155.203, 138.924 155.533, 137.425 156.216 L 134.701 157.457 137.100 158.215 C 139.031 158.825, 138.889 158.888, 136.373 158.536 C 133.468 158.130, 128.844 160.178, 130.017 161.351 C 130.300 161.633, 133.952 161.385, 138.132 160.798 L 145.732 159.732 147.914 155.241 C 149.652 151.664, 149.781 150.877, 148.548 151.375 C 144.494 153.012, 143.912 152.828, 147.500 151.043 C 149.700 149.948, 152.063 149.041, 152.750 149.026 C 154.211 148.996, 154.357 147.112, 153.056 145.057 C 152.306 143.870, 151.642 143.829, 149.322 144.823 C 146.716 145.940, 146.649 145.916, 148.441 144.516 C 149.509 143.682, 151.646 143, 153.191 143 C 155.858 143, 156 142.770, 156 138.450 C 156 133.212, 153.824 128.314, 151.264 127.792 C 150.294 127.594, 147.569 127.717, 145.209 128.064 L 140.918 128.695 143.576 125.920 C 145.039 124.394, 147.550 122.601, 149.157 121.935 C 151.763 120.855, 152.357 120.982, 154.668 123.112 C 158.459 126.608, 159.995 131.074, 160.036 138.718 L 160.072 145.500 162.568 142.500 C 163.941 140.850, 166.434 137.475, 168.109 135 C 170.818 130.998, 171.085 129.959, 170.525 125.614 C 169.316 116.241, 166.851 110.830, 162.172 107.282 C 157.420 103.678, 153.593 103.167, 148.370 105.440 M 90.467 109.876 C 87.264 111.331, 85.749 112.993, 83.103 117.958 C 79.275 125.139, 79.325 127.159, 83.554 136.500 L 86.271 142.500 88.540 135.185 C 91.017 127.195, 92.681 124.789, 96.953 123.020 C 99.780 121.849, 103.989 114.656, 102.638 113.305 C 102.267 112.934, 99.722 113.347, 96.982 114.223 C 94.242 115.099, 92 115.621, 92 115.383 C 92 114.828, 96.635 112.970, 100.500 111.976 L 103.500 111.205 100.088 111.102 C 98.080 111.042, 94.890 112.047, 92.338 113.542 C 89.952 114.940, 88 115.859, 88 115.584 C 88 115.309, 89.952 113.940, 92.338 112.542 C 95.373 110.764, 98.151 109.995, 101.588 109.985 C 105.128 109.974, 106.081 109.699, 105 109 C 102.573 107.432, 94.819 107.899, 90.467 109.876 M 40.692 115.996 C 42.237 118.744, 43.663 120.505, 43.862 119.909 C 44.460 118.122, 40.805 111, 39.290 111 C 38.270 111, 38.654 112.369, 40.692 115.996 M 132 111.882 C 134.045 112.243, 135.500 113.084, 135.500 113.905 C 135.500 114.677, 136.287 115.425, 137.250 115.566 C 139.509 115.898, 139.478 114.742, 137.171 112.655 C 136.132 111.714, 133.866 111.057, 131.921 111.132 L 128.500 111.263 132 111.882 M 153.973 114.752 C 158.261 116.910, 163.953 124.234, 164.136 127.828 C 164.250 130.069, 164.341 130.150, 164.696 128.327 C 165.651 123.422, 157.474 112.998, 152.673 113.002 C 150.937 113.003, 151.198 113.354, 153.973 114.752 M 44.614 123.437 C 44.917 124.227, 45.801 124.630, 46.577 124.332 C 48.266 123.684, 47.468 122, 45.472 122 C 44.658 122, 44.296 122.607, 44.614 123.437 M 96.197 132.263 C 95.553 133.038, 94.366 135.546, 93.558 137.836 L 92.089 142 94.963 142 C 96.543 142, 98.580 142.285, 99.489 142.634 C 100.917 143.182, 101.046 142.742, 100.439 139.384 C 100.053 137.248, 99.203 134.454, 98.552 133.176 C 97.560 131.232, 97.176 131.083, 96.197 132.263 M 38.192 135 C 38.128 137.735, 38.755 139.009, 41.055 140.826 C 44.756 143.749, 45.169 141.447, 41.553 138.050 C 40.208 136.786, 38.919 134.795, 38.689 133.626 C 38.452 132.417, 38.237 133.011, 38.192 135 M 55.620 133.714 C 54.266 134.062, 56.225 135.557, 62.620 139.060 C 67.504 141.735, 72.063 143.940, 72.750 143.962 C 75.030 144.032, 74.091 138.705, 71.313 135.805 C 68.961 133.350, 67.931 133.014, 63.063 133.116 C 60.003 133.180, 56.654 133.449, 55.620 133.714 M 181.361 139.349 C 174.254 144.133, 172.126 146.103, 171.790 148.211 C 171.491 150.088, 171.842 151.052, 172.929 151.345 C 174.209 151.690, 174.175 151.790, 172.750 151.884 C 170.921 152.005, 170.231 155, 172.032 155 C 172.600 155, 174.737 154.288, 176.782 153.419 C 178.827 152.549, 181.318 151.669, 182.317 151.463 C 183.317 151.257, 185.792 149.644, 187.817 147.878 C 198.668 138.419, 202.920 134.253, 202.327 133.660 C 201.964 133.297, 199.154 133.045, 196.083 133.099 C 190.974 133.190, 189.725 133.720, 181.361 139.349 M 58.750 134.662 C 59.438 134.940, 60.563 134.940, 61.250 134.662 C 61.938 134.385, 61.375 134.158, 60 134.158 C 58.625 134.158, 58.063 134.385, 58.750 134.662 M 195 137 C 191.975 138.598, 189.950 139.906, 190.500 139.906 C 191.050 139.906, 193.975 138.598, 197 137 C 200.025 135.402, 202.050 134.094, 201.500 134.094 C 200.950 134.094, 198.025 135.402, 195 137 M 76.367 138.674 C 75.561 141.883, 77.491 155.213, 79.145 157.860 C 80.333 159.763, 88.030 165.129, 91.250 166.301 C 92.420 166.726, 93 166.442, 93 165.444 C 93 164.623, 91.777 163.486, 90.283 162.917 C 85.865 161.238, 85 160.129, 86.018 157.452 C 86.713 155.624, 86.547 154.846, 85.314 154.156 C 84.141 153.499, 83.865 152.427, 84.304 150.232 C 84.831 147.594, 84.660 147.276, 82.954 147.722 C 81.316 148.151, 80.981 147.689, 80.882 144.867 C 80.816 143.015, 80.823 141.144, 80.895 140.709 C 81.112 139.411, 79.003 136, 77.984 136 C 77.464 136, 76.736 137.203, 76.367 138.674 M 78 143 C 78 144.650, 78.174 146, 78.387 146 C 78.599 146, 78.971 144.650, 79.213 143 C 79.455 141.350, 79.282 140, 78.827 140 C 78.372 140, 78 141.350, 78 143 M 168.608 140.826 C 168.240 141.421, 168.112 142.941, 168.324 144.204 C 168.535 145.467, 168.516 145.938, 168.281 145.250 C 167.282 142.328, 164.398 144.982, 164.749 148.500 C 164.859 149.600, 164.697 149.935, 164.389 149.244 C 163.397 147.017, 161.973 149.034, 162.577 151.811 C 163.029 153.891, 162.920 154.160, 162.096 153 C 161.373 151.982, 161.026 151.902, 161.015 152.750 C 161.007 153.438, 160.239 154, 159.309 154 C 157.796 154, 157.812 154.142, 159.460 155.347 C 161.117 156.558, 161.164 157.007, 159.935 159.786 C 159.182 161.486, 157.539 163.345, 156.283 163.917 C 153.945 164.982, 153.151 167, 155.070 167 C 156.824 167, 164.913 161.062, 166.538 158.582 C 168.559 155.498, 171.107 143.014, 170.088 141.193 C 169.547 140.226, 169.054 140.104, 168.608 140.826 M 47 145.050 C 53.303 150.108, 55 151.123, 54.964 149.818 C 54.917 148.141, 48.194 142.993, 46.089 143.022 C 44.930 143.038, 45.177 143.588, 47 145.050 M 67 143.409 C 67 143.599, 67.675 144.315, 68.500 145 C 69.365 145.718, 70 145.815, 70 145.229 C 70 144.671, 69.325 143.955, 68.500 143.638 C 67.675 143.322, 67 143.219, 67 143.409 M 94.167 145.534 C 92.923 148.263, 92.934 148.273, 98.157 149.412 C 99.619 149.731, 101.498 150.254, 102.334 150.575 C 104.563 151.430, 103.214 147.009, 100.572 144.800 C 97.643 142.350, 95.506 142.594, 94.167 145.534 M 130.766 147.917 C 128.971 149.522, 127.854 151.187, 128.284 151.617 C 128.714 152.048, 130.732 150.735, 132.767 148.700 C 137.136 144.331, 135.498 143.690, 130.766 147.917 M 139.500 150.588 L 136.500 153.165 139.750 151.015 C 141.537 149.832, 143 148.669, 143 148.432 C 143 147.683, 142.577 147.944, 139.500 150.588 M 90.407 151.586 C 90.795 153.189, 92.742 159, 94.732 164.500 C 97.424 171.937, 99.268 175.380, 101.926 177.932 C 107.974 183.741, 121.235 193, 123.506 193 C 128.983 193, 144.300 179.833, 147.659 172.236 C 150.554 165.689, 150.563 165.029, 147.750 164.884 C 146.027 164.795, 145.915 164.660, 147.269 164.307 C 149.116 163.826, 153 157.206, 153 154.540 C 153 151.734, 150.530 152.948, 148.500 156.753 C 146.592 160.328, 146.156 160.559, 139 161.781 C 133.251 162.762, 131.044 162.789, 129.545 161.894 C 128.096 161.029, 127.493 161.021, 127.212 161.864 C 126.746 163.262, 121 163.388, 121 162 C 121 160.828, 118.790 161.100, 117.857 162.386 C 117.489 162.892, 113.676 162.698, 108.967 161.933 L 100.721 160.594 98.765 155.889 C 97.690 153.301, 96.065 150.968, 95.155 150.705 C 94.245 150.442, 92.645 149.877, 91.600 149.449 C 89.913 148.758, 89.780 148.997, 90.407 151.586 M 56.015 156.250 C 56.033 160.060, 56.716 161.288, 59.684 162.850 C 63.611 164.917, 64.574 164.036, 61.250 161.416 C 58.907 159.570, 58 158.038, 58 155.928 C 58 154.317, 57.550 153, 57 153 C 56.450 153, 56.007 154.463, 56.015 156.250 M 73.211 155.395 C 73.920 156.162, 74.845 156.581, 75.266 156.326 C 76.410 155.633, 75.100 154, 73.402 154 C 72.186 154, 72.151 154.249, 73.211 155.395 M 109.813 158.683 C 110.534 158.972, 111.397 158.936, 111.729 158.604 C 112.061 158.272, 111.471 158.036, 110.417 158.079 C 109.252 158.127, 109.015 158.364, 109.813 158.683 M 167.044 161.447 C 166.130 162.548, 166.523 162.956, 169.024 163.505 C 173.064 164.393, 173.686 163.680, 170.623 161.672 C 168.567 160.325, 168.004 160.290, 167.044 161.447 M 103.750 163.662 C 104.438 163.940, 105.563 163.940, 106.250 163.662 C 106.938 163.385, 106.375 163.158, 105 163.158 C 103.625 163.158, 103.063 163.385, 103.750 163.662 M 65 164.906 C 65 165.381, 66.125 166.507, 67.500 167.408 C 69.053 168.426, 70 169.984, 70 171.523 C 70 173.039, 70.572 174, 71.475 174 C 72.597 174, 72.805 173.222, 72.343 170.750 C 72.009 168.963, 71.458 167.248, 71.118 166.940 C 69.723 165.675, 65 164.106, 65 164.906 M 111.436 166.128 C 113.817 168.001, 114.463 168.103, 116.821 166.976 L 119.500 165.695 117 164.947 C 115.625 164.536, 113.202 164.155, 111.615 164.100 L 108.730 164 111.436 166.128 M 132.184 164.728 C 129.439 165.066, 129.073 165.383, 130.057 166.568 C 131.557 168.376, 133.990 168.395, 136.527 166.620 C 137.612 165.861, 139.400 165.014, 140.500 164.736 C 142.853 164.143, 136.984 164.137, 132.184 164.728 M 122.667 167.667 C 122.300 168.033, 122 169.582, 122 171.108 C 122 172.634, 121.521 174.178, 120.935 174.540 C 120.238 174.971, 120.464 175.855, 121.590 177.099 C 123.118 178.788, 123.132 179, 121.714 179 C 120.836 179, 119.909 179.338, 119.655 179.750 C 119.400 180.162, 121.355 180.500, 124 180.500 C 126.645 180.500, 128.600 180.162, 128.345 179.750 C 128.091 179.338, 126.948 179, 125.806 179 C 123.879 179, 123.918 178.853, 126.343 176.945 L 128.955 174.890 126.345 170.945 C 123.473 166.605, 123.608 166.725, 122.667 167.667 M 79.361 179.571 C 78.435 180.986, 76.483 186.170, 75.025 191.091 C 73.566 196.013, 72.064 199.731, 71.687 199.353 C 71.309 198.976, 70.968 195.479, 70.930 191.583 C 70.857 184.233, 69.212 184.750, 69.070 192.168 C 68.936 199.156, 67.876 199.794, 65.334 194.417 L 63.010 189.500 63.604 195.469 L 64.199 201.437 59.570 196.289 L 54.942 191.141 50.472 192.664 C 48.014 193.502, 45.777 194.552, 45.501 194.998 C 44.865 196.027, 53.912 209.414, 56.250 210.902 C 57.854 211.924, 58 211.455, 58 205.308 C 58 197.760, 58.424 197.819, 62.933 206.001 C 65.813 211.226, 65.971 211.351, 66.105 208.500 C 66.183 206.836, 66.990 209.254, 67.917 213.931 C 70.312 226.017, 72.233 225.903, 71.821 213.699 C 71.645 208.466, 71.750 204.340, 72.055 204.531 C 72.360 204.721, 73.679 208.288, 74.987 212.459 C 76.848 218.393, 78.086 220.591, 80.682 222.571 C 84.541 225.515, 84.468 225.820, 82.385 215.500 C 80.611 206.711, 80.372 181.228, 82.048 179.552 C 83.281 178.319, 83.268 177, 82.023 177 C 81.486 177, 80.288 178.157, 79.361 179.571 M 97.365 183.524 C 97.744 187.361, 98.541 193.044, 99.138 196.154 C 100.185 201.615, 100.341 201.821, 103.718 202.215 L 107.213 202.623 106.708 198.562 C 106.195 194.430, 106.733 195.073, 108.959 201.250 C 109.505 202.762, 110.637 204, 111.475 204 C 112.314 204, 113 203.817, 113 203.594 C 113 203.370, 111.016 198.548, 108.590 192.877 C 105.196 184.941, 103.316 181.873, 100.429 179.557 L 96.677 176.547 97.365 183.524 M 164.148 177.669 C 168.052 178.324, 168.114 178.909, 166.564 200.500 C 166.237 205.062, 164.658 211.484, 162.031 218.940 C 159.814 225.231, 158 230.619, 158 230.912 C 158 232.834, 161.801 225.331, 165.047 217.003 C 168.809 207.348, 168.903 206.793, 169.198 192.313 L 169.500 177.500 165.500 177.362 C 163.298 177.287, 162.690 177.424, 164.148 177.669 M 153 183.495 L 153 188.990 157.513 191.111 C 159.995 192.278, 162.271 193.630, 162.572 194.116 C 163.892 196.252, 165 194.658, 165 190.622 C 165 186.511, 164.673 185.991, 159.658 182.122 C 156.719 179.855, 154.019 178, 153.658 178 C 153.296 178, 153 180.473, 153 183.495 M 88 183.429 C 84.975 185.816, 82.545 188.271, 82.600 188.884 C 82.655 189.498, 82.767 191.356, 82.850 193.014 L 83 196.028 86.750 193.575 C 88.813 192.226, 91.786 190.808, 93.359 190.425 C 96.005 189.780, 96.173 189.460, 95.620 186.114 C 95.291 184.126, 95.017 181.713, 95.011 180.750 C 94.995 178.247, 94.165 178.564, 88 183.429 M 121.736 182.597 C 120.551 183.782, 122.024 185, 124.642 185 C 126.215 185, 127.011 184.529, 126.755 183.750 C 126.294 182.350, 122.788 181.545, 121.736 182.597 M 178.865 183.750 L 180.952 185.500 176.980 195.500 C 174.795 201, 173.006 205.847, 173.004 206.270 C 172.999 207.253, 180.305 203.552, 182.291 201.566 C 183.969 199.888, 185.569 187.369, 184.526 184.082 C 184.020 182.489, 183.033 182, 180.322 182 C 176.819 182, 176.802 182.020, 178.865 183.750 M 144.848 185.250 C 142.697 187.576, 133.777 203.111, 134.295 203.628 C 134.456 203.789, 135.541 203.671, 136.707 203.366 C 137.996 203.029, 139.658 200.988, 140.950 198.156 L 143.073 193.500 142.426 197.886 L 141.778 202.272 144.629 201.557 C 146.197 201.163, 147.722 200.449, 148.019 199.969 C 148.315 199.490, 148.692 195.818, 148.855 191.811 C 149.026 187.638, 149.654 184.205, 150.326 183.777 C 151.041 183.323, 150.606 183.025, 149.214 183.015 C 147.957 183.007, 145.992 184.012, 144.848 185.250 M 138.579 188.330 C 135.484 191.425, 126.622 196, 123.722 196 C 122.448 196, 118.390 194.019, 114.703 191.597 C 111.016 189.176, 108 187.539, 108 187.959 C 108 188.898, 115.613 202.829, 117.115 204.639 C 117.712 205.358, 119.818 206.251, 121.795 206.621 C 125.028 207.228, 125.684 206.953, 128.305 203.898 C 130.231 201.652, 130.816 201.292, 130.029 202.836 C 128.348 206.132, 129.765 206.963, 132.004 203.995 C 134.557 200.609, 142.287 186, 141.525 186 C 141.186 186, 139.861 187.049, 138.579 188.330 M 186.635 195.538 C 185.736 200.115, 185.009 206.253, 185.021 209.180 L 185.042 214.500 188.908 208.467 C 191.034 205.148, 193.499 201.831, 194.387 201.094 C 195.835 199.892, 196 200.278, 196 204.878 C 196 207.695, 196.436 210, 196.970 210 C 197.503 210, 200.226 206.612, 203.020 202.470 L 208.101 194.940 204.801 193.575 C 202.985 192.823, 199.700 191.442, 197.500 190.505 C 187.935 186.431, 188.473 186.181, 186.635 195.538 M 30.345 192.543 C 30.019 193.392, 29.976 194.310, 30.249 194.583 C 30.523 194.856, 30.986 194.161, 31.279 193.040 C 31.903 190.657, 31.210 190.289, 30.345 192.543 M 151.219 197.034 C 150.235 200.912, 150.272 201, 152.856 200.978 C 155.514 200.955, 160.935 197.602, 159.934 196.600 C 159.639 196.305, 157.784 195.390, 155.812 194.566 L 152.226 193.068 151.219 197.034 M 93.542 194.729 C 92.465 195.003, 90.536 195.913, 89.255 196.752 L 86.927 198.278 89.988 200.139 C 91.671 201.162, 94.215 202, 95.641 202 C 97.841 202, 98.142 201.660, 97.630 199.750 C 97.299 198.512, 97.021 196.713, 97.014 195.750 C 97 193.943, 96.832 193.894, 93.542 194.729 M 118.036 196.445 C 117.965 198.321, 123.426 203, 125.687 203 C 126.959 203, 128 202.550, 128 202 C 128 201.450, 126.779 201, 125.288 201 C 123.541 201, 121.773 200.021, 120.324 198.250 C 119.085 196.738, 118.056 195.925, 118.036 196.445 M 161.750 198.613 C 160.238 199.411, 159 200.500, 159 201.032 C 159 202.534, 162.612 202.172, 163.972 200.534 C 165.970 198.127, 164.719 197.046, 161.750 198.613 M 84.250 201.250 C 85.072 202.488, 86.027 203.387, 86.372 203.250 C 86.717 203.113, 87.787 202.985, 88.750 202.967 C 90.218 202.939, 90.120 202.617, 88.139 200.967 C 86.841 199.885, 85.098 199, 84.267 199 C 82.924 199, 82.922 199.250, 84.250 201.250 M 140 204.567 C 136.425 205.342, 131.333 207.100, 128.684 208.474 L 123.867 210.973 120.124 209.063 C 114.352 206.119, 104.870 203.993, 97.856 204.070 C 86.809 204.192, 86.867 204.742, 98.764 212.683 C 107.892 218.777, 110.228 219.893, 114.361 220.133 C 122.367 220.599, 124.076 215.424, 117.225 211.461 C 114.539 209.908, 114.536 209.894, 117 210.488 C 118.375 210.820, 120.527 211.235, 121.783 211.412 C 123.038 211.588, 124.352 212.019, 124.703 212.370 C 125.054 212.720, 126.501 212.266, 127.920 211.359 L 130.500 209.712 128.324 212.106 C 127.127 213.423, 125.841 215.738, 125.466 217.250 C 124.605 220.719, 125.892 220.789, 138.044 217.936 C 144.686 216.377, 147.957 214.999, 151.418 212.302 C 156.412 208.411, 156.912 207.412, 154.250 206.638 C 153.203 206.333, 153.504 206.191, 155 206.283 C 156.375 206.369, 158.111 206.058, 158.857 205.594 C 163.181 202.904, 150.791 202.229, 140 204.567 M 34 205.031 C 34 205.564, 34.675 206, 35.500 206 C 36.325 206, 37 205.823, 37 205.607 C 37 205.391, 36.325 204.955, 35.500 204.638 C 34.675 204.322, 34 204.499, 34 205.031 M 156.253 210.877 L 149.006 217.660 136.939 220.473 C 126.872 222.820, 123.559 223.185, 116.957 222.676 C 109.332 222.088, 108.682 221.831, 99.151 215.646 C 93.710 212.116, 88.949 208.726, 88.570 208.113 C 88.192 207.501, 87.407 207, 86.826 207 C 84.516 207, 98.431 225.654, 102.192 227.599 C 105.563 229.343, 105.878 230.396, 102.750 229.465 C 100.592 228.822, 100.608 228.905, 103.141 231.516 C 104.913 233.341, 108.480 235.018, 113.975 236.610 L 122.168 238.983 131.334 236.391 C 136.375 234.965, 141.418 233.691, 142.540 233.560 C 145.270 233.241, 149.838 230.171, 151.104 227.806 C 152.073 225.996, 151.906 226.007, 147.966 228.017 C 145.678 229.184, 143.625 229.958, 143.403 229.737 C 143.182 229.515, 144.800 227.888, 146.999 226.121 C 149.198 224.354, 152.539 220.566, 154.423 217.704 C 156.306 214.842, 159.232 210.977, 160.924 209.114 C 163.470 206.313, 164.849 203.839, 163.750 204.047 C 163.613 204.073, 160.239 207.147, 156.253 210.877 M 44.015 212.092 C 44.040 214.323, 45.614 216.228, 47.120 215.848 C 48.148 215.589, 47.926 214.885, 46.250 213.092 C 44.799 211.539, 44.005 211.183, 44.015 212.092 M 98.236 220.254 C 98.964 222.520, 113.058 231.920, 116.773 232.617 C 120.790 233.371, 123.708 232.673, 135.300 228.185 C 142.734 225.306, 148.561 222.209, 147.837 221.520 C 147.652 221.343, 142.550 222.050, 136.500 223.091 C 119.908 225.944, 111.931 225.675, 104.168 222.003 C 100.570 220.301, 98.009 219.545, 98.236 220.254 M 54.731 225.920 C 54.296 227.583, 54.426 227.974, 55.168 227.232 C 55.750 226.650, 56.028 225.585, 55.788 224.863 C 55.538 224.114, 55.085 224.568, 54.731 225.920 M 178 232 C 178.825 232.533, 179.950 232.969, 180.500 232.969 C 181.050 232.969, 180.825 232.533, 180 232 C 179.175 231.467, 178.050 231.031, 177.500 231.031 C 176.950 231.031, 177.175 231.467, 178 232 M 73 232.794 C 73 233.323, 73.727 234.358, 74.615 235.096 C 76.013 236.256, 76.181 236.182, 75.865 234.551 C 75.489 232.607, 73 231.082, 73 232.794 M 77.509 238.014 C 78.447 239.533, 86 243.184, 86 242.119 C 86 241.107, 79.488 237, 77.884 237 C 77.333 237, 77.164 237.456, 77.509 238.014 M 97.500 247 C 97.840 247.550, 99.104 247.993, 100.309 247.985 C 102.090 247.972, 102.219 247.788, 101 247 C 99.030 245.727, 96.713 245.727, 97.500 247 M 107 250.051 C 107 250.894, 114.864 252.470, 115.566 251.767 C 115.803 251.530, 113.973 250.873, 111.499 250.307 C 109.024 249.741, 107 249.625, 107 250.051" stroke="none" fill="black" fill-rule="evenodd"/>
</svg>