<svg xmlns="http://www.w3.org/2000/svg" width="336" height="344" viewBox="0 0 336 344" version="1.1">
	<path d="M 158.040 11.115 C 131.329 13.485, 105.401 22.815, 82.588 38.267 C 70.638 46.362, 50.362 66.638, 42.267 78.588 C -7.088 151.455, 11.148 247.643, 83.826 297.796 C 93.221 304.279, 110.773 313.036, 121.411 316.547 C 161.282 329.705, 203.103 326.895, 240.500 308.546 C 272.999 292.599, 296.993 268.424, 312.996 235.500 C 325.445 209.890, 330.693 182.091, 328.162 155.168 C 324.602 117.293, 310.609 85.719, 285.733 59.435 C 264.200 36.681, 233.673 19.804, 202.735 13.547 C 195.472 12.078, 173.964 9.882, 169.500 10.153 C 168.400 10.220, 163.243 10.653, 158.040 11.115 M 153.500 19.676 C 137.142 21.726, 118.411 27.628, 103.198 35.527 C 88.897 42.953, 78.237 50.796, 66.517 62.517 C 46.036 82.997, 33.085 106.358, 26.334 135 C 22.901 149.567, 22.061 173.799, 24.431 189.887 C 27.533 210.934, 36.570 233.640, 49.353 252.500 C 55.072 260.938, 77.974 285.287, 79.732 284.798 C 80.154 284.681, 84.100 285.793, 88.500 287.269 C 127.514 300.359, 167.939 297.998, 204.500 280.493 C 241.555 262.752, 270.727 229.562, 283.477 190.640 C 288.421 175.546, 290.109 165.481, 290.712 147.500 C 291.645 119.640, 287.210 99.067, 274.976 74.500 C 266.335 57.151, 258.657 46.622, 251.054 41.700 C 236.489 32.269, 215.025 24.004, 197.151 20.943 C 186.581 19.134, 163.235 18.456, 153.500 19.676 M 125.450 107.117 C 121.239 115.769, 120.550 116.316, 112.500 117.402 C 109.750 117.772, 106.209 118.331, 104.631 118.643 L 101.763 119.211 108.381 125.881 C 115.766 133.322, 115.861 133.673, 113.620 145.250 C 112.901 148.963, 112.461 152, 112.642 152 C 112.823 152, 116.814 150.094, 121.511 147.764 L 130.052 143.528 138.276 147.728 C 147.833 152.609, 147.765 152.671, 145.659 141 L 144.305 133.500 151.272 126.356 L 158.240 119.212 155.370 118.661 C 153.791 118.357, 149.350 117.612, 145.500 117.004 L 138.500 115.899 134.618 107.450 C 132.482 102.802, 130.435 99, 130.068 99 C 129.701 99, 127.623 102.652, 125.450 107.117 M 208.921 107.195 L 204.611 115.885 197.556 116.997 C 193.675 117.609, 189.209 118.357, 187.630 118.661 L 184.760 119.212 191.784 126.356 L 198.808 133.500 197.364 142.377 C 196.570 147.259, 196.132 151.465, 196.390 151.724 C 196.649 151.982, 200.508 150.197, 204.965 147.757 L 213.070 143.320 221.608 147.753 C 226.305 150.191, 230.288 152.032, 230.460 151.843 C 230.632 151.654, 230.078 147.308, 229.228 142.184 L 227.684 132.868 234.565 125.934 C 238.350 122.120, 241.204 119, 240.907 119 C 240.610 119, 237.697 118.543, 234.434 117.984 C 231.170 117.425, 227.032 116.728, 225.237 116.436 C 222.293 115.957, 221.545 115.052, 217.602 107.205 L 213.231 98.505 208.921 107.195 M 209.098 177.208 C 206.814 181.997, 204.579 186.142, 204.132 186.419 C 203.684 186.695, 199.178 187.472, 194.119 188.146 L 184.919 189.371 191.953 196.453 L 198.988 203.535 197.495 212.018 C 196.674 216.683, 196.002 221.103, 196.001 221.841 C 196 222.705, 199.035 221.541, 204.547 218.560 L 213.094 213.939 221.750 218.433 C 226.511 220.905, 230.489 222.831, 230.589 222.713 C 230.690 222.596, 230.078 218.308, 229.228 213.184 L 227.684 203.868 234.537 196.962 C 238.306 193.164, 241.190 189.887, 240.945 189.680 C 240.700 189.473, 236.456 188.753, 231.513 188.081 C 226.569 187.409, 222.416 186.749, 222.283 186.616 C 222.150 186.483, 220.063 182.352, 217.646 177.437 L 213.251 168.500 209.098 177.208 M 125.296 178.368 L 121.146 186.735 113.532 187.868 C 109.345 188.490, 105.037 189, 103.959 189 C 100.799 189, 101.615 190.411, 108.500 196.851 C 115.763 203.645, 115.763 203.648, 113.597 215.750 C 112.883 219.738, 112.406 223, 112.537 223 C 112.667 223, 116.638 220.945, 121.360 218.433 L 129.945 213.865 138.473 218.514 C 148.327 223.885, 147.984 224.250, 145.534 211 L 144.147 203.500 151.099 197 C 154.922 193.425, 158.039 190.162, 158.025 189.750 C 158.011 189.338, 157.118 189, 156.041 189 C 154.963 189, 150.655 188.490, 146.468 187.868 L 138.854 186.735 134.704 178.368 C 132.422 173.765, 130.305 170, 130 170 C 129.695 170, 127.578 173.765, 125.296 178.368" stroke="none" fill="black" fill-rule="evenodd"/>
</svg>