<svg xmlns="http://www.w3.org/2000/svg" width="454" height="341" viewBox="0 0 454 341" version="1.1">
	<path d="M 260 14 C 259.099 14.582, 258.975 14.975, 259.691 14.985 C 260.346 14.993, 261.160 14.550, 261.500 14 C 262.267 12.758, 261.921 12.758, 260 14 M 263.750 13.662 C 264.438 13.940, 265.563 13.940, 266.250 13.662 C 266.938 13.385, 266.375 13.158, 265 13.158 C 263.625 13.158, 263.063 13.385, 263.750 13.662 M 271.286 22.500 C 271.294 25.250, 271.488 26.256, 271.718 24.736 C 271.947 23.216, 271.941 20.966, 271.704 19.736 C 271.467 18.506, 271.279 19.750, 271.286 22.500 M 251.571 23.571 C 251.204 25.037, 251.096 26.429, 251.331 26.665 C 251.567 26.900, 252.061 25.894, 252.429 24.429 C 252.796 22.963, 252.904 21.571, 252.669 21.335 C 252.433 21.100, 251.939 22.106, 251.571 23.571 M 174 29 C 173.099 29.582, 172.975 29.975, 173.691 29.985 C 174.346 29.993, 175.160 29.550, 175.500 29 C 176.267 27.758, 175.921 27.758, 174 29 M 170 31 C 169.099 31.582, 168.975 31.975, 169.691 31.985 C 170.346 31.993, 171.160 31.550, 171.500 31 C 172.267 29.758, 171.921 29.758, 170 31 M 215.813 31.683 C 216.534 31.972, 217.397 31.936, 217.729 31.604 C 218.061 31.272, 217.471 31.036, 216.417 31.079 C 215.252 31.127, 215.015 31.364, 215.813 31.683 M 250.158 33 C 250.158 34.375, 250.385 34.938, 250.662 34.250 C 250.940 33.563, 250.940 32.438, 250.662 31.750 C 250.385 31.063, 250.158 31.625, 250.158 33 M 221.813 32.683 C 222.534 32.972, 223.397 32.936, 223.729 32.604 C 224.061 32.272, 223.471 32.036, 222.417 32.079 C 221.252 32.127, 221.015 32.364, 221.813 32.683 M 267.624 33.539 C 266.659 36.053, 266.943 36.702, 268.122 34.675 C 268.706 33.671, 268.973 32.639, 268.715 32.382 C 268.458 32.124, 267.966 32.645, 267.624 33.539 M 162.872 36.750 C 161.629 38.336, 161.664 38.371, 163.250 37.128 C 164.916 35.821, 165.445 35, 164.622 35 C 164.415 35, 163.627 35.788, 162.872 36.750 M 194.667 37.667 C 194.300 38.033, 194 39.458, 194 40.833 C 194 43.947, 195.169 42.964, 195.546 39.533 C 195.841 36.845, 195.728 36.605, 194.667 37.667 M 284 41 C 282.825 42.650, 282.089 44, 282.364 44 C 282.639 44, 283.825 42.650, 285 41 C 286.175 39.350, 286.911 38, 286.636 38 C 286.361 38, 285.175 39.350, 284 41 M 215.500 40.765 C 214.950 41.169, 213.839 42.400, 213.030 43.500 C 211.945 44.977, 212.272 44.866, 214.280 43.076 C 216.728 40.894, 217.473 39.971, 216.750 40.015 C 216.613 40.024, 216.050 40.361, 215.500 40.765 M 159.079 41.668 C 159.036 42.311, 158.741 43.661, 158.424 44.668 C 157.877 46.409, 157.906 46.412, 158.995 44.712 C 159.626 43.729, 159.920 42.379, 159.650 41.712 C 159.295 40.837, 159.136 40.825, 159.079 41.668 M 166.667 41.667 C 165.355 42.979, 166.028 47.916, 167.642 48.820 C 171.587 51.028, 175.869 45.957, 172.989 42.487 C 171.728 40.967, 167.867 40.466, 166.667 41.667 M 218.302 43.012 C 216.331 43.806, 212.994 48.648, 213.004 50.700 C 213.010 52.103, 217.086 58.247, 217.642 57.691 C 217.936 57.398, 217.215 55.857, 216.041 54.269 C 213.544 50.892, 214.336 47.279, 218.159 44.601 C 223.991 40.516, 231 44.112, 231 51.189 C 231 56.726, 228.032 59.402, 222.686 58.685 C 220.016 58.327, 219.105 58.454, 220.052 59.053 C 222.633 60.686, 226.823 60.056, 229.672 57.606 C 231.896 55.693, 232.455 54.367, 232.455 51 C 232.455 43.897, 225.646 40.054, 218.302 43.012 M 232.100 44.705 C 232.829 45.917, 233.640 46.694, 233.903 46.431 C 234.166 46.168, 233.570 45.176, 232.579 44.226 C 230.857 42.577, 230.835 42.598, 232.100 44.705 M 251.750 43.662 C 252.438 43.940, 253.563 43.940, 254.250 43.662 C 254.938 43.385, 254.375 43.158, 253 43.158 C 251.625 43.158, 251.063 43.385, 251.750 43.662 M 179.046 45.445 C 176.201 48.872, 180.124 54.666, 183.750 52.393 C 187.318 50.156, 186.035 44, 182 44 C 181.035 44, 179.705 44.650, 179.046 45.445 M 196.079 45.583 C 196.127 46.748, 196.364 46.985, 196.683 46.188 C 196.972 45.466, 196.936 44.603, 196.604 44.271 C 196.272 43.939, 196.036 44.529, 196.079 45.583 M 260.813 44.683 C 261.534 44.972, 262.397 44.936, 262.729 44.604 C 263.061 44.272, 262.471 44.036, 261.417 44.079 C 260.252 44.127, 260.015 44.364, 260.813 44.683 M 192.571 47.571 C 192.204 49.037, 192.096 50.429, 192.331 50.665 C 192.567 50.900, 193.061 49.894, 193.429 48.429 C 193.796 46.963, 193.904 45.571, 193.669 45.335 C 193.433 45.100, 192.939 46.106, 192.571 47.571 M 217.278 46.250 C 215.350 48.741, 215.112 50.970, 216.614 52.471 C 218.880 54.737, 221.738 54.330, 223.609 51.474 C 225.158 49.109, 225.150 48.823, 223.477 46.974 C 221.444 44.728, 218.703 44.408, 217.278 46.250 M 210.707 48.013 C 210.417 49.121, 210.531 51.258, 210.959 52.763 C 211.602 55.021, 211.734 54.668, 211.711 50.750 C 211.680 45.516, 211.493 45.006, 210.707 48.013 M 303.079 46.668 C 303.036 47.311, 302.741 48.661, 302.424 49.668 C 301.877 51.409, 301.906 51.412, 302.995 49.712 C 303.626 48.729, 303.920 47.379, 303.650 46.712 C 303.295 45.837, 303.136 45.825, 303.079 46.668 M 260 48 C 260 48.550, 260.477 49, 261.059 49 C 261.641 49, 261.840 48.550, 261.500 48 C 261.160 47.450, 260.684 47, 260.441 47 C 260.198 47, 260 47.450, 260 48 M 157.079 49.583 C 157.127 50.748, 157.364 50.985, 157.683 50.188 C 157.972 49.466, 157.936 48.603, 157.604 48.271 C 157.272 47.939, 157.036 48.529, 157.079 49.583 M 277.624 51.539 C 276.659 54.053, 276.943 54.702, 278.122 52.675 C 278.706 51.671, 278.973 50.639, 278.715 50.382 C 278.458 50.124, 277.966 50.645, 277.624 51.539 M 250.587 51.943 C 252.285 52.349, 254.310 53.011, 255.087 53.415 C 255.864 53.818, 255.626 53.440, 254.559 52.574 C 253.491 51.708, 251.466 51.046, 250.059 51.102 C 247.706 51.196, 247.749 51.264, 250.587 51.943 M 157.079 55.583 C 157.127 56.748, 157.364 56.985, 157.683 56.188 C 157.972 55.466, 157.936 54.603, 157.604 54.271 C 157.272 53.939, 157.036 54.529, 157.079 55.583 M 187.250 57.951 C 183.440 62.540, 182.872 64.509, 186.482 60.614 C 188.739 58.179, 191.482 53.974, 190.785 54.018 C 190.628 54.028, 189.037 55.798, 187.250 57.951 M 248 55 C 247.099 55.582, 246.975 55.975, 247.691 55.985 C 248.346 55.993, 249.160 55.550, 249.500 55 C 250.267 53.758, 249.921 53.758, 248 55 M 252 55 C 252 55.550, 252.477 56, 253.059 56 C 253.641 56, 253.840 55.550, 253.500 55 C 253.160 54.450, 252.684 54, 252.441 54 C 252.198 54, 252 54.450, 252 55 M 257.906 55.824 C 258.513 56.959, 259.503 58.193, 260.105 58.565 C 260.889 59.050, 260.886 58.656, 260.094 57.176 C 259.487 56.041, 258.497 54.807, 257.895 54.435 C 257.111 53.950, 257.114 54.344, 257.906 55.824 M 192.149 56.667 C 191.406 57.472, 191.005 58.338, 191.257 58.590 C 191.509 58.842, 192.293 58.352, 193 57.500 C 194.669 55.489, 193.916 54.751, 192.149 56.667 M 231.224 58.792 L 228.947 62.500 231.474 59.694 C 232.863 58.151, 234 56.464, 234 55.944 C 234 54.474, 233.663 54.820, 231.224 58.792 M 212 56.378 C 212 56.585, 212.787 57.373, 213.750 58.128 C 215.336 59.371, 215.371 59.336, 214.128 57.750 C 212.821 56.084, 212 55.555, 212 56.378 M 244.667 56.667 C 244.300 57.033, 244 57.798, 244 58.367 C 244 58.993, 244.466 58.934, 245.183 58.217 C 245.834 57.566, 246.134 56.801, 245.850 56.517 C 245.566 56.233, 245.033 56.300, 244.667 56.667 M 257.174 58.868 C 258.453 60.446, 259.657 61.602, 259.848 61.437 C 260.390 60.970, 256.603 56.067, 255.674 56.031 C 255.220 56.014, 255.895 57.291, 257.174 58.868 M 273 56.941 C 273 57.459, 273.445 58.157, 273.989 58.493 C 274.555 58.843, 274.723 58.442, 274.382 57.552 C 273.717 55.820, 273 55.503, 273 56.941 M 283.500 60 C 285.648 62.200, 287.631 64, 287.906 64 C 288.181 64, 286.648 62.200, 284.500 60 C 282.352 57.800, 280.369 56, 280.094 56 C 279.819 56, 281.352 57.800, 283.500 60 M 294.884 58.875 C 293.445 60.319, 291.910 62.175, 291.474 63 C 291.037 63.825, 292.401 62.813, 294.506 60.750 C 296.611 58.688, 298.146 56.831, 297.917 56.625 C 297.688 56.419, 296.323 57.432, 294.884 58.875 M 158.004 58.615 C 157.998 60.294, 161.977 65.011, 163.323 64.921 C 164.071 64.871, 164.015 64.648, 163.168 64.310 C 162.435 64.018, 160.975 62.366, 159.922 60.639 C 158.869 58.913, 158.006 58.002, 158.004 58.615 M 188.872 61.750 C 187.629 63.336, 187.664 63.371, 189.250 62.128 C 190.916 60.821, 191.445 60, 190.622 60 C 190.415 60, 189.627 60.788, 188.872 61.750 M 216.733 61.124 C 217.412 61.808, 218.219 62.115, 218.526 61.807 C 218.834 61.499, 218.279 60.940, 217.293 60.564 C 215.868 60.022, 215.753 60.136, 216.733 61.124 M 241.566 61.689 C 240.379 64.783, 241.086 68.785, 243.250 71.222 C 245.705 73.986, 249.115 76.022, 251.184 75.961 C 251.908 75.939, 251.112 75.317, 249.415 74.579 C 245.368 72.816, 242 68.432, 242 64.924 C 242 61.244, 243.772 60.195, 244.182 63.632 C 244.878 69.464, 251.500 69.246, 251.500 63.391 C 251.500 60.635, 251.282 60.493, 246.816 60.358 C 243.512 60.257, 241.965 60.650, 241.566 61.689 M 281.722 62.074 C 282.944 63.347, 284.196 64.137, 284.503 63.830 C 284.811 63.522, 283.811 62.481, 282.281 61.515 L 279.500 59.759 281.722 62.074 M 260 65.854 C 260 67.529, 258.944 69.847, 257.445 71.465 C 256.039 72.982, 255.083 74.416, 255.320 74.654 C 256.374 75.708, 261 68.598, 261 65.923 C 261 64.315, 260.775 63, 260.500 63 C 260.225 63, 260 64.284, 260 65.854 M 285.116 66.633 C 285.033 68.153, 285.711 68.903, 287.470 69.239 C 288.828 69.499, 289.702 69.326, 289.411 68.856 C 289.120 68.385, 288.267 68, 287.514 68 C 286.762 68, 285.941 67.213, 285.689 66.250 C 285.327 64.864, 285.208 64.943, 285.116 66.633 M 183.500 67 C 183.160 67.550, 183.332 68, 183.882 68 C 184.432 68, 185.160 67.550, 185.500 67 C 185.840 66.450, 185.668 66, 185.118 66 C 184.568 66, 183.840 66.450, 183.500 67 M 179 69 C 178.175 69.533, 177.950 69.969, 178.500 69.969 C 179.050 69.969, 180.175 69.533, 181 69 C 181.825 68.467, 182.050 68.031, 181.500 68.031 C 180.950 68.031, 179.825 68.467, 179 69 M 173 70.969 C 173 71.501, 173.675 71.678, 174.500 71.362 C 175.325 71.045, 176 70.609, 176 70.393 C 176 70.177, 175.325 70, 174.500 70 C 173.675 70, 173 70.436, 173 70.969 M 240 70.941 C 240 71.459, 240.445 72.157, 240.989 72.493 C 241.555 72.843, 241.723 72.442, 241.382 71.552 C 240.717 69.820, 240 69.503, 240 70.941 M 258.750 74.083 C 257.788 75.138, 257.380 76, 257.845 76 C 258.310 76, 259.505 75.100, 260.500 74 C 261.495 72.900, 261.903 72.037, 261.405 72.083 C 260.907 72.129, 259.712 73.029, 258.750 74.083 M 242 74.393 C 242 74.609, 242.698 75.054, 243.552 75.382 C 244.442 75.723, 244.843 75.555, 244.493 74.989 C 243.906 74.038, 242 73.583, 242 74.393 M 174.566 77.604 C 176.252 79.197, 178.502 81.167, 179.566 81.983 C 181.383 83.375, 181.379 83.323, 179.500 81.125 C 178.400 79.837, 176.150 77.867, 174.500 76.746 L 171.500 74.707 174.566 77.604 M 295.564 78.293 C 295.940 79.279, 296.499 79.834, 296.807 79.526 C 297.115 79.219, 296.808 78.412, 296.124 77.733 C 295.136 76.753, 295.022 76.868, 295.564 78.293 M 182 83.277 C 182 83.468, 183.463 84.695, 185.250 86.003 C 187.261 87.475, 187.960 87.717, 187.082 86.637 C 185.751 84.997, 182 82.517, 182 83.277 M 189 88.393 C 189 88.609, 189.698 89.054, 190.552 89.382 C 191.442 89.723, 191.843 89.555, 191.493 88.989 C 190.906 88.038, 189 87.583, 189 88.393 M 196.564 90.293 C 196.940 91.279, 197.499 91.834, 197.807 91.526 C 198.115 91.219, 197.808 90.412, 197.124 89.733 C 196.136 88.753, 196.022 88.868, 196.564 90.293 M 192 99 C 192 99.550, 192.477 100, 193.059 100 C 193.641 100, 193.840 99.550, 193.500 99 C 193.160 98.450, 192.684 98, 192.441 98 C 192.198 98, 192 98.450, 192 99 M 303.365 109.500 C 303.368 115, 303.536 117.122, 303.738 114.216 C 303.941 111.311, 303.939 106.811, 303.734 104.216 C 303.528 101.622, 303.363 104, 303.365 109.500 M 201.597 111.471 C 200.730 114.923, 202.375 121.452, 205.155 125.589 C 209.629 132.250, 221.208 138, 230.144 138 C 239.228 138, 251.595 130.057, 250.807 124.729 C 250.334 121.535, 248.390 121.580, 245.473 124.853 C 236.031 135.451, 215.579 133.670, 208.527 121.636 C 207.107 119.213, 206 115.767, 206 113.769 C 206 111.450, 205.450 110.003, 204.418 109.607 C 202.221 108.764, 202.287 108.720, 201.597 111.471 M 302.079 121.583 C 302.127 122.748, 302.364 122.985, 302.683 122.188 C 302.972 121.466, 302.936 120.603, 302.604 120.271 C 302.272 119.939, 302.036 120.529, 302.079 121.583 M 190.031 134.500 C 190.031 135.050, 190.467 136.175, 191 137 C 191.533 137.825, 191.969 138.050, 191.969 137.500 C 191.969 136.950, 191.533 135.825, 191 135 C 190.467 134.175, 190.031 133.950, 190.031 134.500 M 196.500 145 C 197.495 146.100, 198.535 147, 198.810 147 C 199.085 147, 198.495 146.100, 197.500 145 C 196.505 143.900, 195.465 143, 195.190 143 C 194.915 143, 195.505 143.900, 196.500 145 M 291.703 145.598 C 290.715 146.919, 290.269 148, 290.713 148 C 291.585 148, 294.345 144.002, 293.819 143.501 C 293.644 143.333, 292.691 144.277, 291.703 145.598 M 199 148.393 C 199 148.609, 199.698 149.054, 200.552 149.382 C 201.442 149.723, 201.843 149.555, 201.493 148.989 C 200.906 148.038, 199 147.583, 199 148.393 M 194.726 155.913 C 189.404 162.239, 180 180.414, 180 184.376 C 180 185.016, 181.678 185.500, 183.897 185.500 C 187.734 185.500, 187.785 185.451, 187.266 182.250 C 186.814 179.467, 187.033 179, 188.792 179 C 189.922 179, 192.194 180.134, 193.841 181.520 L 196.835 184.039 205.461 182.535 C 210.206 181.707, 216.430 180.379, 219.294 179.583 C 228.949 176.898, 232.915 176.615, 233.660 178.557 C 234.084 179.660, 233.664 180.773, 232.503 181.621 C 229.750 183.634, 216.030 187.844, 207.558 189.275 C 200.223 190.514, 199.971 190.653, 197.191 195.022 C 193.708 200.495, 191.649 202.272, 189.310 201.821 C 186.483 201.277, 186.574 198.054, 189.502 194.998 C 192.067 192.321, 192.098 192.166, 190.198 191.563 C 189.103 191.215, 187.823 191, 187.354 191.084 C 183.865 191.709, 180.759 190.796, 180.292 189.008 C 179.761 186.980, 177.696 186.179, 167.250 183.953 C 164.363 183.338, 162 182.694, 162 182.523 C 162 182.352, 163.350 180.766, 165 179 C 168.881 174.846, 168.788 171.978, 164.632 167.571 C 161.696 164.458, 160.659 164, 156.554 164 C 152.395 164, 151.385 164.463, 147.934 167.949 C 145.784 170.120, 144.469 172.172, 145.012 172.508 C 145.556 172.843, 146 174.216, 146 175.559 C 146 176.902, 146.525 178, 147.167 178 C 147.808 178, 148.093 178.241, 147.799 178.535 C 147.505 178.829, 145.420 178.655, 143.167 178.149 C 140.130 177.467, 138.608 177.572, 137.285 178.556 C 133.848 181.111, 136.922 183.218, 147.954 185.871 L 158.257 188.347 157.530 194.924 C 157.131 198.541, 156.666 202.770, 156.497 204.322 C 155.978 209.084, 155 208.609, 155 203.595 C 155 198.255, 153.406 196, 149.630 196 C 148.249 196, 146.859 195.580, 146.542 195.067 C 145.805 193.875, 125.705 193.873, 120.469 195.064 C 118.286 195.561, 115.297 196.200, 113.827 196.483 C 112.357 196.767, 109.709 198.215, 107.944 199.701 L 104.733 202.402 105.398 211.860 C 105.764 217.062, 106.536 223.384, 107.114 225.909 C 107.692 228.434, 108.333 231.850, 108.537 233.500 C 109.665 242.614, 110.262 245.119, 111.631 246.488 C 114.398 249.255, 143.138 248.016, 149.195 244.869 C 150.259 244.317, 151.046 242.405, 151.306 239.744 C 151.612 236.612, 151.671 236.871, 151.529 240.735 C 151.401 244.241, 150.719 246.653, 149.463 248.040 C 147.918 249.748, 147.801 250.451, 148.794 252.042 C 151.325 256.094, 150.370 257.710, 145.148 258.212 C 134.739 259.212, 123.973 267.416, 118.516 278.505 C 115.888 283.847, 115.562 285.537, 115.533 294.015 C 115.503 302.729, 115.769 304.076, 118.693 310.015 C 126.193 325.248, 140.230 332.677, 156.676 330.117 C 168.748 328.238, 177.336 322.157, 182.790 311.627 C 186.355 304.743, 186.482 304.141, 186.491 294 C 186.498 285.791, 186.090 282.627, 184.619 279.500 C 180.249 270.208, 170.715 261.881, 161.353 259.179 C 159.073 258.520, 156.930 257.260, 156.591 256.377 C 156.067 255.011, 156.535 254.876, 159.738 255.470 C 167.803 256.963, 175.902 260.405, 185.289 266.326 C 190.673 269.721, 198.419 274.606, 202.503 277.180 C 210.633 282.303, 225.064 288.369, 231.750 289.474 C 238.076 290.519, 236.888 291.692, 230.007 291.194 C 222.936 290.683, 218.671 292.691, 219.189 296.288 C 219.642 299.434, 223.582 300.969, 231.250 300.985 C 236.577 300.997, 238 301.316, 238 302.500 C 238 303.611, 239.296 304.043, 243 304.167 C 245.750 304.258, 248.787 304.371, 249.750 304.417 C 250.861 304.470, 251.500 303.770, 251.500 302.500 C 251.500 301.346, 252.346 300.272, 253.500 299.961 C 254.850 299.597, 255.599 298.420, 255.804 296.340 C 256.104 293.293, 256.161 293.264, 260.804 293.773 C 263.387 294.057, 265.787 294.732, 266.138 295.273 C 266.489 295.814, 267.076 298.513, 267.442 301.272 C 270.485 324.216, 296.960 337.427, 318.754 326.877 C 324.909 323.898, 328.762 320.411, 332.695 314.262 C 348.445 289.641, 331.886 258.117, 303.154 258.024 C 292.153 257.988, 286.028 260.153, 279.172 266.502 C 273.724 271.545, 268 280.735, 268 284.437 C 268 285.297, 267.550 286, 267 286 C 266.385 286, 266 281, 266 273 L 266 260 270.378 260 C 275.779 260, 277.466 258.261, 276.692 253.492 L 276.126 250 295.440 250 C 310.415 250, 315.006 249.697, 315.873 248.653 C 316.701 247.655, 316.605 244.376, 315.502 236.015 C 310.868 200.879, 303.730 176.458, 293.341 160.193 L 289.952 154.886 285.879 158.372 C 281.157 162.414, 274.008 165.974, 265.500 168.520 C 259.473 170.324, 240.534 171.119, 235 169.800 C 219.632 166.137, 211.344 162.645, 203.124 156.368 C 200.697 154.516, 198.367 153, 197.945 153 C 197.523 153, 196.075 154.311, 194.726 155.913 M 281.981 155.523 C 280.924 156.796, 280.986 156.943, 282.359 156.416 C 283.261 156.069, 284 155.384, 284 154.893 C 284 153.607, 283.421 153.788, 281.981 155.523 M 209 156 C 209.825 156.533, 210.950 156.969, 211.500 156.969 C 212.050 156.969, 211.825 156.533, 211 156 C 210.175 155.467, 209.050 155.031, 208.500 155.031 C 207.950 155.031, 208.175 155.467, 209 156 M 278 158 C 277.099 158.582, 276.975 158.975, 277.691 158.985 C 278.346 158.993, 279.160 158.550, 279.500 158 C 280.267 156.758, 279.921 156.758, 278 158 M 222.813 162.683 C 223.534 162.972, 224.397 162.936, 224.729 162.604 C 225.061 162.272, 224.471 162.036, 223.417 162.079 C 222.252 162.127, 222.015 162.364, 222.813 162.683 M 261.813 164.683 C 262.534 164.972, 263.397 164.936, 263.729 164.604 C 264.061 164.272, 263.471 164.036, 262.417 164.079 C 261.252 164.127, 261.015 164.364, 261.813 164.683 M 238.813 166.683 C 239.534 166.972, 240.397 166.936, 240.729 166.604 C 241.061 166.272, 240.471 166.036, 239.417 166.079 C 238.252 166.127, 238.015 166.364, 238.813 166.683 M 151.519 168.979 C 149.466 171.248, 149.488 171.262, 157.799 172.934 C 164.349 174.252, 164 174.266, 164 172.674 C 164 170.333, 159.501 167, 156.341 167 C 154.591 167, 152.553 167.836, 151.519 168.979 M 150 174.845 C 150 176.120, 153.205 178.673, 155.799 179.465 C 157.302 179.923, 159.028 179.557, 160.785 178.405 L 163.472 176.645 157.986 175.365 C 151.389 173.826, 150 173.735, 150 174.845 M 163.064 202.642 C 162.119 211.973, 162.071 215.524, 162.885 215.795 C 164.502 216.334, 164.255 219, 162.588 219 C 161.697 219, 160.932 220.569, 160.515 223.250 C 160.151 225.588, 159.649 228.232, 159.399 229.126 C 159.112 230.152, 159.693 230.948, 160.972 231.282 C 163.247 231.877, 163.755 234, 161.622 234 C 159.346 234, 158.243 236.217, 157.779 241.728 L 157.339 246.957 162.573 248.478 C 169.393 250.461, 170.632 250.467, 169.006 248.508 C 168.147 247.473, 167.975 245.250, 168.443 241.258 C 169.564 231.703, 173.903 205.902, 175.465 199.500 C 176.270 196.200, 176.945 193.224, 176.964 192.886 C 176.984 192.548, 175.088 191.992, 172.750 191.649 C 170.412 191.307, 167.568 190.765, 166.429 190.444 C 164.458 189.888, 164.297 190.472, 163.064 202.642 M 121.500 197.111 C 107.091 199.194, 104.130 204.061, 113.816 209.739 C 117.958 212.167, 119.716 212.526, 129.013 212.845 C 140.926 213.253, 146.520 212.116, 150.955 208.385 C 154.415 205.473, 154.887 202.113, 152.180 199.663 C 148.512 196.343, 134.739 195.198, 121.500 197.111 M 108.434 218.742 C 108.824 223.550, 109.600 229.738, 110.158 232.492 C 110.716 235.246, 111.300 238.175, 111.456 239 C 112.394 243.967, 113.267 244.917, 117.471 245.548 C 122.496 246.301, 137.034 245.400, 144.018 243.903 C 149.537 242.719, 148.898 244.159, 151.077 228 C 151.708 223.325, 152.349 218.325, 152.503 216.888 C 152.656 215.452, 153.258 213.387, 153.839 212.300 C 154.846 210.419, 154.683 210.433, 150.447 212.577 C 141.782 216.964, 121.737 216.636, 112.719 211.960 C 110.640 210.882, 108.665 210, 108.332 210 C 107.998 210, 108.044 213.934, 108.434 218.742 M 152.079 229.583 C 152.127 230.748, 152.364 230.985, 152.683 230.188 C 152.972 229.466, 152.936 228.603, 152.604 228.271 C 152.272 227.939, 152.036 228.529, 152.079 229.583 M 173 251.243 C 181.274 254.847, 188.457 258.913, 195.498 263.975 C 199.899 267.140, 204.850 270.479, 206.500 271.397 C 208.150 272.314, 211.321 274.089, 213.546 275.341 C 217.567 277.604, 228.593 281.347, 234.686 282.518 C 239.119 283.370, 243.213 280.638, 242.802 277.101 C 242.588 275.258, 241.826 274.404, 240.189 274.172 C 238.918 273.992, 237.632 273.205, 237.332 272.422 C 236.948 271.421, 235.087 271, 231.048 271 C 226.576 271, 224.910 270.558, 223.496 268.996 C 222.013 267.357, 221.885 266.547, 222.795 264.550 C 224.368 261.099, 228.651 260.573, 244.253 261.916 C 255.912 262.919, 257.730 263.322, 259.416 265.278 C 260.939 267.044, 261.195 267.124, 260.666 265.668 C 260.300 264.661, 260 263.023, 260 262.030 C 260 260.730, 258.947 260.030, 256.250 259.538 C 253.904 259.110, 251.002 257.429, 248.500 255.050 L 244.500 251.245 207.500 250.700 C 180.368 250.299, 171.167 250.444, 173 251.243 M 234.474 254.042 C 233.570 255.505, 235.869 258, 238.122 258 C 240.647 258, 240.440 256.865, 237.529 254.749 C 235.972 253.617, 234.891 253.367, 234.474 254.042 M 146 263.939 C 144.075 264.330, 140.599 265.631, 138.277 266.831 C 131.621 270.270, 122.845 279.897, 126.215 280.063 C 126.922 280.098, 126.525 280.520, 125.334 281 C 120.676 282.878, 119.860 299.079, 124.031 306.895 C 127.308 313.035, 129.787 315.422, 131.454 314.038 C 132.658 313.039, 132.821 313.255, 132.442 315.345 C 132.041 317.560, 132.653 318.165, 137.744 320.585 C 144.688 323.885, 151.434 324.698, 157.584 322.976 C 161.022 322.014, 162.027 321.301, 161.642 320.098 C 161.361 319.219, 160.845 317.375, 160.497 316 C 159.905 313.667, 159.946 313.633, 161.116 315.500 C 163.779 319.747, 164.725 320.195, 167.720 318.631 C 174.392 315.146, 179.984 306.272, 180.736 297.975 C 181.223 292.600, 181.088 291.997, 179.389 291.970 C 177.586 291.941, 177.582 291.891, 179.311 290.886 C 181.337 289.707, 180.953 285.836, 178.295 280.636 C 176.106 276.354, 168.987 269, 167.032 269 C 166.005 269, 164.227 271.004, 162.597 274 C 161.100 276.750, 159.689 279, 159.462 279 C 158.707 279, 161.022 273.778, 163.025 270.965 C 164.111 269.439, 165 267.972, 165 267.704 C 165 266.914, 156.800 263.867, 156.224 264.443 C 155.934 264.733, 155.481 269.450, 155.218 274.925 C 154.822 283.141, 155.017 285.159, 156.330 286.473 C 158.497 288.640, 159.357 293.932, 158.084 297.278 C 155.210 304.838, 143 301.057, 143 292.608 C 143 291.089, 144.113 289.255, 145.905 287.822 C 148.754 285.545, 148.816 285.284, 149.171 274.250 C 149.369 268.063, 149.525 263.052, 149.516 263.115 C 149.507 263.178, 147.925 263.549, 146 263.939 M 296.995 263.997 C 288.783 266.036, 276.074 276.143, 277.394 279.585 C 277.702 280.387, 277.335 281, 276.548 281 C 275.331 281, 273.245 286.629, 274.155 287.457 C 274.345 287.630, 279.530 288.021, 285.678 288.326 C 294.684 288.772, 297.087 288.600, 298.050 287.440 C 298.750 286.596, 301.022 286, 303.539 286 C 305.901 286, 308.022 285.663, 308.253 285.250 C 308.483 284.837, 308.539 285.051, 308.377 285.725 C 308.214 286.400, 308.751 288.554, 309.570 290.513 C 310.902 293.701, 310.890 294.429, 309.458 297.447 C 307.621 301.318, 304.334 302.565, 300.532 300.833 C 298.203 299.771, 297.585 299.991, 294.225 303.078 L 290.500 306.500 293.955 302.741 C 298.841 297.425, 297.385 296.411, 283.611 295.538 L 272.723 294.848 273.243 299.466 C 273.787 304.294, 278.204 312.504, 281.278 314.402 C 282.649 315.248, 283.276 315.156, 284.013 314 C 284.585 313.102, 284.976 312.978, 284.985 313.691 C 284.993 314.346, 284.543 315.165, 283.984 315.510 C 282.264 316.573, 283.983 318.077, 290.370 321.099 C 297.149 324.306, 303.897 324.807, 310 322.558 C 312.809 321.523, 313.445 320.801, 313.221 318.903 C 312.949 316.601, 312.980 316.591, 314.400 318.519 C 315.846 320.483, 315.890 320.483, 319.480 318.565 C 323.139 316.610, 329.138 309.397, 330.851 304.892 C 331.363 303.544, 331.944 300.205, 332.141 297.471 C 332.489 292.652, 332.418 292.501, 329.825 292.534 C 328.353 292.552, 327.367 292.215, 327.634 291.784 C 327.900 291.353, 328.991 291, 330.059 291 C 335.705 291, 328.266 274.681, 320.216 269.406 C 318.173 268.067, 317.601 268.022, 316.890 269.145 C 316.226 270.191, 316.027 270.090, 316.015 268.699 C 315.986 265.231, 303.979 262.262, 296.995 263.997 M 258.570 268.887 C 258.269 269.374, 256.442 270.070, 254.511 270.432 C 252.518 270.806, 251 271.685, 251 272.466 C 251 273.222, 249.650 274.138, 248 274.500 C 246.350 274.862, 245 275.378, 245 275.645 C 245 277.138, 247.268 280, 248.452 280 C 249.212 280, 250.658 281.119, 251.667 282.486 C 252.675 283.853, 254.963 285.260, 256.750 285.611 L 260 286.250 260 277.125 C 260 268.348, 259.759 266.962, 258.570 268.887 M 240.683 284.127 C 239.229 286.308, 239.133 287.197, 240.117 289.358 C 241.808 293.070, 244.662 293.666, 247.585 290.920 C 250.194 288.469, 250.721 285.121, 248.800 283.200 C 246.946 281.346, 246.161 281.754, 245.816 284.750 C 245.395 288.410, 243.656 288.257, 242.978 284.500 L 242.436 281.500 240.683 284.127 M 282.083 283.365 C 282.313 283.565, 283.625 284.265, 285 284.920 C 287.357 286.042, 287.389 286.022, 285.559 284.555 C 283.966 283.279, 280.711 282.164, 282.083 283.365 M 135 285.430 C 135 285.705, 135.900 286.411, 137 287 C 138.100 287.589, 139 287.845, 139 287.570 C 139 287.295, 138.100 286.589, 137 286 C 135.900 285.411, 135 285.155, 135 285.430 M 303.733 289.124 C 304.412 289.808, 305.219 290.115, 305.526 289.807 C 305.834 289.499, 305.279 288.940, 304.293 288.564 C 302.868 288.022, 302.753 288.136, 303.733 289.124 M 146.703 291.729 C 145.737 293.222, 147.596 297.006, 149.285 296.985 C 150.179 296.973, 150.196 296.775, 149.351 296.235 C 148.719 295.831, 148.043 294.375, 147.850 293 C 147.615 291.332, 147.233 290.909, 146.703 291.729 M 306.136 293.250 C 306.018 295.643, 305.578 296.009, 302.750 296.068 C 299.649 296.132, 299.605 296.186, 301.793 297.239 C 304.748 298.663, 307.377 296.337, 306.723 292.878 C 306.306 290.680, 306.262 290.708, 306.136 293.250 M 153.286 295.699 C 151.719 297.327, 151.489 298, 152.501 298 C 153.287 298, 154.432 297.061, 155.046 295.914 C 156.582 293.044, 155.919 292.963, 153.286 295.699 M 166.545 294.073 C 166.961 294.745, 172 294.093, 172 293.368 C 172 293.148, 170.681 293.069, 169.069 293.192 C 167.457 293.314, 166.321 293.711, 166.545 294.073 M 317 294 C 317 295.174, 317.769 295.174, 320.500 294 C 322.272 293.238, 322.187 293.133, 319.750 293.070 C 318.238 293.032, 317 293.450, 317 294 M 288.667 307.667 C 288.300 308.033, 288 308.798, 288 309.367 C 288 309.993, 288.466 309.934, 289.183 309.217 C 289.834 308.566, 290.134 307.801, 289.850 307.517 C 289.566 307.233, 289.033 307.300, 288.667 307.667 M 134.872 310.750 C 133.629 312.336, 133.664 312.371, 135.250 311.128 C 136.916 309.821, 137.445 309, 136.622 309 C 136.415 309, 135.627 309.788, 134.872 310.750" stroke="none" fill="black" fill-rule="evenodd"/>
</svg>