<svg xmlns="http://www.w3.org/2000/svg" width="249" height="256" viewBox="0 0 249 256" version="1.1">
	<path d="M 0 2 C 0 3.878, 0.667 4, 10.891 4 C 19.298 4, 23.993 4.575, 31.481 6.520 C 41.017 8.998, 61.037 17.633, 62.415 19.863 C 63.542 21.686, 61.311 21.191, 55.788 18.393 C 40.106 10.446, 18.303 6.329, 5.750 8.944 C -1.051 10.361, -2.191 13.008, 3.250 14.753 L 6.500 15.796 3.250 15.898 L 0 16 0 43.784 L 0 71.569 3.229 73.476 L 6.458 75.384 3.229 76.220 L 0 77.057 0 93.888 L 0 110.720 10.750 112.874 C 16.663 114.060, 24.200 115.844, 27.500 116.839 L 33.500 118.649 29.500 119.965 C 24.544 121.595, 2.356 132.615, 1.615 133.815 C 1.315 134.300, 10.554 134.999, 22.286 135.377 C 55.417 136.447, 56.410 136.594, 61.782 141.244 C 64.282 143.408, 69.629 146.812, 73.664 148.809 L 81 152.439 81 157.388 C 81 162.295, 77.808 169.550, 72.859 175.889 C 70.002 179.547, 61.763 182.998, 57.525 182.310 C 54.629 181.840, 52.065 182.676, 43.248 186.965 C 27.329 194.706, 22.674 197.142, 20.921 198.646 C 20.053 199.390, 18.726 200, 17.973 200 C 15.130 200, 0 205.107, 0 206.067 C 0 206.733, 0.622 206.738, 1.850 206.080 C 2.868 205.536, 6.920 204.198, 10.855 203.107 L 18.010 201.125 15.146 205.312 C 11.938 210.002, 8.712 216, 9.398 216 C 9.644 216, 11.924 212.875, 14.463 209.055 C 19.697 201.183, 23.143 197.975, 30.212 194.392 L 35.140 191.895 29.696 198.313 C 19.037 210.877, 8.986 233.923, 9.014 245.733 C 9.040 256.820, 7.424 256.010, 29.367 255.935 L 48.500 255.870 58.500 244.358 C 71.288 229.636, 92.116 211.774, 107.500 202.335 C 113.086 198.907, 144.223 182.483, 150.369 179.721 C 156.861 176.805, 156.936 178.407, 150.500 182.487 C 132.614 193.826, 128.037 197.086, 125.712 200.139 C 123.070 203.609, 114.046 219.909, 114.017 221.265 C 114.008 221.685, 117.488 219.523, 121.750 216.460 C 132.730 208.570, 155.814 194.139, 167 188.172 C 172.225 185.385, 180.960 181.672, 186.410 179.920 C 195.721 176.929, 196.906 176.777, 205.998 177.403 C 225.612 178.754, 228.629 179.942, 233.430 188.205 C 235.196 191.246, 234.937 191.123, 230.078 186.622 C 224.919 181.843, 224.710 181.756, 219.834 182.333 C 208.618 183.662, 185.054 192.803, 182.500 196.817 C 178.123 203.695, 171.722 216.174, 168.534 224.043 C 164.152 234.861, 158 252.762, 158 254.696 C 158 255.689, 160.635 256, 169.053 256 L 180.106 256 185.725 249.930 L 191.345 243.860 196.423 244.426 C 199.933 244.818, 200.883 244.707, 199.500 244.067 C 198.400 243.557, 196.375 243.090, 195 243.029 C 192.587 242.921, 192.639 242.792, 196.500 239.326 C 204.860 231.820, 225.570 220.237, 228.571 221.389 C 231.119 222.366, 231.663 232.151, 229.523 238.500 C 228.972 240.134, 229.038 240.210, 229.883 238.913 C 231.862 235.876, 232.846 229.028, 231.832 225.355 C 231.294 223.407, 231 221.687, 231.177 221.534 C 231.518 221.240, 243.923 224.127, 247.743 225.389 C 249.986 226.130, 249.986 226.126, 249.743 215.169 C 249.609 209.141, 249.235 204.368, 248.911 204.563 C 248.587 204.759, 247.314 203.124, 246.081 200.929 C 244.847 198.735, 242.717 196.205, 241.346 195.307 C 239.975 194.409, 237.141 191.160, 235.048 188.087 C 228.023 177.771, 227.289 177.480, 204.249 175.834 L 187.999 174.673 185.457 170.337 C 183.021 166.180, 182.720 166.002, 178.208 166.044 C 175.619 166.068, 171.682 166.440, 169.459 166.871 C 165.516 167.636, 165.257 167.507, 158.757 161.558 L 152.097 155.462 150.973 145.981 C 150.355 140.766, 148.983 132.472, 147.925 127.549 C 146.867 122.627, 146.338 118.299, 146.751 117.932 C 147.163 117.566, 152.900 114.990, 159.500 112.208 C 166.100 109.427, 173.300 106.376, 175.500 105.429 L 179.500 103.707 174.319 102.604 C 171.470 101.997, 168.893 101.249, 168.594 100.942 C 168.295 100.635, 175.352 97.139, 184.275 93.174 C 201.655 85.450, 203.723 84.390, 202.935 83.602 C 202.657 83.323, 197.954 82.498, 192.484 81.769 L 182.539 80.442 196.020 74.365 C 203.434 71.022, 216.130 65.635, 224.234 62.393 C 232.338 59.152, 238.975 56.214, 238.984 55.863 C 238.993 55.513, 237.763 55.019, 236.250 54.764 C 234.738 54.510, 227.650 53.096, 220.500 51.622 C 213.350 50.147, 202.100 48.390, 195.500 47.716 L 183.500 46.491 190 42.496 L 196.500 38.500 191.187 38.196 C 185.896 37.892, 157.210 39.601, 151.500 40.560 C 148.802 41.013, 148.165 40.563, 145.164 36.087 C 139.218 27.218, 128.129 20.103, 115.974 17.358 C 109.402 15.874, 109 15.623, 109 13.016 C 109 11.495, 108.719 8.847, 108.376 7.132 L 107.753 4.013 178.613 3.757 C 245.186 3.516, 249.493 3.394, 249.810 1.750 C 250.129 0.091, 243.652 0, 125.073 0 C 0.667 0, 0 0.011, 0 2 M 0.079 2.583 C 0.127 3.748, 0.364 3.985, 0.683 3.188 C 0.972 2.466, 0.936 1.603, 0.604 1.271 C 0.272 0.939, 0.036 1.529, 0.079 2.583 M 34.500 5.929 C 37.800 6.912, 41.775 8.233, 43.334 8.865 C 44.893 9.497, 46.580 9.760, 47.084 9.448 C 47.588 9.137, 48 9.434, 48 10.108 C 48 10.782, 48.248 11.086, 48.550 10.783 C 48.853 10.480, 48.422 8.718, 47.592 6.866 L 46.083 3.500 46.593 6.500 L 47.104 9.500 45.520 6.750 C 44.001 4.113, 43.620 4.003, 36.218 4.071 L 28.500 4.142 34.500 5.929 M 105.342 9.490 C 107.735 15.578, 108.555 15.186, 107.543 8.437 C 107.032 5.029, 106.449 4, 105.031 4 C 103.272 4, 103.287 4.264, 105.342 9.490 M 62.126 33.624 C 60.851 34.517, 57.151 38.831, 53.904 43.211 L 48 51.173 48 59.981 C 48 66.064, 48.641 70.863, 50.070 75.491 C 52.477 83.285, 53.543 83.629, 51.926 76.091 C 51.313 73.230, 50.966 66.675, 51.155 61.524 C 51.475 52.838, 51.736 51.823, 54.750 47.550 C 56.538 45.015, 58 42.682, 58 42.365 C 58 42.047, 59.274 40.148, 60.832 38.144 C 65.754 31.811, 66.015 30.900, 62.126 33.624 M 80.454 46.671 C 72.807 51.822, 63.982 60.981, 61.431 66.414 C 60.162 69.117, 58.562 74.467, 57.876 78.304 L 56.629 85.281 60.315 88.238 C 64.852 91.877, 65.118 93.630, 60.794 91.394 C 58.441 90.177, 57.482 90.055, 57.187 90.938 C 56.935 91.694, 56.249 91.372, 55.337 90.070 C 53.213 87.038, 50.457 87.534, 47.440 91.490 C 45.975 93.410, 44.378 94.733, 43.889 94.431 C 42.310 93.455, 42.959 96.369, 45.570 101.980 C 46.973 104.994, 47.681 107.606, 47.143 107.786 C 46.605 107.965, 47.672 111.419, 49.514 115.462 C 51.357 119.505, 54.280 126.214, 56.011 130.372 C 59.962 139.863, 63.171 142.754, 77.497 149.730 C 86.945 154.331, 89.164 155.685, 83.500 153.393 C 82.251 152.888, 81.987 154.019, 81.921 160.143 C 81.878 164.189, 81.602 166.899, 81.309 166.165 C 80.990 165.365, 79.228 167.369, 76.912 171.165 C 73.488 176.779, 67.796 184.494, 69.472 181.250 C 69.827 180.563, 69.849 180, 69.519 180 C 68.346 180, 61.443 183.888, 58 186.488 L 54.500 189.130 57.500 188.543 C 59.150 188.220, 56.504 189.338, 51.619 191.027 C 41.778 194.430, 37.087 197.506, 33.918 202.632 C 29.842 209.228, 32.952 210.295, 47.960 207.448 L 56.141 205.896 63.321 198.559 C 67.269 194.524, 71.175 191.009, 72 190.748 C 74.494 189.959, 72.432 188.846, 66.815 187.948 L 61.500 187.099 66.500 187.428 C 69.250 187.610, 72.218 188.059, 73.096 188.427 C 74.281 188.923, 75.103 188.117, 76.288 185.298 C 77.447 182.540, 77.733 182.253, 77.334 184.250 C 77.031 185.762, 76.944 187, 77.142 186.999 C 77.339 186.999, 79.807 186.122, 82.627 185.050 C 85.447 183.978, 90.066 182.795, 92.891 182.420 C 97.827 181.765, 98.204 181.487, 102.524 175.307 C 110.503 163.893, 125 138.791, 125 136.390 C 125 136.023, 121.963 138.687, 118.250 142.309 C 107.127 153.161, 102.633 156.233, 97.099 156.764 C 94.425 157.021, 91.540 156.842, 90.689 156.366 C 89.675 155.798, 91.097 155.500, 94.821 155.500 C 102.006 155.500, 106.685 152.445, 119.704 139.254 C 128.026 130.822, 129.122 129.262, 131.143 122.987 C 132.373 119.169, 133.560 116.227, 133.782 116.449 C 134.722 117.389, 130.605 128.786, 128.165 132 C 126.703 133.925, 125.626 135.861, 125.771 136.302 C 126.288 137.873, 115.571 157.417, 107.915 168.862 C 103.634 175.263, 100.439 180.580, 100.816 180.677 C 101.192 180.775, 104.313 181.029, 107.750 181.241 C 113.892 181.621, 114 181.584, 113.998 179.064 C 113.995 176.626, 119.987 161.653, 120.685 162.352 C 120.868 162.534, 119.646 166.009, 117.969 170.074 C 113.618 180.627, 113.773 180.949, 124.238 183.061 C 129.044 184.032, 133.544 185.019, 134.238 185.256 C 135.198 185.583, 164.285 172.049, 165.733 170.600 C 166.184 170.149, 155.760 159.942, 153.749 158.866 C 152.215 158.045, 151.990 158.305, 152.165 160.704 C 152.393 163.850, 146.958 173.373, 146.211 171.134 C 145.962 170.386, 146.655 168.138, 147.750 166.137 C 148.846 164.137, 150.020 161.317, 150.360 159.871 C 151.068 156.855, 148.876 138.070, 146.524 127 C 144.705 118.443, 142.565 115.642, 137.780 115.558 C 135.029 115.509, 134.452 115.090, 134.204 112.957 C 133.987 111.100, 134.999 109.299, 137.954 106.285 C 140.179 104.015, 142 102.550, 142 103.030 C 142 103.511, 140.425 105.433, 138.500 107.303 C 134.757 110.938, 134.031 113.691, 136.560 114.661 C 140.708 116.253, 148.821 103.073, 149.704 93.307 C 150.535 84.119, 145.611 71, 141.332 71 C 138.924 71, 133.052 77.490, 132.369 80.906 C 132.028 82.608, 131.469 83.987, 131.125 83.971 C 130.781 83.955, 128.992 82.570, 127.149 80.895 C 124.365 78.363, 123.865 77.282, 124.190 74.498 L 124.581 71.148 121.168 72.574 C 116.274 74.619, 116.076 74.460, 117.687 69.782 C 119.335 64.998, 118.852 60.889, 115.804 53.781 C 113.811 49.133, 113.741 49.083, 111.140 50.458 C 109.688 51.226, 106.925 53.219, 105 54.887 L 101.500 57.919 104.550 57.959 C 108.163 58.007, 110.081 59.610, 109.235 61.872 C 108.706 63.285, 108.848 63.319, 110.313 62.128 C 111.838 60.887, 112 61.103, 112 64.378 C 112 66.931, 111.557 68, 110.500 68 C 109.675 68, 108.968 67.213, 108.930 66.250 C 108.872 64.818, 108.736 64.772, 108.180 66 C 107.769 66.907, 106.034 67.544, 103.795 67.610 C 98.594 67.765, 94.455 69.707, 93.130 72.615 C 91.642 75.880, 91.643 75.882, 94.250 75.378 L 96.500 74.944 94.228 75.948 C 92.978 76.500, 91.655 77.735, 91.288 78.692 C 90.728 80.150, 90.435 79.980, 89.479 77.641 L 88.339 74.850 85.419 78.199 C 83.814 80.040, 81.718 82.662, 80.762 84.024 C 79.334 86.059, 79.406 85.432, 81.167 80.500 C 82.345 77.200, 84.027 73.395, 84.904 72.044 C 86.104 70.199, 86.522 66.844, 86.590 58.544 C 86.640 52.470, 86.984 46.563, 87.355 45.417 C 88.335 42.388, 86.248 42.767, 80.454 46.671 M 82.262 49.732 C 80.593 52.904, 78.920 56.625, 78.544 58 C 78.169 59.375, 79.656 56.901, 81.850 52.502 C 86.457 43.264, 86.768 41.170, 82.262 49.732 M 75.500 67 C 75.120 68.729, 75.018 70.351, 75.273 70.606 C 75.528 70.861, 76.024 69.632, 76.375 67.875 C 77.209 63.707, 76.401 62.899, 75.500 67 M 31.868 71.750 C 31.272 73.263, 30.548 78.407, 30.258 83.182 C 29.767 91.265, 29.913 92.176, 32.380 96.386 C 34.858 100.614, 38.368 104, 40.273 104 C 40.729 104, 39.967 102.513, 38.581 100.695 C 33.260 93.718, 31.798 88.658, 32.418 79.353 C 32.730 74.667, 33.240 70.421, 33.552 69.917 C 33.863 69.412, 33.855 69, 33.534 69 C 33.213 69, 32.463 70.237, 31.868 71.750 M 45.133 77.374 C 42.589 84.175, 42.400 86.302, 44.622 83.129 C 45.770 81.491, 46.939 80.946, 48.622 81.268 C 49.930 81.518, 51 81.673, 50.999 81.611 C 50.999 81.550, 50.159 79.289, 49.132 76.586 L 47.266 71.673 45.133 77.374 M 74.195 74.500 C 74.215 76.150, 74.439 76.704, 74.693 75.731 C 74.947 74.758, 74.930 73.408, 74.656 72.731 C 74.382 72.054, 74.175 72.850, 74.195 74.500 M 138.022 76.207 C 135.724 78.674, 133.718 85.015, 134.191 88.321 C 134.408 89.842, 135.390 90.640, 137.488 91.001 C 139.198 91.296, 140.613 92.227, 140.796 93.179 C 141.035 94.421, 140.594 94.707, 139.058 94.305 C 137.479 93.892, 137 94.240, 137 95.800 C 137 96.918, 136.479 98.007, 135.842 98.219 C 135.102 98.466, 134.935 99.604, 135.379 101.374 C 136.252 104.852, 137.681 104.407, 140.335 99.831 C 142.070 96.838, 142.255 95.608, 141.457 92.374 C 140.843 89.890, 139.693 88.146, 138.250 87.513 C 136.861 86.903, 136 85.651, 136 84.240 C 136 81.992, 136.046 81.983, 138.750 83.688 L 141.500 85.422 139.670 83.293 C 137.533 80.809, 137.788 76.656, 140.103 76.215 C 141.091 76.027, 142.330 77.175, 143.331 79.205 C 144.224 81.017, 144.965 81.915, 144.977 81.200 C 145.011 79.288, 142.100 74, 141.013 74 C 140.499 74, 139.153 74.993, 138.022 76.207 M 99.500 75.733 C 100.600 76.008, 102.850 77.118, 104.500 78.199 L 107.500 80.165 104.500 77.588 C 102.850 76.170, 100.600 75.060, 99.500 75.121 L 97.500 75.232 99.500 75.733 M 127 79.500 C 128.292 80.875, 129.574 82, 129.849 82 C 130.124 82, 129.292 80.875, 128 79.500 C 126.708 78.125, 125.426 77, 125.151 77 C 124.876 77, 125.708 78.125, 127 79.500 M 88.624 82.539 C 88.281 83.432, 88.046 85.139, 88.102 86.332 C 88.167 87.702, 88.507 87.215, 89.026 85.007 C 89.899 81.290, 89.662 79.833, 88.624 82.539 M 100.200 88.200 C 98.491 89.909, 98.716 94.519, 100.584 96.070 C 102.750 97.868, 105.404 96.104, 105.822 92.589 C 106.352 88.131, 102.936 85.464, 100.200 88.200 M 136 89 C 136 89.550, 136.927 90, 138.059 90 C 139.191 90, 139.840 89.550, 139.500 89 C 139.160 88.450, 138.234 88, 137.441 88 C 136.648 88, 136 88.450, 136 89 M 88.158 95 C 88.158 96.375, 88.385 96.938, 88.662 96.250 C 88.940 95.563, 88.940 94.438, 88.662 93.750 C 88.385 93.063, 88.158 93.625, 88.158 95 M 55.589 94.856 C 55.298 95.326, 56.172 95.499, 57.530 95.239 C 58.889 94.979, 60 94.594, 60 94.383 C 60 93.610, 56.101 94.027, 55.589 94.856 M 138 96.917 C 138 97.971, 137.438 99.040, 136.750 99.292 C 135.836 99.627, 135.796 100.066, 136.601 100.926 C 137.432 101.814, 138.118 101.469, 139.393 99.523 C 141.040 97.010, 140.839 95, 138.941 95 C 138.423 95, 138 95.862, 138 96.917 M 111.813 98.683 C 112.534 98.972, 113.397 98.936, 113.729 98.604 C 114.061 98.272, 113.471 98.036, 112.417 98.079 C 111.252 98.127, 111.015 98.364, 111.813 98.683 M 102.333 101.500 C 102.333 102.220, 102.933 102.579, 103.667 102.298 C 104.400 102.016, 105 101.657, 105 101.500 C 105 101.343, 104.400 100.984, 103.667 100.702 C 102.933 100.421, 102.333 100.780, 102.333 101.500 M 54.079 104.583 C 54.127 105.748, 54.364 105.985, 54.683 105.188 C 54.972 104.466, 54.936 103.603, 54.604 103.271 C 54.272 102.939, 54.036 103.529, 54.079 104.583 M 64 105.935 C 64 108.350, 66.111 112, 67.507 112 C 69.635 112, 70.387 109.591, 69.042 107.078 C 67.942 105.023, 64 104.129, 64 105.935 M 96.577 110.875 C 96.280 111.356, 97.145 111.750, 98.500 111.750 C 99.855 111.750, 100.720 111.356, 100.423 110.875 C 100.125 110.394, 99.260 110, 98.500 110 C 97.740 110, 96.875 110.394, 96.577 110.875 M 72.079 115.583 C 72.127 116.748, 72.364 116.985, 72.683 116.188 C 72.972 115.466, 72.936 114.603, 72.604 114.271 C 72.272 113.939, 72.036 114.529, 72.079 115.583 M 91.629 120.350 C 88.949 123.018, 87.599 124.742, 88.629 124.182 C 90.819 122.991, 97.564 116.153, 96.932 115.765 C 96.694 115.619, 94.308 117.683, 91.629 120.350 M 58.733 117.124 C 59.412 117.808, 60.219 118.115, 60.526 117.807 C 60.834 117.499, 60.279 116.940, 59.293 116.564 C 57.868 116.022, 57.753 116.136, 58.733 117.124 M 65 119.059 C 65 119.641, 64.581 119.859, 64.069 119.543 C 63.557 119.226, 62.880 119.385, 62.564 119.896 C 62.249 120.407, 62.756 120.712, 63.691 120.575 C 65.234 120.348, 66.960 118, 65.583 118 C 65.263 118, 65 118.477, 65 119.059 M 70.476 120.075 C 69.614 122.790, 70.075 123.141, 75.264 123.726 C 79.139 124.163, 79.820 123.924, 81.348 121.591 C 82.842 119.311, 82.872 118.888, 81.576 118.391 C 80.056 117.808, 72.512 119.845, 73.294 120.628 C 73.530 120.863, 74.939 120.593, 76.426 120.028 C 77.913 119.463, 79.888 119.036, 80.815 119.079 C 81.758 119.123, 81.240 119.617, 79.637 120.200 C 77.489 120.982, 77.114 121.458, 78.137 122.106 C 79.165 122.757, 79.009 122.970, 77.500 122.971 C 73.151 122.975, 70.923 121.818, 71.539 119.876 C 71.867 118.844, 71.910 118, 71.635 118 C 71.360 118, 70.838 118.934, 70.476 120.075 M 88.750 131.080 C 87.787 131.641, 87 132.487, 87 132.961 C 87 133.435, 87.787 133.672, 88.750 133.488 C 89.713 133.304, 90.864 133.119, 91.309 133.077 C 91.754 133.034, 91.864 132.588, 91.553 132.085 C 91.242 131.582, 91.553 130.943, 92.244 130.664 C 93.104 130.318, 93.027 130.143, 92 130.109 C 91.175 130.083, 89.713 130.519, 88.750 131.080 M 99.543 159.931 C 99.226 160.443, 99.350 161.098, 99.817 161.387 C 100.284 161.676, 100.667 161.257, 100.667 160.456 C 100.667 158.770, 100.351 158.623, 99.543 159.931 M 97.500 163 C 97.101 163.646, 97.224 164.624, 97.774 165.174 C 98.441 165.841, 99.016 165.783, 99.500 165 C 99.899 164.354, 99.776 163.376, 99.226 162.826 C 98.559 162.159, 97.984 162.217, 97.500 163 M 91.902 183.503 C 83.656 185.146, 75.105 189.447, 68.094 195.477 C 62.362 200.407, 58.309 204.996, 59.677 205.006 C 60.374 205.012, 118.415 190.848, 130.500 187.723 L 134.500 186.689 130.202 185.394 C 125.246 183.901, 109.088 181.956, 102.789 182.094 C 100.430 182.146, 95.531 182.780, 91.902 183.503 M 247.072 232.250 C 245.224 238.559, 241.543 244.371, 236.757 248.539 C 234.416 250.577, 233.507 251.727, 234.738 251.094 C 237.392 249.728, 244.003 243.334, 245.691 240.500 C 246.681 238.838, 246.892 239.885, 246.941 246.691 C 246.974 251.196, 247.450 255.160, 248 255.500 C 248.636 255.893, 249.005 253.091, 249.014 247.809 C 249.021 243.239, 249.317 238.417, 249.671 237.094 C 250.041 235.711, 249.921 234.931, 249.389 235.260 C 248.859 235.587, 248.623 234.156, 248.837 231.916 C 249.324 226.810, 248.626 226.942, 247.072 232.250 M 2.574 231.857 C 1.708 233.531, 1.020 235.486, 1.044 236.200 C 1.069 236.915, 2.001 235.770, 3.116 233.656 C 4.232 231.541, 4.920 229.587, 4.646 229.313 C 4.372 229.038, 3.439 230.184, 2.574 231.857 M 216.142 240.250 C 217.214 243.138, 218.735 246.850, 219.523 248.500 L 220.954 251.500 220.962 248 C 220.968 245.277, 220.737 244.833, 219.924 246 C 219.145 247.118, 219.021 246.610, 219.437 244 C 219.786 241.809, 219.695 241.200, 219.192 242.371 C 218.529 243.916, 218.176 243.532, 217.167 240.163 C 216.495 237.919, 215.551 235.840, 215.069 235.542 C 214.587 235.245, 215.070 237.363, 216.142 240.250 M 101.256 243.671 C 99.471 245.088, 92.946 248.438, 86.756 251.115 L 75.500 255.983 81.858 255.992 L 88.217 256 97.108 248.803 C 101.999 244.844, 106 241.469, 106 241.303 C 106 240.446, 104.159 241.365, 101.256 243.671 M 226.202 245.522 C 225.005 247.985, 224.236 250, 224.493 250 C 225.170 250, 229.211 241.877, 228.758 241.425 C 228.549 241.215, 227.398 243.059, 226.202 245.522 M 129.980 245.961 C 131.720 249.372, 132.626 252.230, 132.926 255.250 C 132.999 255.989, 138 256.356, 138 255.622 C 138 255.414, 137.299 253.566, 136.441 251.514 C 134.668 247.269, 133.387 247.257, 135 251.500 C 137.165 257.195, 135.154 254.832, 132.479 248.538 C 130.950 244.942, 129.308 242, 128.830 242 C 128.351 242, 128.869 243.782, 129.980 245.961 M 211 248.284 C 211 249.096, 221.139 256.195, 221.616 255.717 C 221.847 255.486, 220.116 254.013, 217.768 252.444 C 215.421 250.875, 212.938 249.178, 212.250 248.673 C 211.563 248.168, 211 247.993, 211 248.284" stroke="none" fill="black" fill-rule="evenodd"/>
</svg>