<svg xmlns="http://www.w3.org/2000/svg" width="1170" height="1600" viewBox="0 0 1170 1600" version="1.1">
	<path d="M 600.311 22.198 C 568.196 62.643, 551.697 85.610, 544.630 99.709 C 538.031 112.873, 534.319 131.212, 527.415 184.750 C 526.475 192.037, 525.362 198, 524.941 198 C 524.519 198, 523.711 195.188, 523.145 191.750 L 522.114 185.500 522.602 193.500 L 523.090 201.500 520.055 196.500 C 518.385 193.750, 512.241 180.250, 506.399 166.500 C 500.558 152.750, 494.954 139.588, 493.946 137.250 C 492.177 133.150, 490.718 132.029, 489.570 133.887 C 488.931 134.921, 486.824 150.418, 484.524 171 C 483.633 178.975, 482.471 189.325, 481.942 194 C 479.896 212.083, 478 237.856, 478 247.576 C 478 260.047, 480.749 271.721, 487.821 289.285 C 490.526 296.003, 492.564 301.696, 492.350 301.937 C 492.136 302.177, 488.032 299.658, 483.230 296.341 C 471.323 288.112, 470 287.450, 470.001 289.715 C 470.002 290.697, 479.271 307.025, 490.599 326 C 514.958 366.800, 526.209 386.138, 525.799 386.496 C 525.634 386.639, 522.125 386.188, 518 385.494 C 513.875 384.799, 503.942 383.931, 495.926 383.564 C 482.636 382.956, 480.860 383.081, 475.778 384.982 C 472.714 386.128, 468.178 388.852, 465.699 391.033 C 463.221 393.215, 460.137 395.020, 458.847 395.044 C 457.556 395.068, 454.710 395.725, 452.522 396.504 C 449.052 397.740, 447.390 397.721, 439.522 396.356 C 434.159 395.426, 427.200 394.961, 422.363 395.210 C 414.805 395.600, 413.331 396.069, 401.637 401.815 C 394.713 405.217, 388.572 408, 387.991 408 C 386.538 408, 247.347 314.195, 242 309.613 C 240.625 308.434, 237.925 306.610, 236 305.560 C 234.075 304.509, 223.732 297.879, 213.015 290.825 C 200.036 282.282, 192.618 278, 190.799 278 C 187.219 278, 181.644 282.949, 177.931 289.422 C 174.424 295.537, 174.275 297.999, 177.250 300.676 C 180.301 303.421, 217.955 329.203, 294.500 380.959 C 329.700 404.760, 359.136 424.833, 359.913 425.565 C 361.119 426.702, 360.795 427.484, 357.706 430.903 C 355.715 433.107, 353.204 436.640, 352.125 438.755 C 347.219 448.372, 344.371 475.770, 347.364 484.555 C 349.393 490.511, 349.426 495.597, 347.500 505.662 C 346.675 509.973, 346 517.563, 346 522.529 L 346 531.558 340.216 540.529 C 320.015 571.863, 320.309 571.135, 322.477 584.527 L 323.902 593.330 320.369 602.415 C 315.411 615.165, 315.809 619.519, 322.762 628.574 C 327.157 634.297, 327.737 635.563, 326.933 637.676 C 326.420 639.026, 326 641.479, 326 643.127 C 326 644.776, 325.265 648.370, 324.368 651.115 C 322.987 655.335, 321.855 656.703, 317.027 659.982 C 313.887 662.114, 308.373 667.040, 304.772 670.929 C 297.023 679.299, 300.953 678.777, 263 676.474 C 236.324 674.855, 234 674.390, 227.410 669.364 C 219.871 663.613, 214.734 651.876, 208.062 625.160 C 203.801 608.094, 199.268 594.876, 195.416 588.281 C 191.332 581.287, 182.509 572.550, 176.062 569.114 C 169.105 565.406, 160.403 563.370, 147.435 562.419 C 140.716 561.925, 138.075 562.069, 137.525 562.959 C 137.074 563.690, 139.196 567.616, 142.865 572.836 C 155.765 591.191, 167.903 609.748, 170.772 615.500 C 172.418 618.800, 175.661 626.865, 177.978 633.423 C 180.296 639.981, 184.494 650.106, 187.308 655.923 C 194.318 670.416, 198.827 674.664, 221.547 688.180 C 244.851 702.044, 258.484 708.667, 265.532 709.547 C 268.554 709.925, 271.211 710.533, 271.437 710.899 C 271.663 711.264, 269.119 714.685, 265.784 718.500 C 247.892 738.963, 236.668 757.929, 233.942 772.305 C 232.233 781.320, 230.793 809.245, 231.808 813.701 C 232.642 817.361, 232.316 819.215, 229.277 828.092 C 225.040 840.466, 224.686 847.244, 227.895 854.500 C 229.112 857.250, 231.289 860.734, 232.733 862.242 L 235.359 864.984 229.198 870.559 C 222.483 876.636, 221.685 878.385, 218.498 894.011 C 216.912 901.785, 216.331 902.914, 208.783 912.890 C 198.708 926.205, 184.647 947.382, 180.934 954.831 C 177.083 962.557, 175.759 968.970, 176.934 974.201 C 177.452 976.509, 177.567 978.912, 177.188 979.542 C 176.810 980.171, 173.350 983.407, 169.500 986.732 C 157.933 996.724, 153.746 1001.599, 148.500 1011.179 C 143.946 1019.495, 142.943 1020.647, 137.256 1024.090 C 123.199 1032.601, 115.408 1041.398, 106.929 1058.335 C 104.134 1063.918, 101.735 1068.598, 101.598 1068.735 C 101.461 1068.873, 97.408 1069.672, 92.591 1070.512 C 63.392 1075.604, 38.078 1096.218, 23.918 1126.435 C 17.061 1141.066, 15.519 1148.363, 15.557 1166 C 15.607 1189.011, 18.314 1200.145, 27.170 1213.753 L 31.239 1220.006 27.255 1225.253 C 16.126 1239.911, 5.882 1266.094, 1.473 1291.146 C -0.710 1303.550, -0.488 1326.772, 1.903 1336.121 C 8.863 1363.335, 24.679 1385.358, 48.788 1401.408 C 64.896 1412.131, 80.996 1417.708, 103.388 1420.320 L 113.500 1421.500 113.740 1425 C 115.355 1448.514, 117.594 1458.271, 124.524 1472 C 136.974 1496.664, 153.838 1512.447, 182.124 1525.906 C 205.516 1537.036, 224.102 1541.836, 247 1542.660 C 265.786 1543.336, 282.590 1541.405, 296.388 1536.985 C 301.513 1535.343, 306.335 1534.009, 307.103 1534.019 C 307.872 1534.030, 310.155 1536.842, 312.177 1540.269 C 320.148 1553.777, 334.158 1568.893, 349.500 1580.541 C 358.082 1587.057, 375.927 1595.577, 386 1597.968 C 393.012 1599.633, 397.934 1599.987, 414.125 1599.993 C 445.069 1600.004, 462.449 1596.296, 485.500 1584.765 C 501.247 1576.888, 508.488 1572.368, 514.953 1566.383 L 520.957 1560.825 525.728 1562.348 C 536.561 1565.805, 542.620 1566.478, 562.500 1566.431 C 579.244 1566.391, 584.166 1566.024, 592.734 1564.176 C 618.925 1558.527, 641.806 1546.236, 660.032 1528.024 C 679.186 1508.885, 690.757 1487.211, 695.547 1461.500 C 697.942 1448.648, 697.148 1426.407, 693.928 1416.132 L 691.619 1408.764 697.060 1404.147 C 718.393 1386.044, 730.128 1368.812, 735.355 1347.916 C 741.008 1325.309, 739.257 1301.205, 730.526 1281.462 C 729.137 1278.321, 728 1275.116, 728 1274.341 C 728 1273.565, 730.438 1268.333, 733.418 1262.715 C 739.973 1250.357, 741.777 1244.524, 743.019 1231.669 C 744.726 1213.994, 741.956 1197.186, 734.917 1182.500 C 728.602 1169.327, 721.974 1161.526, 704.185 1146.327 L 700.870 1143.495 703.053 1135.538 C 706.440 1123.193, 704.831 1115.514, 695.500 1099.490 C 686.965 1084.834, 674.339 1075.442, 651.750 1066.947 C 646.938 1065.137, 643 1063.284, 643 1062.828 C 643 1062.373, 644.546 1062, 646.435 1062 C 656.682 1062, 661.939 1055.908, 673.549 1030.579 C 678.578 1019.606, 678.627 1019.543, 686.468 1013.962 C 694.316 1008.375, 698 1003.699, 698 999.322 C 698 997.931, 699.534 995.889, 702.144 993.806 C 718.089 981.085, 723.433 972.683, 724.953 957.954 C 726.663 941.381, 723.609 920.046, 717.854 908.356 C 714.337 901.211, 705.870 891.383, 699.393 886.926 C 696.977 885.264, 695 883.107, 695 882.133 C 695 877.425, 691.577 869.341, 688.118 865.882 C 684.284 862.048, 676.470 859, 670.477 859 C 668.102 859, 665.231 857.365, 658.909 852.412 C 647.316 843.330, 636.926 836.594, 620.500 827.513 C 612.800 823.255, 606.050 819.335, 605.500 818.802 C 604.103 817.446, 609.708 812.769, 624.935 802.581 C 656.585 781.406, 689.445 767.065, 728 757.601 C 757.535 750.351, 777.311 747.993, 808 748.060 C 841.131 748.133, 835.100 745.914, 874 772.342 C 892.425 784.861, 914.104 799.641, 922.176 805.188 C 939.165 816.862, 941.879 817.585, 949.236 812.386 C 956.021 807.593, 959.853 797.476, 956.703 792.670 C 955.850 791.367, 947.666 785.171, 938.517 778.901 C 929.369 772.630, 922.539 767.363, 923.340 767.196 C 925.377 766.771, 941.577 773.143, 953.500 779.059 C 970.948 787.715, 1004.390 809.813, 1025.500 826.635 C 1047.657 844.291, 1082.657 881.454, 1103.545 909.500 C 1126.900 940.860, 1149.818 981.730, 1160.463 1011 C 1165.616 1025.169, 1167.076 1028.334, 1168.500 1028.432 C 1170.863 1028.593, 1169.734 1022.485, 1164.622 1007.441 C 1152.244 971.013, 1129.632 925.711, 1106.502 891 C 1095.563 874.583, 1063.583 835.476, 1043.127 813.500 C 1025.229 794.271, 1000.457 773.663, 982.474 763.041 C 943.821 740.211, 891.097 720.916, 846.200 713.169 C 841.534 712.364, 834.094 707.726, 783.978 674.377 C 752.670 653.545, 727.042 635.922, 727.027 635.215 C 727.012 634.508, 727.612 632.933, 728.359 631.715 C 729.107 630.497, 730.298 626.267, 731.007 622.315 C 732.058 616.458, 732.059 614.556, 731.010 612.025 C 729.417 608.179, 726.427 606, 722.740 606 C 720.633 606, 718.473 604.528, 714.143 600.145 C 710.039 595.989, 707.329 594.097, 704.806 593.623 C 701.480 592.999, 701.147 592.583, 699.626 587.163 C 698.732 583.976, 697.993 579.373, 697.984 576.934 C 697.957 569.171, 695.510 561.121, 692.111 557.614 C 689.760 555.189, 689 553.494, 689 550.677 C 689 547.517, 689.886 545.997, 694.819 540.695 C 705.408 529.313, 709.067 517.895, 709.341 495.388 C 709.529 479.894, 710.737 482.309, 692.099 460.911 C 685.445 453.271, 680 446.587, 680 446.058 C 680 445.529, 683.852 443.291, 688.559 441.085 C 693.267 438.879, 698.779 435.776, 700.809 434.190 C 702.839 432.603, 720.925 424.439, 741 416.047 C 775.200 401.750, 786 396.772, 786 395.304 C 786 394.632, 764.700 395.590, 756.115 396.647 C 752.580 397.083, 750.862 396.957, 751.115 396.282 C 751.327 395.716, 756.951 390.719, 763.614 385.178 C 783.280 368.821, 803.556 349.465, 818.318 332.955 C 832.277 317.342, 841 306.554, 841 304.901 C 841 303.061, 835.900 304.177, 811.500 311.360 C 781.720 320.126, 780.632 320.405, 781.467 319.054 C 781.815 318.490, 787.581 313.859, 794.279 308.764 C 807.683 298.567, 822.759 284.506, 835.235 270.563 C 840.797 264.347, 838.814 266.091, 828.922 276.112 C 813.940 291.290, 806.005 298.364, 792.480 308.598 C 781.381 316.997, 781.002 317.124, 785.457 310.960 C 787.627 307.957, 792.012 301.900, 795.200 297.500 C 806.259 282.237, 815.093 259.718, 824.112 223.798 C 828.847 204.940, 832.470 179.747, 830.876 176.769 C 829.425 174.057, 828.156 175.145, 814.850 190.500 C 801.490 205.918, 778.345 229.678, 777.504 228.838 C 777.179 228.512, 777.874 223.578, 779.050 217.873 C 782.254 202.322, 781.507 189.215, 776.556 174.135 C 765.872 141.590, 748.084 108.381, 724.379 76.726 C 715.656 65.078, 713.927 63.344, 712.925 65.240 C 712.559 65.933, 712.712 74.516, 713.265 84.314 C 713.930 96.090, 713.935 102.465, 713.280 103.120 C 712.624 103.776, 708.972 99.432, 702.507 90.306 C 693.052 76.961, 673.342 51.790, 667.195 45.209 C 662.115 39.770, 661.610 40.612, 662.373 53.250 C 662.746 59.438, 663.467 69.450, 663.975 75.500 C 665.135 89.322, 665.245 120.066, 664.140 121.807 C 663.155 123.361, 630.185 76.855, 626.464 68.663 C 624.421 64.164, 623.970 60.864, 622.961 43 C 620.588 1.020, 620.640 1.549, 618.863 1.210 C 617.754 0.998, 611.764 7.775, 600.311 22.198 M 517.158 130 C 517.158 131.375, 517.385 131.938, 517.662 131.250 C 517.940 130.563, 517.940 129.438, 517.662 128.750 C 517.385 128.063, 517.158 128.625, 517.158 130 M 518.232 149 C 518.232 150.925, 518.438 151.713, 518.689 150.750 C 518.941 149.787, 518.941 148.213, 518.689 147.250 C 518.438 146.287, 518.232 147.075, 518.232 149 M 519.252 162.500 C 519.263 164.700, 519.468 165.482, 519.707 164.238 C 519.946 162.994, 519.937 161.194, 519.687 160.238 C 519.437 159.282, 519.241 160.300, 519.252 162.500 M 519.740 172.663 C 520.779 182.447, 521.968 185.887, 521.412 177.500 C 521.120 173.100, 520.509 169.123, 520.053 168.663 C 519.598 168.203, 519.457 170.003, 519.740 172.663 M 844.924 258.750 L 842.500 261.500 845.250 259.076 C 847.820 256.810, 848.459 256, 847.674 256 C 847.495 256, 846.258 257.238, 844.924 258.750 M 589 269.577 C 583.285 272.820, 577.308 278.615, 570.515 287.500 C 558.479 303.243, 556.611 313.162, 564.876 317.436 L 567.693 318.893 572.581 312.236 C 580.010 302.118, 592.579 287.441, 600.709 279.389 C 604.719 275.418, 608 271.899, 608 271.570 C 608 271.240, 606.538 270.079, 604.750 268.989 C 600.257 266.250, 594.485 266.465, 589 269.577 M 188.575 281.321 C 186.871 282.568, 188.962 284.209, 212.604 300.180 C 297.070 357.240, 379.411 412.294, 380.841 412.665 C 381.754 412.902, 383.314 412.498, 384.309 411.768 C 386.403 410.232, 397.841 418.175, 274.340 335.402 C 229.702 305.484, 192.564 280.770, 191.811 280.481 C 191.059 280.192, 189.602 280.570, 188.575 281.321 M 619 299.984 C 614.325 300.997, 608.786 302.444, 606.690 303.198 L 602.881 304.569 606.859 307.767 C 611.239 311.286, 614.999 318.369, 617.069 327 C 617.795 330.025, 618.485 332.646, 618.603 332.825 C 618.982 333.400, 639.279 320.895, 646 315.946 C 649.575 313.314, 653.822 309.774, 655.437 308.080 L 658.374 305 655.905 305 C 654.548 305, 647.966 303.425, 641.280 301.500 C 634.593 299.575, 628.757 298.032, 628.311 298.070 C 627.865 298.109, 623.675 298.970, 619 299.984 M 695.137 315.864 C 689.406 325.994, 682.630 333.551, 676.773 336.348 C 670.185 339.493, 657.584 341.622, 637.258 343.023 C 628.591 343.621, 620.938 344.296, 620.250 344.523 C 619.563 344.751, 619 346.301, 619 347.969 C 619 351.879, 617.130 351.901, 616.350 348 L 615.750 345 607.816 345 C 603.248 345, 600.123 344.610, 600.450 344.081 C 600.762 343.576, 603.951 341.522, 607.537 339.517 L 614.056 335.871 611.878 331.997 C 610.680 329.866, 607.723 326.183, 605.305 323.811 C 601.034 319.622, 600.727 319.501, 594.455 319.519 C 589.373 319.534, 587.983 319.215, 587.921 318.019 C 587.868 316.992, 587.679 316.905, 587.338 317.750 C 586.393 320.092, 585 319.009, 585 315.933 C 585 312.332, 584.145 312.433, 574.750 317.145 C 571.587 318.731, 569 319.801, 569 319.524 C 569 318.748, 559.113 325.008, 558.325 326.283 C 557.943 326.901, 559.739 326.171, 562.315 324.661 C 570.048 320.129, 567.602 323.230, 558.644 329.315 L 550.288 334.991 549.669 342.746 C 547.482 370.152, 545.853 399.430, 546.151 405.994 L 546.500 413.675 557.171 429.587 C 572.590 452.581, 582.525 465.740, 586.115 467.924 C 589.856 470.199, 589.159 470.273, 619.108 464.429 C 642.707 459.823, 647.340 458.433, 652.784 454.325 C 654.590 452.962, 663.854 442.544, 673.371 431.173 C 682.887 419.803, 694.122 406.483, 698.337 401.574 C 702.552 396.664, 706 391.825, 706 390.821 C 706 388.671, 705.821 388.864, 683.980 414.500 C 661.091 441.367, 653.698 449.245, 648.869 451.919 L 644.500 454.337 649.521 448.919 C 654.560 443.481, 662 433.764, 662 432.621 C 662 432.285, 656.938 429.513, 650.750 426.461 C 638.559 420.448, 640.061 419.746, 654.640 424.642 L 662.184 427.176 664.721 424.838 C 666.954 422.780, 683.640 401.062, 694.354 386.269 L 698.142 381.039 693.945 382.519 C 689.648 384.035, 686 384.451, 686 383.424 C 686 383.107, 689.908 378.615, 694.684 373.441 C 699.461 368.267, 703.440 363.061, 703.528 361.871 C 703.674 359.883, 703.584 359.848, 702.417 361.444 C 700.910 363.505, 696.536 362.651, 697.377 360.461 C 697.701 359.615, 697.388 359.298, 696.547 359.620 C 695.764 359.921, 694.466 358.905, 693.462 357.205 C 691.194 353.366, 687.059 351, 682.619 351 C 678.696 351, 667.542 354.884, 662.480 358.012 C 658.974 360.179, 658 360.434, 658 359.184 C 658 358.021, 671.484 348.780, 677.927 345.527 C 684.905 342.004, 692.648 341.745, 698.682 344.832 C 704.184 347.647, 704.524 348.412, 701.981 352.257 L 699.835 355.500 702.205 352.750 C 704.762 349.783, 706.557 349.107, 705.658 351.449 C 705.266 352.469, 705.582 352.714, 706.725 352.275 C 707.885 351.830, 708.183 352.080, 707.772 353.152 C 707.372 354.195, 707.799 354.607, 709.177 354.505 C 711.948 354.301, 722.497 338.567, 723.304 333.434 C 724.347 326.805, 721.509 318.219, 717.381 315.514 C 714.382 313.549, 707.553 311.252, 702.500 310.509 L 698.500 309.921 695.137 315.864 M 532.960 321.698 C 527.577 327.829, 523.233 338.352, 521.924 348.431 C 520.203 361.680, 521.041 371.519, 524.490 378.569 C 527.543 384.809, 538.203 396.297, 541.817 397.242 C 543.753 397.748, 544 397.418, 544 394.318 C 544 391.449, 542.921 389.631, 537.976 384.162 C 534.663 380.498, 531.101 375.700, 530.061 373.500 C 527.744 368.600, 526.317 359, 527.906 359 C 528.508 359, 529 360.508, 529 362.351 C 529 368.377, 533.879 378.811, 536.065 377.460 C 536.567 377.150, 536.748 377.494, 536.467 378.224 C 536.187 378.955, 537.767 381.320, 539.979 383.479 C 542.392 385.836, 544 386.820, 544 385.940 C 544 385.134, 543.003 384.030, 541.785 383.487 C 540.345 382.845, 539.208 381.044, 538.535 378.337 C 537.966 376.048, 536.712 373.313, 535.750 372.259 C 533.559 369.859, 533.591 367.513, 535.953 357.546 C 537.723 350.078, 540.070 346.307, 542.147 347.591 C 543.129 348.197, 543.256 344.558, 542.370 341.250 C 541.934 339.625, 541.021 339, 539.083 339 C 536.139 339, 534 337.391, 534 335.178 C 534 334.101, 534.326 334.026, 535.342 334.869 C 536.080 335.481, 537.052 335.649, 537.502 335.241 C 537.952 334.834, 537.997 335.063, 537.601 335.750 C 537.109 336.606, 537.657 337, 539.343 337 C 541.797 337, 541.800 336.986, 540.439 332.465 C 537.998 324.353, 537.221 324.367, 533.325 332.595 C 529.895 339.839, 528.431 339.538, 531.648 332.250 C 534.725 325.276, 535.714 324, 538.042 324 C 540.151 324, 542.267 329.631, 544.442 341.036 C 546.001 349.208, 545.315 352.324, 541.500 354.408 C 537.522 356.580, 536.685 360.423, 540 361.290 C 541.578 361.702, 542 362.654, 542 365.799 C 542 368.376, 542.518 369.985, 543.463 370.348 C 545.218 371.021, 545.429 369.835, 547.022 350.393 L 548.177 336.286 544.980 328.606 C 540.055 316.776, 538.212 315.717, 532.960 321.698 M 588.073 342.711 C 583.941 343.519, 575.591 353.054, 572.707 360.259 C 569.846 367.406, 566.659 381.662, 567.172 385.022 C 567.415 386.614, 569.286 387.931, 574.396 390.106 C 583.328 393.907, 584.313 392.977, 575.649 388.923 C 567.895 385.294, 567.879 385.236, 571.006 372.190 C 573.686 361.011, 577.154 354.034, 582.463 349.141 C 587.827 344.196, 590.595 343.386, 595.343 345.370 C 599.765 347.218, 602.456 352.508, 603.801 362 L 604.722 368.500 604.861 361.962 C 605.129 349.372, 597.681 340.832, 588.073 342.711 M 704.872 357.750 C 703.629 359.336, 703.664 359.371, 705.250 358.128 C 706.916 356.821, 707.445 356, 706.622 356 C 706.415 356, 705.627 356.788, 704.872 357.750 M 531.079 367.583 C 531.127 368.748, 531.364 368.985, 531.683 368.188 C 531.972 367.466, 531.936 366.603, 531.604 366.271 C 531.272 365.939, 531.036 366.529, 531.079 367.583 M 662.363 372.922 C 658.088 374.863, 649.569 381.902, 650.440 382.773 C 650.711 383.044, 652.535 381.859, 654.494 380.139 C 662.462 373.143, 672.756 370.756, 676.935 374.935 C 681.552 379.552, 681.294 389.376, 676.333 397.912 C 671.128 406.869, 661.896 420.054, 661.152 419.594 C 658.691 418.073, 650 415.167, 650 415.865 C 650 416.750, 662.855 422.524, 663.391 421.879 C 664.573 420.456, 676.160 402.651, 678.295 398.977 C 688.625 381.202, 678.955 365.388, 662.363 372.922 M 600.229 376.669 C 596.733 378.076, 594.522 389.122, 597.200 391.800 C 600.897 395.497, 608.314 391.176, 609.546 384.607 C 610.744 378.218, 606.136 374.292, 600.229 376.669 M 714.058 391.814 C 709.078 394.280, 705.486 396.897, 703.202 399.722 L 699.788 403.944 708.144 398.948 C 716.948 393.685, 720.205 392.391, 721.943 393.465 C 723.468 394.407, 723.242 397.311, 721.469 399.559 C 720.010 401.409, 719.951 401.360, 720.208 398.500 C 720.528 394.942, 719.519 394.963, 713.191 398.646 C 709.642 400.711, 709.094 401.408, 710.082 402.599 C 710.797 403.461, 712.081 403.792, 713.259 403.418 C 714.655 402.975, 715.105 403.189, 714.790 404.145 C 714.072 406.324, 710.250 406.315, 708.379 404.130 C 706.681 402.147, 706.636 402.155, 702.266 405.161 C 698.196 407.962, 697.981 408.322, 699.431 409.924 C 700.294 410.877, 701 412.350, 701 413.197 C 701 415.370, 691.205 427.804, 688.090 429.584 L 685.500 431.065 688.875 430.426 C 693.245 429.598, 692.259 431.429, 687.486 433.005 C 685.569 433.637, 684 434.718, 684 435.406 C 684 436.783, 674.831 439.256, 672.724 438.448 C 671.998 438.169, 670.301 439.139, 668.952 440.603 L 666.500 443.265 673.211 442.751 C 678.508 442.345, 681.930 441.260, 689.455 437.599 C 700.154 432.394, 702.753 429.739, 717.800 408.649 C 725.491 397.868, 728.821 391.138, 727.512 389.020 C 726.336 387.117, 721.523 388.116, 714.058 391.814 M 637.557 393.533 C 634.760 396.551, 633.494 402.186, 634.986 404.974 C 637.563 409.788, 645.135 408.315, 647.552 402.530 C 649.515 397.831, 649.373 395.373, 647 393 C 644.259 390.259, 640.389 390.477, 637.557 393.533 M 527 397.407 C 524.525 399.254, 520.709 403.068, 518.520 405.883 C 516.331 408.697, 514.167 411, 513.711 411 C 512.633 411, 513.557 409.439, 517.655 404.332 C 519.495 402.039, 521 399.838, 521 399.439 C 521 397.310, 501.762 401.489, 497.644 404.513 C 495.892 405.799, 496.053 406.199, 500.540 411.688 C 503.154 414.884, 505.710 417.376, 506.221 417.225 C 506.731 417.074, 506.845 417.442, 506.473 418.044 C 506.101 418.645, 507.796 422.143, 510.239 425.818 C 517.380 436.561, 527.267 452.814, 532.407 462.262 C 535.029 467.080, 538 471.465, 539.008 472.005 C 540.673 472.895, 540.907 472.385, 541.540 466.475 C 541.923 462.893, 542.050 455.696, 541.822 450.482 C 541.594 445.267, 541.727 441, 542.118 441 C 543.332 441, 544.299 455.922, 543.716 465.681 L 543.162 474.979 546.331 477.148 C 548.074 478.341, 550.930 480.653, 552.679 482.286 L 555.857 485.254 555.335 462.877 C 555.048 450.570, 555.227 438.700, 555.732 436.500 C 556.580 432.804, 556.360 432.068, 552.830 426.812 C 545.693 416.186, 544 412.176, 544 405.898 C 544 400.262, 543.900 400.046, 540.546 398.455 C 538.646 397.553, 536.566 396.182, 535.924 395.408 C 534.129 393.246, 531.912 393.742, 527 397.407 M 560.500 395 C 560.840 395.550, 561.654 396.008, 562.309 396.017 C 562.964 396.026, 567.325 397.621, 572 399.562 C 576.675 401.502, 581.404 403.221, 582.509 403.381 C 583.615 403.541, 585.527 404.212, 586.759 404.871 C 587.992 405.531, 589 405.714, 589 405.278 C 589 403.079, 567.826 393.023, 567.193 394.922 C 566.983 395.550, 565.973 395.560, 564.368 394.950 C 561.145 393.724, 559.723 393.743, 560.500 395 M 616.449 409.468 C 615.652 411.375, 615 414.037, 615 415.383 C 615 416.800, 613.752 419.009, 612.036 420.628 C 608.708 423.769, 609.419 424.959, 614.639 424.985 C 618.915 425.006, 622.276 422.107, 622.239 418.432 C 622.199 414.406, 619.860 406, 618.780 406 C 618.295 406, 617.246 407.561, 616.449 409.468 M 585.039 417.454 C 583.235 419.627, 581 427.791, 581 432.209 C 581 439.648, 586.001 445.293, 595.940 449.069 C 604.173 452.197, 609.553 453.119, 612.702 451.939 C 617.309 450.214, 628 439.006, 628 435.901 C 628 432.060, 626.472 431.327, 617.196 430.723 C 606.863 430.049, 599.586 426.779, 594.268 420.417 C 590.419 415.812, 587.246 414.793, 585.039 417.454 M 587.346 417.819 C 585.788 418.833, 584 422.595, 584 424.861 C 584 429.276, 597.424 437.393, 611.445 441.456 L 620.336 444.033 622.760 441.766 C 629.254 435.693, 628.118 433.440, 618.196 432.720 C 607.451 431.939, 601.717 429.544, 594.494 422.819 C 591.139 419.695, 587.922 417.445, 587.346 417.819 M 583.004 432.146 C 583.006 434.599, 583.806 437.810, 584.837 439.500 C 587 443.047, 594.193 447.158, 602.360 449.515 C 609.092 451.457, 613.362 450.948, 616.711 447.802 L 619.017 445.635 608.808 442.295 C 597.903 438.727, 592.011 435.705, 586.460 430.831 L 583 427.793 583.004 432.146 M 557.379 451.910 C 557.721 462.036, 558.011 473.961, 558.024 478.410 L 558.048 486.500 565.046 494.500 C 568.894 498.900, 574.171 505.757, 576.771 509.737 C 581.518 517.002, 582.667 518.154, 582.667 515.651 C 582.667 513.186, 588.070 500.758, 590.951 496.598 C 592.511 494.344, 599.643 486.762, 606.798 479.750 C 613.954 472.738, 619.603 467, 619.351 467 C 619.099 467, 615.791 469.475, 612 472.500 C 608.209 475.525, 604.542 478, 603.851 478 C 603.160 478, 601.119 476.569, 599.314 474.820 C 596.556 472.147, 595.240 471.628, 591.069 471.567 C 584.547 471.473, 582.095 469.096, 567.791 449 L 556.759 433.500 557.379 451.910 M 411.500 446.399 C 405.622 448.258, 401.412 450.590, 392.718 456.805 C 384.188 462.902, 382.541 465.090, 378.648 475.500 C 375.154 484.843, 373.841 492.319, 374.638 498.329 L 375.295 503.284 376.726 500.554 C 378.966 496.278, 379.267 498.189, 377.447 505.139 C 375.576 512.282, 375.898 524.550, 378.080 529.300 L 379.367 532.100 381.522 526.148 C 384.149 518.894, 388.190 513.652, 396.997 506.071 C 404.836 499.325, 410.745 495.165, 417 491.989 C 423.098 488.893, 438 483.921, 438 484.982 C 438 485.452, 434.962 486.837, 431.250 488.059 C 422.009 491.101, 412.468 495.998, 405.954 501.043 C 396.927 508.033, 387.985 517.222, 385.501 522.059 C 377.794 537.067, 378.287 576.740, 386.280 584.734 L 388.514 586.968 393.315 574.844 C 397.399 564.535, 398.166 561.507, 398.442 554.610 C 398.713 547.839, 398.648 547.408, 398.051 552 C 397.092 559.378, 396.865 557.667, 396.999 544.062 C 397.120 531.765, 398.814 524.865, 399.101 535.500 C 399.248 540.931, 399.340 541.168, 400.069 538 C 400.565 535.842, 400.761 539.868, 400.579 548.500 L 400.283 562.500 395.142 576.074 C 392.314 583.540, 390 590.672, 390 591.923 C 390 593.174, 390.739 595.754, 391.641 597.656 L 393.282 601.115 396.623 593.432 C 398.460 589.207, 399.675 585.244, 399.321 584.625 C 398.968 584.006, 399.050 583.836, 399.503 584.246 C 399.956 584.657, 401.177 583.594, 402.217 581.884 C 405.993 575.674, 405.118 580.124, 400.680 589.696 C 398.180 595.088, 395.388 602.120, 394.475 605.322 C 390.629 618.820, 390.842 639.211, 395.048 660.115 C 396.620 667.924, 399.797 678.181, 399.961 675.974 C 401.676 652.913, 407.686 639.873, 423.915 624 C 441.769 606.537, 464.735 597.899, 489.500 599.332 C 504.649 600.208, 514.653 603.281, 524.680 610.141 C 526.979 611.713, 529.021 613, 529.217 613 C 529.413 613, 529.255 609.288, 528.866 604.750 C 528.253 597.590, 527.509 595.217, 523.231 586.789 C 518.591 577.649, 518.462 577.193, 521.034 579.024 C 530.385 585.682, 541 607.477, 541 620.016 C 541 622.349, 541.918 624.821, 543.615 627.056 L 546.230 630.500 545.672 623 C 545.074 614.977, 540.750 600.414, 536.389 591.740 C 532.619 584.240, 518.261 570.349, 509.754 565.972 C 503.672 562.842, 501.490 561, 503.863 561 C 505.033 561, 509.587 550.669, 511.136 544.500 C 511.827 541.750, 512.698 539.129, 513.071 538.675 C 514.224 537.274, 515.101 554.187, 514.167 559.793 C 513.372 564.564, 513.489 565.229, 515.356 566.537 C 517.200 567.828, 517.539 567.796, 518.445 566.244 C 519.019 565.260, 519.452 557.746, 519.439 549 C 519.412 531.529, 518.367 527.149, 510.847 512.974 C 502.507 497.256, 492.601 488.002, 480.250 484.392 C 474.694 482.769, 472.801 480.358, 477.974 481.494 L 480.949 482.148 479.553 477.824 C 478.785 475.446, 477.584 471.774, 476.884 469.664 C 475.398 465.184, 469.524 459.672, 461.854 455.562 L 456.500 452.692 458.895 455.315 C 460.213 456.758, 461.745 457.658, 462.300 457.315 C 462.855 456.972, 463.020 457.159, 462.666 457.732 C 462.312 458.304, 463.311 461.636, 464.885 465.136 C 468.469 473.103, 469.373 476, 468.275 476 C 467.802 476, 465.727 472.251, 463.663 467.668 C 459.053 457.434, 452.884 450.980, 445.500 448.668 C 433.622 444.950, 419.139 443.983, 411.500 446.399 M 591.083 455.377 C 592.702 456.842, 600 459.845, 600 459.046 C 600 457.812, 594.707 455, 592.383 455 C 591.439 455, 590.854 455.170, 591.083 455.377 M 611.038 479.244 L 598.618 491.280 604.048 496.042 C 609.180 500.543, 609.616 500.729, 611.989 499.426 C 616.291 497.063, 620 493.185, 620 491.048 C 620 489.922, 620.620 489, 621.377 489 C 623.795 489, 621.679 500.739, 617.546 510.250 C 616.964 511.590, 617.259 512, 618.804 512 C 619.914 512, 623.548 512.848, 626.880 513.885 C 633.889 516.067, 632.998 517.067, 635.568 504.128 C 636.482 499.523, 637 494.038, 636.718 491.938 C 636.302 488.835, 630.296 477.433, 624.559 468.855 C 623.612 467.439, 621.720 468.894, 611.038 479.244 M 540.071 479.108 C 541.256 482.074, 543.070 486.920, 544.103 489.878 C 546.412 496.492, 571.506 528.404, 573.727 527.551 C 574.484 527.261, 574.848 527.437, 574.535 527.943 C 573.504 529.611, 578.366 532, 582.793 532 L 587.140 532 582.905 524.250 C 570.862 502.211, 556.332 485.421, 540.709 475.490 L 537.917 473.716 540.071 479.108 M 453.042 484.845 C 448.017 489.625, 447.906 491.788, 451.950 506.077 C 458.897 530.620, 463.226 539.320, 471.210 544.785 C 477.440 549.050, 495.950 558.383, 496.697 557.637 C 497.548 556.786, 498.046 557.094, 485 550.400 C 466.761 541.042, 463.271 536.531, 455.997 512.907 C 449.615 492.182, 449.617 488.112, 456.007 484.337 C 457.653 483.364, 459 482.216, 459 481.784 C 459 480.093, 456.907 481.168, 453.042 484.845 M 409 486.496 C 397.286 488.853, 383 495.232, 383 498.104 C 383 498.637, 384.688 497.920, 386.750 496.512 C 391.118 493.530, 406.367 488.418, 413.859 487.424 C 416.711 487.046, 419.286 486.346, 419.581 485.868 C 420.298 484.708, 416.874 484.911, 409 486.496 M 596.500 515.087 C 593.750 515.628, 589.423 516.745, 586.884 517.571 L 582.269 519.071 585.701 525.536 L 589.134 532 606.317 531.985 C 625.525 531.969, 627.566 531.456, 630.155 525.992 C 633.698 518.516, 633.639 518.276, 627.800 516.447 C 621.474 514.466, 603.609 513.690, 596.500 515.087 M 672.017 559.132 L 658.534 570.127 655.207 581.726 C 651.970 593.012, 651.930 593.374, 653.730 595.175 C 655.531 596.975, 655.763 596.875, 662.337 591.452 C 670.421 584.784, 676.638 576.607, 681.982 565.615 C 685.729 557.909, 688.222 547.921, 686.364 548.068 C 685.889 548.106, 679.433 553.084, 672.017 559.132 M 687 558.510 C 687 560.817, 679.414 575.671, 675.576 580.877 C 673.702 583.420, 670.781 586.822, 669.084 588.437 C 667.388 590.052, 666 591.910, 666 592.565 C 666 593.219, 665.352 594.293, 664.559 594.951 C 663.767 595.608, 663.352 596.754, 663.637 597.496 C 663.922 598.239, 663.283 599.313, 662.218 599.883 C 659.365 601.410, 655.671 610.516, 656.941 612.890 C 658.245 615.327, 667.858 623.971, 670.716 625.277 C 673.506 626.552, 678.218 623.195, 684.123 615.726 C 693.187 604.258, 696.575 593.469, 695.653 579 C 695.320 573.775, 694.544 567.700, 693.928 565.500 C 692.321 559.760, 687 554.392, 687 558.510 M 405.700 564.792 C 403.427 570.473, 402.318 577.540, 403.848 576.594 C 404.481 576.202, 405 575.024, 405 573.976 C 405 572.928, 405.703 570, 406.562 567.470 C 408.584 561.515, 407.883 559.336, 405.700 564.792 M 662.872 593.750 C 661.629 595.336, 661.664 595.371, 663.250 594.128 C 664.916 592.821, 665.445 592, 664.622 592 C 664.415 592, 663.627 592.788, 662.872 593.750 M 702 597.935 C 702 598.999, 702.485 601.137, 703.077 602.685 C 706.210 610.872, 701.190 624.767, 691.652 634.305 L 686.408 639.549 689.584 646.524 C 695.059 658.548, 695.047 658.645, 688.628 654.539 C 685.585 652.592, 682.824 651, 682.492 651 C 682.160 651, 679.127 649.630, 675.752 647.956 C 672.377 646.281, 668.690 645.050, 667.558 645.219 C 666.056 645.444, 667.043 646.269, 671.211 648.274 C 674.352 649.786, 679.531 653.193, 682.720 655.847 C 690.103 661.991, 692.044 663, 696.480 663 C 698.980 663, 700.846 662.245, 702.545 660.545 C 704.702 658.389, 705 657.205, 705.004 650.795 C 705.008 642.203, 706.584 638.944, 712.822 634.623 C 716.066 632.375, 717.653 631.881, 720.070 632.364 C 724.611 633.272, 726.716 631.683, 727.490 626.763 C 727.859 624.418, 728.648 621.084, 729.244 619.353 C 730.634 615.315, 728.696 610.215, 725.279 608.916 C 723.954 608.412, 719.412 607.921, 715.185 607.825 C 710.490 607.719, 709.154 607.502, 711.750 607.268 C 714.087 607.057, 716 606.556, 716 606.155 C 716 605.753, 713.847 603.304, 711.216 600.712 C 706.123 595.697, 702 594.454, 702 597.935 M 716.404 612.844 C 716.797 613.480, 717.905 614, 718.868 614 C 719.830 614, 721.491 614.700, 722.559 615.555 C 724.469 617.086, 724.468 617.096, 722.500 616.196 C 719.250 614.710, 713.825 613.908, 714.509 615.015 C 714.844 615.557, 715.879 616.003, 716.809 616.006 C 717.739 616.010, 719.706 616.641, 721.180 617.410 C 723.534 618.639, 723.933 618.616, 724.466 617.227 C 725.287 615.088, 723.181 613.186, 719.081 612.366 C 716.634 611.877, 715.888 612.010, 716.404 612.844 M 505 617.109 C 499.745 620.263, 496.904 623.167, 497.854 624.413 C 499.386 626.423, 503.967 640, 503.113 640 C 502.648 640, 501.014 636.513, 499.481 632.250 C 497.948 627.987, 496.619 624.394, 496.529 624.265 C 496.438 624.136, 494.612 624.923, 492.470 626.015 C 486.983 628.813, 485.400 628.540, 477.530 623.442 C 469.334 618.134, 467.468 617.553, 461.492 618.449 C 455.684 619.320, 451.579 622.852, 449.589 628.692 C 447.362 635.230, 447.546 636.892, 451.443 645.445 C 453.337 649.600, 454.560 653, 454.162 653 C 453.190 653, 446 638.382, 446 636.406 C 446 635.547, 444.517 636.792, 442.705 639.172 L 439.411 643.500 431.306 644 C 425.099 644.383, 422.675 644.968, 420.959 646.500 C 418.195 648.967, 415.051 655.620, 415.022 659.068 C 415.004 661.221, 417.386 671.042, 419.713 678.406 C 420.108 679.658, 419.934 680.077, 419.206 679.627 C 418.596 679.250, 417.091 675.821, 415.863 672.006 L 413.629 665.071 411.486 671.286 C 409.556 676.882, 408.731 677.929, 403.192 681.809 C 397.803 685.586, 396.854 686.753, 395.521 691.241 C 393.452 698.210, 393.724 703.743, 396.605 713.250 C 396.896 714.212, 396.675 715, 396.113 715 C 395.551 715, 394.757 713.313, 394.350 711.250 L 393.608 707.500 392.862 711.500 C 392.451 713.700, 392.367 717.750, 392.676 720.500 C 393.490 727.763, 400.688 745.689, 404.430 749.772 L 407.575 753.204 411.346 751.629 C 416.459 749.493, 421.148 746.048, 420.460 744.935 C 420.150 744.433, 420.522 744.263, 421.288 744.557 C 422.053 744.851, 423.264 744.387, 423.978 743.527 C 425.050 742.235, 425.013 741.661, 423.767 740.231 C 420.974 737.029, 419.967 734.102, 417.585 722.275 C 414.143 705.183, 413.967 704, 414.860 704 C 415.306 704, 416.949 710.141, 418.512 717.647 C 422.321 735.937, 423.698 738.452, 432.500 743.196 C 441.056 747.807, 446.356 748.144, 454.397 744.588 C 459.670 742.256, 459.875 742.018, 460.566 737.406 C 461.215 733.082, 461.046 732.443, 458.760 730.568 C 454.095 726.742, 451.367 718.901, 448.126 700 C 445.708 685.902, 445.007 679, 445.993 679 C 446.404 679, 447.528 684.288, 448.491 690.750 C 451.457 710.662, 456.589 727.990, 459.067 726.458 C 459.608 726.125, 459.926 726.383, 459.775 727.032 C 459.337 728.914, 476.008 738.964, 479.600 738.983 C 481.436 738.993, 484.290 737.848, 486.600 736.175 C 490.917 733.047, 500 723.325, 500 721.832 C 500 721.308, 498.425 718.817, 496.500 716.296 C 492.520 711.084, 492.626 711.860, 492.554 687.500 C 492.524 677.600, 492.094 667.519, 491.598 665.097 C 490.986 662.114, 491.027 660.899, 491.725 661.330 C 493.987 662.728, 495 671.643, 495.004 690.193 C 495.008 712.523, 494.553 711.137, 505.742 722.897 C 512.242 729.729, 513.019 730.246, 515.910 729.668 C 520.842 728.682, 529.194 724.227, 534.311 719.853 C 539.745 715.208, 540.166 712.885, 536.937 705.354 C 535.113 701.097, 534.997 699.837, 535.937 694.439 C 537.970 682.765, 536.958 665.511, 533.132 646.611 C 532.173 641.875, 531.684 638, 532.044 638 C 532.870 638, 537.702 649.488, 538.564 653.500 C 538.919 655.150, 540.326 660.100, 541.692 664.500 C 543.875 671.535, 544.093 673.573, 543.501 681.393 C 543.130 686.284, 542.565 690.970, 542.244 691.807 C 540.818 695.523, 544.322 691.416, 546.083 687.307 C 548.488 681.695, 548.473 679.091, 545.987 671.161 C 544.894 667.674, 544 663.474, 544 661.828 C 544 658.619, 540.604 644.028, 538.956 640.158 C 536.871 635.260, 523.635 617.863, 520.929 616.463 C 516.750 614.302, 509.163 614.610, 505 617.109 M 474.581 627.132 C 474.853 627.571, 473.962 629.633, 472.603 631.715 C 471.243 633.797, 469.363 637.449, 468.424 639.831 C 467.215 642.901, 466.472 643.774, 465.874 642.831 C 465.410 642.099, 465.031 641.950, 465.031 642.500 C 465.031 643.050, 465.434 644.138, 465.928 644.918 C 466.630 646.026, 467.280 645.590, 468.909 642.918 C 470.055 641.038, 470.994 639.100, 470.996 638.611 C 470.998 638.121, 472.350 635.527, 474 632.846 C 477.383 627.347, 477.624 626.333, 475.544 626.333 C 474.743 626.333, 474.310 626.693, 474.581 627.132 M 520.083 632.114 C 517.837 635.477, 516 638.927, 516 639.781 C 516 640.635, 516.176 641.146, 516.391 640.917 C 517.387 639.856, 526 626.924, 526 626.490 C 526 624.591, 523.554 626.916, 520.083 632.114 M 715.573 635.521 C 714.513 636.323, 713.838 637.138, 714.073 637.332 C 714.580 637.750, 758.764 667.421, 866.881 739.948 C 940.878 789.586, 946.420 793.113, 948.583 791.955 L 950.904 790.713 947.202 788.053 C 924.145 771.484, 719.790 633.974, 718.310 634.032 C 717.865 634.049, 716.633 634.720, 715.573 635.521 M 621.500 638.817 C 613.902 642.055, 611.354 643.882, 604.923 650.698 C 597.976 658.063, 592.581 665.903, 595.877 663.844 C 596.860 663.231, 598.150 661.440, 598.745 659.864 C 599.656 657.452, 600.387 657, 603.382 657 C 605.935 657, 606.793 656.624, 606.425 655.666 C 606.125 654.884, 607.624 653.146, 610.051 651.464 C 612.327 649.887, 615.688 646.846, 617.519 644.707 C 620.154 641.628, 621.299 640.960, 623.011 641.504 C 626.318 642.553, 631.852 641.146, 633.023 638.957 C 633.989 637.153, 633.736 637.004, 629.785 637.056 C 627.428 637.087, 623.700 637.879, 621.500 638.817 M 633.573 641.900 C 629.504 647.444, 622.672 653.232, 613.932 658.541 C 608.491 661.847, 607.781 662.773, 599.972 676.762 C 588.790 696.794, 587.412 698.124, 572.898 702.894 L 566.296 705.064 565.694 720.782 C 565.362 729.427, 564.520 738.300, 563.822 740.500 C 563.067 742.879, 560.434 746.635, 557.323 749.769 L 552.092 755.038 555.539 763.092 C 557.435 767.521, 559.695 773.700, 560.562 776.823 C 561.428 779.945, 562.313 783.052, 562.528 783.728 C 562.767 784.477, 567.517 781.736, 574.710 776.700 C 637.409 732.797, 688.067 714.333, 760.475 708.989 C 768.711 708.381, 775.656 707.677, 775.908 707.425 C 776.160 707.173, 775.947 706.592, 775.433 706.134 C 772.737 703.730, 709.244 661.615, 707.710 661.214 C 706.708 660.952, 704.903 661.682, 703.654 662.855 C 701.056 665.296, 696.175 666.512, 692.589 665.612 C 691.222 665.269, 686.818 662.351, 682.802 659.127 C 678.786 655.904, 673.025 652.028, 670 650.515 C 666.975 649.001, 663.905 647.284, 663.178 646.699 C 662.451 646.114, 657.051 643.977, 651.178 641.951 C 645.305 639.924, 639.770 637.955, 638.878 637.575 C 637.690 637.069, 636.270 638.227, 633.573 641.900 M 430.668 654.082 C 428.311 659.514, 426.793 666.362, 427.229 669.600 C 427.579 672.201, 427.709 672.294, 428.487 670.500 C 428.964 669.400, 429.654 668.275, 430.021 668 C 431.075 667.210, 436.042 651.709, 435.436 651.103 C 435.136 650.803, 434.520 651.158, 434.067 651.892 C 433.383 652.999, 433.155 652.994, 432.733 651.863 C 432.422 651.032, 431.616 651.899, 430.668 654.082 M 580.092 681.377 C 579.038 682.656, 578.971 683.371, 579.826 684.226 C 581.339 685.739, 582.240 684.704, 581.831 681.921 C 581.525 679.837, 581.396 679.797, 580.092 681.377 M 405.693 688.500 C 403.354 695.646, 402.388 702.496, 403.848 701.594 C 404.481 701.202, 405 700.103, 405 699.151 C 405 698.199, 405.688 694.778, 406.529 691.548 C 408.471 684.096, 407.862 681.876, 405.693 688.500 M 549.752 685.172 C 549.495 685.902, 550.123 687.698, 551.147 689.161 C 552.172 690.625, 554.128 694.225, 555.495 697.161 C 557.761 702.028, 557.981 703.715, 557.990 716.250 C 557.996 723.813, 557.663 729.998, 557.250 729.996 C 556.837 729.994, 555.670 727.973, 554.654 725.505 C 553.031 721.556, 548.065 715.993, 546.173 716.004 C 545.803 716.006, 544.673 718.019, 543.662 720.478 C 540.957 727.056, 536.461 730.507, 528.129 732.403 C 519.525 734.360, 517.848 734.381, 513.559 732.589 C 510.378 731.260, 510.051 731.317, 507.934 733.570 C 506.699 734.885, 502.097 737.208, 497.709 738.731 C 490.704 741.162, 489.559 741.907, 488.316 744.836 C 486.517 749.078, 487.819 753.494, 492.068 757.566 L 495.091 760.461 493.545 756.763 C 492.695 754.728, 492 751.243, 492 749.017 C 492 745.546, 492.450 744.697, 495.166 743.045 C 496.907 741.986, 500.558 740.586, 503.279 739.933 C 509.222 738.507, 509.962 739.201, 509.985 746.216 C 510.004 752.011, 512.717 758.214, 514.939 757.544 C 515.797 757.285, 523.475 756.186, 532 755.103 C 549.239 752.912, 550.189 752.673, 554.616 749.404 C 560.468 745.082, 562.055 739.697, 562.717 721.919 C 563.220 708.386, 563.055 705.434, 561.583 701.578 C 559.402 695.868, 550.387 683.366, 549.752 685.172 M 526.416 701.867 C 522.691 705.259, 509.309 711, 505.129 711 C 501.915 711, 500.705 711.956, 501.816 713.618 C 502.993 715.379, 516.242 720.156, 518.423 719.607 C 521.919 718.726, 530.061 709.662, 530.968 705.641 C 531.422 703.631, 531.403 702, 530.926 702 C 530.451 702, 530.322 701.325, 530.638 700.500 C 531.517 698.210, 529.834 698.755, 526.416 701.867 M 757 711.699 C 745.496 712.594, 719.298 716.295, 708.004 718.622 C 672.639 725.907, 641.155 738.472, 606.500 759.131 C 589.555 769.232, 565.635 785.670, 562.250 789.540 C 558.458 793.874, 559.249 795.218, 568.250 799.728 C 572.788 802.002, 581.835 806.755, 588.356 810.292 L 600.212 816.722 608.856 810.188 C 643.830 783.750, 682.997 765.373, 727.500 754.521 C 758.822 746.883, 778.077 744.731, 811.058 745.179 L 834.616 745.500 809.090 728.250 L 783.565 711 772.533 711.175 C 766.465 711.271, 759.475 711.507, 757 711.699 M 483 716.003 C 482.175 716.538, 477.337 718.632, 472.250 720.656 C 463.485 724.145, 460.874 726, 464.731 726 C 465.683 726, 468.820 726.978, 471.704 728.173 C 478.429 730.960, 480.984 729.939, 484.464 723.071 C 488.097 715.903, 487.512 713.079, 483 716.003 M 846.550 716.864 C 847.072 717.339, 861.225 726.913, 878 738.139 L 908.500 758.551 923 763.339 C 947.667 771.484, 962.359 779.008, 991 798.161 C 1033.921 826.865, 1055.850 846.742, 1089.569 887.506 C 1111.416 913.917, 1129.706 941.358, 1145.721 971.750 C 1151.900 983.478, 1153.994 986.745, 1152.045 981.618 C 1144.734 962.390, 1121.098 917.791, 1106.187 895.089 C 1092.554 874.334, 1055.489 829.712, 1033.497 807.580 C 1009.447 783.377, 988.951 768.459, 959.983 754.073 C 926.663 737.526, 893.637 725.811, 859.767 718.524 C 846.977 715.773, 845.089 715.535, 846.550 716.864 M 444.248 730.567 C 441.910 731.969, 439.477 732.795, 438.844 732.403 C 438.077 731.930, 437.965 732.135, 438.510 733.015 C 439.109 733.985, 438.868 734.164, 437.612 733.681 C 436.456 733.238, 436.130 733.401, 436.612 734.181 C 437.095 734.962, 436.769 735.125, 435.612 734.681 C 434.668 734.319, 434.139 734.417, 434.437 734.898 C 434.734 735.379, 434.083 736.007, 432.989 736.293 C 430.202 737.022, 430.454 739.166, 433.250 738.511 C 434.488 738.221, 437.286 738.616, 439.470 739.389 C 443.300 740.744, 443.591 740.689, 447.720 737.849 C 452.125 734.818, 452.756 733.280, 450.965 729.934 C 449.648 727.474, 449.365 727.501, 444.248 730.567 M 544.108 729.912 C 542.955 730.642, 543.060 731.283, 544.718 733.647 C 545.818 735.216, 547.493 738.862, 548.440 741.750 C 549.386 744.638, 550.627 747, 551.197 747 C 551.767 747, 551.998 746.100, 551.710 745 C 551.423 743.900, 551.651 743, 552.219 743 C 553.862 743, 552.234 736.951, 549.464 732.766 C 546.825 728.779, 546.321 728.510, 544.108 729.912 M 498.124 744.030 L 493.747 746.015 494.235 751.097 C 494.587 754.761, 495.424 756.878, 497.235 758.689 C 499.674 761.128, 499.907 761.164, 505.373 759.941 C 508.468 759.248, 511 758.352, 511 757.950 C 511 757.548, 510.110 755.257, 509.022 752.859 C 507.934 750.462, 507.034 747.038, 507.022 745.250 C 507.004 742.546, 506.622 742.004, 504.750 742.022 C 503.512 742.034, 500.531 742.938, 498.124 744.030 M 427.634 749.656 C 423.477 752.521, 419.250 753.730, 415.646 753.084 C 414.441 752.868, 410.770 754.103, 411.235 754.568 C 411.447 754.780, 414.918 755.421, 418.949 755.993 C 428.828 757.394, 435.126 756.459, 438.979 753.019 L 442.042 750.284 437.264 748.298 L 432.486 746.313 427.634 749.656 M 423.500 940.992 C 419.100 944.757, 415.360 948.519, 415.190 949.351 C 415.019 950.184, 415.600 952.259, 416.480 953.962 C 418.041 956.980, 418.212 957.041, 423.291 956.395 C 426.156 956.030, 429.272 955.335, 430.216 954.849 C 432.119 953.870, 440 940.935, 440 938.791 C 440 937.284, 434.957 933.958, 432.846 934.073 C 432.106 934.113, 427.900 937.227, 423.500 940.992 M 439.133 947.555 C 436.732 951.705, 434.932 955.242, 435.133 955.416 C 435.335 955.590, 440.158 955.398, 445.850 954.989 C 459.482 954.011, 467.768 954.708, 490.051 958.710 C 492.033 959.066, 492.853 958.618, 493.727 956.700 L 494.851 954.232 482.176 953.553 C 467.124 952.747, 465.043 952.171, 454.307 945.829 C 449.777 943.154, 445.492 940.750, 444.785 940.487 C 443.997 940.195, 441.812 942.926, 439.133 947.555 M 435.500 957.473 C 429.450 958.243, 423.099 959.135, 421.387 959.456 L 418.274 960.039 418.387 968.892 C 418.499 977.657, 418.460 977.803, 414.509 983.546 C 412.314 986.737, 407.234 992.837, 403.221 997.103 L 395.925 1004.859 393.859 1022.680 C 391.489 1043.132, 389.766 1048.332, 383.618 1053.595 C 381.364 1055.525, 370.222 1061.693, 358.858 1067.302 L 338.197 1077.500 336.456 1082 C 326.871 1106.783, 297.248 1168.739, 287.924 1183.502 C 285.444 1187.430, 284 1190.909, 284 1192.957 C 284 1195.213, 283.146 1197.003, 281.191 1198.849 C 278.670 1201.228, 278.466 1201.896, 279.198 1205.359 C 279.858 1208.478, 279.538 1210.301, 277.536 1214.859 C 276.173 1217.962, 273.491 1226.800, 271.576 1234.500 C 269.661 1242.200, 267.407 1250.444, 266.567 1252.819 L 265.040 1257.138 268.270 1255.224 C 270.046 1254.171, 273.075 1252.373, 275 1251.230 C 276.925 1250.086, 282.100 1247.893, 286.500 1246.357 C 293.765 1243.820, 295.740 1243.567, 308 1243.604 C 322.308 1243.646, 340.654 1246.133, 339.572 1247.884 C 339.326 1248.281, 334.485 1247.810, 328.813 1246.838 C 316.188 1244.675, 300.611 1244.532, 292.258 1246.501 C 283.922 1248.467, 274.178 1252.984, 266.583 1258.403 C 260.039 1263.073, 248.487 1274.820, 249.470 1275.804 C 249.787 1276.120, 253.523 1277.385, 257.773 1278.614 C 273.023 1283.024, 283.305 1287.343, 294.093 1293.868 C 305.949 1301.039, 322.953 1313.036, 322.982 1314.250 C 323.020 1315.861, 320.966 1314.823, 315.823 1310.633 C 290.380 1289.908, 258.766 1276.752, 231 1275.335 C 207.187 1274.120, 192.589 1278.971, 165.413 1297.131 C 151.163 1306.653, 145.580 1308.868, 158.167 1300.005 C 162.200 1297.166, 166.175 1294.446, 167 1293.961 C 168.258 1293.222, 167.692 1291.503, 163.500 1283.329 C 151.133 1259.212, 142.071 1249.344, 124.500 1240.863 C 107.368 1232.594, 89.893 1230.295, 68.587 1233.506 C 57.632 1235.157, 56.409 1235.258, 57.225 1234.442 C 58.126 1233.541, 73.714 1231.257, 84 1230.520 C 102.724 1229.177, 123.960 1236.030, 140.250 1248.671 L 146 1253.133 146 1248.192 C 146 1241.725, 146.761 1239.730, 159.873 1211.801 C 169.548 1191.195, 171 1187.428, 171 1182.936 C 171 1179.516, 171.788 1176.205, 173.333 1173.135 C 177.077 1165.697, 178.824 1159.438, 177.712 1157.450 C 176.526 1155.330, 179.093 1130.679, 182.549 1111 C 184.807 1098.145, 191.943 1070.934, 199.595 1046 C 201.536 1039.675, 203.352 1033.713, 203.630 1032.750 C 203.937 1031.685, 203.595 1031, 202.754 1031 C 200.368 1031, 196.242 1025.756, 193.093 1018.723 C 190.442 1012.800, 189.773 1012.006, 187.780 1012.415 C 186.526 1012.673, 182.575 1013.157, 179 1013.492 C 167.589 1014.561, 155.852 1017.881, 145.500 1022.969 C 127.837 1031.649, 118.956 1040.488, 109.959 1058.341 C 107.232 1063.753, 105.004 1068.703, 105.010 1069.341 C 105.016 1070.107, 107.754 1070.566, 113.087 1070.693 C 122.196 1070.912, 137.578 1074.445, 151.783 1079.581 C 160.789 1082.837, 167.124 1085.816, 162.500 1084.620 C 161.400 1084.336, 155.286 1082.276, 148.914 1080.044 C 126.069 1072.040, 107.606 1070.008, 90.208 1073.584 C 75.428 1076.622, 60.038 1084.953, 48.167 1096.343 C 35.916 1108.097, 23.797 1129.181, 19.911 1145.500 C 18.028 1153.408, 17.836 1156.380, 18.327 1170 C 19.123 1192.062, 20.734 1197.847, 30.215 1212.702 L 34.173 1218.905 41.220 1213.536 C 45.096 1210.583, 52.574 1205.780, 57.839 1202.864 C 69.513 1196.397, 89.551 1187.665, 91.255 1188.302 C 92.038 1188.594, 91.757 1189.046, 90.500 1189.517 C 81.059 1193.056, 65.667 1200.241, 57 1205.154 C 37.086 1216.443, 28.681 1224.935, 20.036 1242.500 C 4.686 1273.689, -1.301 1312.040, 5.282 1337 C 10.365 1356.268, 19.183 1371.107, 34.089 1385.477 C 57.128 1407.687, 84.351 1418.050, 119.474 1417.980 C 142.483 1417.935, 158.913 1412.499, 182.807 1397.027 C 187.926 1393.712, 192.564 1391, 193.115 1391 C 193.666 1391, 190.751 1395.388, 186.638 1400.750 C 179.427 1410.152, 167.205 1422.748, 158.149 1430.110 L 153.797 1433.648 157.525 1441.074 C 159.575 1445.158, 163.080 1451.115, 165.314 1454.311 C 175.047 1468.237, 201.474 1482.467, 225.329 1486.627 C 236.303 1488.541, 258.536 1488.005, 269.500 1485.563 C 278.538 1483.550, 290.525 1477.718, 300.088 1470.682 C 306.444 1466.005, 308.184 1464.075, 310.797 1458.799 C 319.118 1442.004, 340.013 1425.578, 359.500 1420.515 C 369.112 1418.017, 382.783 1416.919, 390.068 1418.059 C 402.010 1419.929, 418.080 1426.389, 424.892 1432.059 C 429.456 1435.859, 426.271 1435.004, 419.871 1430.712 C 411.358 1425.004, 396.105 1419.927, 385.500 1419.272 C 375.991 1418.685, 362.043 1420.872, 352.578 1424.435 C 336.819 1430.366, 319.333 1445.432, 312.532 1458.937 C 300.221 1483.384, 300.854 1515.820, 314.080 1538.213 C 329.440 1564.218, 356.914 1586.491, 383.718 1594.670 C 391.987 1597.193, 393.668 1597.349, 412.500 1597.353 C 442.553 1597.360, 460.165 1593.660, 483.493 1582.440 C 496.687 1576.094, 506.734 1569.867, 513.298 1563.966 C 519.002 1558.839, 519.061 1558.731, 516.962 1557.261 C 514.992 1555.881, 514.509 1556.007, 510.664 1558.892 C 500.149 1566.785, 486.652 1575.293, 478.833 1578.957 C 463.205 1586.281, 434.867 1593.024, 419.872 1592.987 C 407.374 1592.956, 388.335 1587.206, 373.500 1578.981 C 366.966 1575.358, 352.463 1564.203, 353.256 1563.410 C 353.452 1563.215, 357.270 1564.853, 361.740 1567.051 C 375.558 1573.846, 395.603 1577.746, 410 1576.442 C 431.150 1574.525, 453.402 1565.110, 466.987 1552.330 C 476.185 1543.677, 485 1532.997, 485 1530.504 C 485 1529.373, 487.709 1531.340, 492.992 1536.310 C 515.735 1557.706, 527.268 1562.644, 557 1563.719 C 582.495 1564.641, 604.239 1560.044, 625.343 1549.269 C 659.234 1531.967, 683.348 1501.830, 691.647 1466.402 C 693.054 1460.395, 693.498 1454.543, 693.499 1442 C 693.500 1427.533, 693.214 1424.591, 691.182 1418.121 C 687.271 1405.671, 678.917 1389.256, 668.600 1373.750 C 667.518 1372.125, 667.231 1371, 667.897 1371 C 668.517 1371, 670.660 1373.588, 672.659 1376.750 C 674.657 1379.912, 676.430 1382.666, 676.599 1382.869 C 677.294 1383.707, 691.333 1379.603, 697.096 1376.877 C 704.580 1373.338, 717.161 1361.198, 721.841 1353 C 725.671 1346.291, 725.835 1347.540, 722.391 1357.190 C 716.230 1374.456, 708.487 1385.480, 695.857 1394.967 C 691.261 1398.420, 687.381 1401.546, 687.237 1401.913 C 687.092 1402.280, 687.579 1403.410, 688.320 1404.423 C 689.577 1406.142, 690.298 1405.736, 699.042 1398.383 C 704.198 1394.047, 710.460 1387.957, 712.958 1384.850 C 733.346 1359.486, 740.343 1328.309, 732.564 1297.500 C 726.420 1273.173, 711.715 1253.796, 686.846 1237.259 C 683.081 1234.755, 680 1232.285, 680 1231.770 C 680 1231.255, 680.441 1230.983, 680.979 1231.167 C 683.721 1232.100, 701.139 1245.253, 707.502 1251.196 L 714.773 1257.985 721.807 1251.473 C 725.781 1247.793, 729.795 1242.989, 731.035 1240.428 C 732.242 1237.935, 733.410 1236.077, 733.632 1236.299 C 735.040 1237.706, 729.464 1256.250, 725.004 1264.992 C 722.427 1270.043, 723.364 1273.469, 726.188 1269.320 C 729.285 1264.769, 735.565 1251.947, 737.610 1246 C 740.297 1238.180, 740.322 1207.614, 737.648 1198.058 C 730.708 1173.252, 711.197 1151.156, 684.287 1137.625 C 664.848 1127.851, 630.219 1123.689, 607.500 1128.397 C 602.550 1129.422, 598.123 1130.479, 597.661 1130.745 C 597.200 1131.010, 599.214 1132.594, 602.137 1134.263 C 610.069 1138.793, 621.800 1151.187, 626.349 1159.845 C 628.460 1163.861, 629.961 1167.372, 629.686 1167.647 C 629.411 1167.922, 627.468 1164.851, 625.368 1160.824 C 620.257 1151.022, 608.114 1138.812, 598.500 1133.807 C 588.574 1128.640, 576.803 1125.801, 562.974 1125.238 C 548.619 1124.654, 542.426 1126.078, 528.030 1133.270 C 515.144 1139.707, 516 1139.355, 516 1138.223 C 516 1137.703, 518.813 1135.799, 522.250 1133.990 C 525.688 1132.181, 528.654 1130.576, 528.843 1130.424 C 529.032 1130.272, 527.483 1126.906, 525.401 1122.944 C 515.720 1104.520, 501.029 1096.039, 478.750 1096.012 C 472.925 1096.005, 469 1095.597, 469 1095 C 469 1094.403, 472.926 1093.994, 478.750 1093.985 L 488.500 1093.971 490.884 1087.735 C 492.196 1084.306, 495.169 1078.547, 497.493 1074.938 C 500.155 1070.801, 501.980 1066.617, 502.430 1063.617 C 503.052 1059.474, 503.711 1058.458, 507.522 1055.771 C 511.376 1053.055, 512.155 1051.834, 514.017 1045.592 C 515.233 1041.517, 519.300 1033.079, 523.577 1025.757 L 531.021 1013.013 524.391 1003.303 C 517.840 993.708, 517.769 993.531, 518.314 988.242 C 518.618 985.299, 519.835 981.250, 521.018 979.244 C 523.597 974.874, 523.658 974.943, 511.881 968.972 C 490.904 958.337, 462.418 954.048, 435.500 957.473 M 496.651 957.468 C 495.977 959.225, 495.737 959.070, 504.500 962.548 C 508.350 964.076, 514.320 966.873, 517.766 968.764 C 523.413 971.861, 528.073 972.546, 526.531 970.051 C 525.927 969.073, 499.350 956, 497.967 956 C 497.553 956, 496.960 956.661, 496.651 957.468 M 168.751 990.843 C 163.389 995.605, 157.840 1001.075, 156.420 1003 C 153.809 1006.539, 146.642 1020, 147.368 1020 C 147.585 1020, 150.628 1018.932, 154.131 1017.627 C 160.350 1015.311, 172.747 1012.787, 184.209 1011.505 L 189.918 1010.866 187.836 1005.683 C 186.691 1002.832, 184.415 996.675, 182.778 992 C 181.142 987.325, 179.510 983.205, 179.152 982.843 C 178.793 982.482, 174.113 986.082, 168.751 990.843 M 216.224 1034.962 C 219.994 1037.927, 235.278 1047.277, 234.807 1046.329 C 233.695 1044.095, 230.665 1037.244, 229.906 1035.250 C 229.121 1033.187, 228.413 1033, 221.390 1033 L 213.730 1033 216.224 1034.962 M 593.210 1078.557 L 576.919 1095.110 582.165 1102.305 C 585.050 1106.262, 589.752 1113.775, 592.614 1119 C 595.475 1124.225, 598.420 1128.439, 599.158 1128.364 C 599.896 1128.288, 604.775 1127.464, 610 1126.531 C 636.403 1121.819, 668.977 1126.978, 690.327 1139.253 C 694.082 1141.412, 697.280 1143.026, 697.433 1142.839 C 698.418 1141.636, 701.136 1131.697, 701.630 1127.489 C 703.364 1112.738, 685.484 1085.826, 668.130 1077.066 C 649.908 1067.867, 629.997 1062.002, 617 1062.004 L 609.500 1062.005 593.210 1078.557 M 255.070 1084.316 C 250.911 1095.255, 222.852 1180.186, 223.262 1180.595 C 223.836 1181.169, 234 1183.983, 234 1183.568 C 234 1183.429, 241.650 1162.011, 251 1135.971 C 260.350 1109.931, 268 1088.353, 268 1088.021 C 268 1087.454, 257.541 1082, 256.453 1082 C 256.177 1082, 255.554 1083.042, 255.070 1084.316 M 529.393 1127.582 C 529.727 1128.452, 530 1129.338, 530 1129.550 C 530 1129.763, 530.686 1129.674, 531.526 1129.352 C 532.702 1128.900, 532.788 1128.450, 531.903 1127.383 C 530.339 1125.499, 528.645 1125.633, 529.393 1127.582 M 214.993 1198.013 C 213.550 1200.709, 213.982 1201.102, 221.419 1203.863 C 227.625 1206.168, 227.947 1206.091, 229.725 1201.890 C 230.807 1199.333, 230.724 1199.256, 225.665 1198.118 C 222.824 1197.479, 219.526 1196.699, 218.336 1196.384 C 216.769 1195.969, 215.846 1196.419, 214.993 1198.013 M 211.714 1210.750 L 209.202 1217.500 212.872 1218.620 C 222.781 1221.645, 222.411 1221.754, 225.380 1214.910 C 226.854 1211.510, 227.824 1208.490, 227.534 1208.200 C 226.786 1207.452, 216.814 1204, 215.402 1204 C 214.756 1204, 213.096 1207.037, 211.714 1210.750 M 214.813 1221.683 C 215.534 1221.972, 216.397 1221.936, 216.729 1221.604 C 217.061 1221.272, 216.471 1221.036, 215.417 1221.079 C 214.252 1221.127, 214.015 1221.364, 214.813 1221.683 M 204.976 1226.750 C 197.469 1243.593, 182.491 1282.824, 183.271 1283.604 C 183.459 1283.792, 187.188 1282.439, 191.557 1280.596 C 195.926 1278.753, 200.176 1277.022, 201.003 1276.749 C 201.852 1276.468, 203.750 1272.392, 205.367 1267.376 C 207.561 1260.570, 216.360 1236.981, 220.658 1226.385 C 221.010 1225.516, 210.533 1222, 207.591 1222 C 207.318 1222, 206.141 1224.138, 204.976 1226.750 M 149.035 1242 C 146.760 1250.157, 148.095 1255.382, 155.170 1266.009 C 158.651 1271.240, 163.300 1279.115, 165.500 1283.509 C 167.700 1287.904, 169.589 1291.664, 169.697 1291.864 C 169.806 1292.064, 171.506 1291.232, 173.476 1290.015 L 177.057 1287.802 172.502 1283.793 C 163.480 1275.851, 153.879 1258.178, 151.668 1245.442 L 150.289 1237.500 149.035 1242 M 117.295 1432.750 C 118.044 1448.762, 120.419 1458.092, 127.012 1470.929 C 135.928 1488.286, 147.935 1502.172, 162.565 1512.044 C 179.445 1523.435, 208.227 1535.038, 227.926 1538.394 C 238.769 1540.241, 262.183 1540.529, 275.026 1538.973 C 284.178 1537.865, 303.845 1532.574, 306.727 1530.445 C 307.974 1529.523, 308.187 1528.817, 307.446 1528.063 C 306.697 1527.302, 304.905 1527.433, 301.258 1528.516 C 282.470 1534.095, 263.145 1536.297, 244.594 1534.971 C 228.413 1533.815, 219.449 1532.100, 204.500 1527.302 C 163.489 1514.140, 141.175 1493.751, 126.040 1455.609 C 122.956 1447.837, 120.017 1432.566, 120.006 1424.250 C 120.001 1420.969, 119.624 1420, 118.349 1420 C 116.869 1420, 116.760 1421.324, 117.295 1432.750" stroke="none" fill="black" fill-rule="evenodd"/>
</svg>