<svg xmlns="http://www.w3.org/2000/svg" width="228" height="259" viewBox="0 0 228 259" version="1.1">
	<path d="M 0 129.504 L 0 259.008 114.250 258.754 L 228.500 258.500 228.754 129.250 L 229.008 0 114.504 0 L 0 0 0 129.504 M 0.485 130 C 0.485 201.225, 0.604 230.362, 0.750 194.750 C 0.895 159.137, 0.895 100.862, 0.750 65.250 C 0.604 29.637, 0.485 58.775, 0.485 130 M 66.767 15.250 C 62.451 20.928, 60.933 24.876, 60.413 31.778 C 60.134 35.475, 59.660 40.514, 59.358 42.976 L 58.810 47.452 57.486 44.305 C 56.758 42.574, 55.158 40.620, 53.930 39.962 C 51.929 38.891, 51.779 38.961, 52.488 40.634 C 56.216 49.426, 56.446 50.779, 55.215 56.736 C 53.079 67.077, 53.555 70.770, 58 78.377 C 60.200 82.142, 62 85.354, 62 85.516 C 62 86.775, 52.446 91, 49.598 91 C 46.669 91, 45.781 90.478, 44.500 88 C 43.647 86.350, 42.547 85, 42.056 85 C 41.565 85, 40.351 84.688, 39.357 84.307 C 37.811 83.713, 37.871 84.021, 39.775 86.442 C 43.673 91.396, 42.812 94.765, 35.922 101.531 C 30.004 107.343, 29.858 107.612, 30.403 111.750 C 30.907 115.580, 30.754 116, 28.858 116 C 27.102 116, 26.961 116.248, 28 117.500 C 29.608 119.437, 32.393 119.397, 37.727 117.360 C 41.417 115.951, 43.352 115.872, 51.505 116.798 C 56.721 117.391, 61.468 118.171, 62.052 118.532 C 62.680 118.920, 61.557 120.565, 59.307 122.553 C 54.779 126.554, 54.011 126.726, 53.967 123.750 L 53.933 121.500 51.967 123.861 C 49.106 127.294, 49.540 130.162, 53.500 134 C 57.713 138.083, 57.888 140.273, 54.269 143.627 C 52.137 145.603, 50.879 146.026, 48.532 145.556 C 43.819 144.614, 42.658 142.898, 43.839 138.620 C 44.991 134.447, 43.748 134.653, 41.496 139.007 C 40.389 141.149, 40.262 142.560, 41.003 144.509 C 43.039 149.863, 42.251 152.188, 36.397 158.104 C 30.923 163.635, 30.774 163.936, 29.941 171.133 C 29.472 175.185, 29.068 178.838, 29.044 179.250 C 28.939 181.045, 27.161 179.777, 26.589 177.500 C 25.702 173.963, 23.926 174.379, 24.641 177.956 C 24.992 179.712, 24.505 182.934, 23.441 185.893 C 21.486 191.330, 22.350 194, 26.063 194 C 28.823 194, 29.154 195.348, 28.080 202.207 C 27.539 205.668, 26.583 213.323, 25.957 219.218 C 24.954 228.657, 25.022 230.551, 26.530 235.091 C 28.151 239.969, 28.149 240.555, 26.495 246.015 C 25.535 249.188, 25.057 252.283, 25.433 252.892 C 26.404 254.462, 65.173 254.427, 66.746 252.854 C 67.395 252.205, 67.637 250.437, 67.305 248.776 L 66.719 245.843 71.109 248.865 C 77.228 253.075, 86.622 253.995, 123.500 253.993 L 153.500 253.991 159.641 248.512 C 164.899 243.822, 165.960 243.247, 167.016 244.519 C 167.718 245.365, 168.003 247.233, 167.679 248.857 C 167.362 250.442, 167.617 252.217, 168.254 252.854 C 169.932 254.532, 201.401 254.437, 202.769 252.750 C 204.809 250.236, 206.158 240.533, 204.901 237.413 C 203.513 233.967, 202.115 219.479, 201.461 201.776 L 200.992 189.051 203.746 187.299 C 205.261 186.335, 206.831 185.086, 207.235 184.523 C 208.607 182.612, 208 177.512, 206.011 174.250 C 203.635 170.354, 202.678 170.024, 204.025 173.565 C 205.357 177.070, 205.253 178, 203.526 178 C 201.922 178, 199 173.115, 199 170.434 C 199 169.518, 199.744 166.673, 200.654 164.112 C 203.052 157.360, 201.926 152.874, 196.464 147.412 C 194.038 144.985, 191.478 143.014, 190.776 143.032 C 189.896 143.054, 189.988 143.441, 191.075 144.282 C 191.941 144.952, 193.481 146.776, 194.496 148.335 C 196.057 150.734, 196.123 151.309, 194.921 152.070 C 192.685 153.485, 191.369 153.181, 188.206 150.520 C 181.860 145.180, 181.608 138.155, 187.515 131.254 C 191.288 126.845, 191.888 123.493, 189.448 120.441 C 187.928 118.540, 187.908 118.543, 188.471 120.609 C 189.247 123.458, 188.148 126, 186.140 126 C 185.234 126, 183.225 124.656, 181.675 123.014 C 178.448 119.595, 178.654 117.753, 182.815 112.808 C 186.319 108.644, 200.703 98.002, 202.837 97.994 C 203.751 97.991, 206.223 97.510, 208.330 96.925 C 213.311 95.542, 215.592 90.856, 214.029 85.213 C 212.583 79.994, 211.452 78.378, 210.671 80.416 C 209.259 84.094, 198.638 80.929, 196.029 76.054 C 194.582 73.351, 196.220 70.234, 199.522 69.405 C 202.948 68.545, 201.601 67, 197.426 67 C 195.391 67, 191.655 68.307, 188.338 70.178 L 182.707 73.356 180.853 71.067 C 179.834 69.808, 178.961 67.591, 178.914 66.139 C 178.867 64.688, 178.755 58.100, 178.664 51.500 C 178.506 39.921, 178.382 39.283, 175.140 33.306 C 173.293 29.899, 170.961 26.370, 169.960 25.464 C 168.249 23.915, 168.172 23.943, 168.688 25.913 C 169.277 28.168, 167.524 31, 165.538 31 C 164.101 31, 162 26.767, 162 23.873 C 162 21.459, 159.973 21.719, 148 25.671 C 138.137 28.927, 130.993 33.103, 124.955 39.141 C 120.241 43.855, 119.931 44.001, 117.715 42.549 C 116.441 41.714, 114.314 39.562, 112.987 37.766 C 109.682 33.291, 102.900 26, 102.043 26 C 101.657 26, 101.377 27.012, 101.421 28.250 C 101.563 32.283, 97.520 31.683, 92.863 26.980 C 90.597 24.691, 86.739 21.960, 84.289 20.909 C 78.843 18.575, 79.075 18.571, 79.707 20.988 C 80.323 23.344, 78.103 24.494, 74.624 23.621 C 71.841 22.922, 69.547 18.150, 70.243 14.508 C 70.893 11.107, 69.727 11.356, 66.767 15.250 M 71 28.674 C 71 28.937, 72.745 32.155, 74.878 35.826 C 79.689 44.105, 84.496 53.693, 85.494 57 L 86.248 59.500 83.533 57 C 79.730 53.498, 74.459 46.147, 69.456 37.368 C 67.110 33.251, 64.951 30.270, 64.659 30.743 C 63.734 32.239, 61.137 53.075, 60.497 64.140 C 59.818 75.874, 60.558 78.964, 65.437 84.750 L 68.178 88 65.785 88 C 61.960 88, 54.266 93.533, 44.536 103.279 L 35.500 112.331 48 113.593 C 55.179 114.318, 62.308 115.631, 64.747 116.678 L 68.994 118.500 63.497 122.745 C 60.474 125.079, 58 127.384, 58 127.867 C 58 128.349, 64.249 128.943, 71.886 129.187 C 84.775 129.598, 85.985 129.805, 88.752 132.065 C 90.391 133.404, 92.548 134.979, 93.545 135.564 C 95.149 136.506, 94.816 136.932, 90.669 139.250 C 87.103 141.243, 85.132 141.733, 82.446 141.297 C 79.557 140.829, 78.128 141.287, 74.613 143.812 C 72.248 145.510, 69.455 146.839, 68.407 146.766 C 67.358 146.692, 64.596 147.840, 62.270 149.316 C 59.943 150.792, 57.468 152.003, 56.770 152.006 C 47.155 152.048, 34.270 165.032, 32.008 176.957 C 31.455 179.873, 30.070 183.768, 28.931 185.612 C 26.836 189.001, 27.024 191, 29.437 191 C 32.344 191, 32.964 193.453, 31.473 199.055 C 30.676 202.050, 30.021 206.525, 30.018 209 C 30.016 211.475, 29.485 216.973, 28.839 221.218 C 27.809 227.983, 27.885 229.668, 29.460 234.868 C 31.141 240.419, 31.151 241.107, 29.628 245.578 C 28.733 248.206, 28 250.501, 28 250.678 C 28 250.855, 36.289 251, 46.419 251 L 64.839 251 63.876 247.515 C 62.741 243.404, 64.520 238.391, 66.107 241.227 C 66.583 242.078, 69.162 244.179, 71.838 245.896 C 78.596 250.233, 85.528 250.932, 122.105 250.969 L 152.711 251 159.211 245.044 L 165.710 239.088 168.478 241.978 C 170.609 244.202, 171.143 245.573, 170.796 247.933 L 170.346 251 185.573 251 L 200.801 251 201.992 246.034 C 202.974 241.939, 202.919 240.228, 201.675 236.284 C 199.994 230.951, 199.050 220.148, 198.503 200 C 198.115 185.665, 195.984 172.085, 193.091 165.500 C 192.124 163.300, 189.600 159.978, 187.482 158.118 C 183.410 154.543, 174.666 150.026, 171.785 150.010 C 170.841 150.004, 168.441 148.570, 166.451 146.823 C 164.461 145.075, 161.753 143.598, 160.434 143.541 C 159.115 143.483, 157.541 142.941, 156.936 142.336 C 156.158 141.558, 155.031 141.539, 153.087 142.273 C 150.783 143.143, 149.826 142.932, 147.170 140.967 C 140.284 135.876, 141.703 135.119, 177 125.048 L 179.500 124.335 176.157 122.594 L 172.814 120.853 179.203 114.176 C 182.717 110.504, 187.735 104.688, 190.354 101.250 C 194.169 96.244, 194.757 94.987, 193.308 94.936 C 191.348 94.867, 193.644 93.616, 202.500 89.929 L 207.500 87.848 192.500 82.962 C 184.250 80.275, 176.713 78.059, 175.750 78.038 C 174.264 78.006, 174 77.005, 174 71.407 C 174 64.323, 170.789 46.787, 168.551 41.643 L 167.182 38.500 165.915 41.636 L 164.647 44.773 162.574 41.713 C 159.782 37.594, 158.200 37.274, 157.461 40.679 C 156.017 47.327, 151.364 59.533, 147.530 66.731 C 141.285 78.455, 137.318 77.652, 140.370 65.282 C 142.594 56.271, 145.695 49.919, 152.404 40.628 C 155.530 36.298, 157.924 32.590, 157.722 32.389 C 156.892 31.559, 138.367 38.503, 129.361 43.019 L 119.683 47.874 115.591 44.555 C 107.841 38.269, 96.776 33.806, 79.750 30.102 C 74.938 29.055, 71 28.412, 71 28.674 M 85.243 39.801 C 90.063 44.759, 95 51.587, 95 53.295 C 95 53.853, 94.081 53.478, 92.957 52.461 C 91.244 50.911, 91.015 50.877, 91.543 52.252 C 91.889 53.154, 92.721 57.179, 93.392 61.196 L 94.611 68.500 99.556 71.320 C 103.609 73.631, 103.959 74.027, 101.500 73.515 C 96.726 72.522, 86.916 67.626, 81.741 63.653 C 79.124 61.644, 76.804 60, 76.585 60 C 76.366 60, 76.408 61.013, 76.677 62.250 C 77.664 66.781, 71.324 58.498, 69.497 52.868 C 68.538 49.916, 67.419 47.132, 67.008 46.681 C 66.598 46.231, 65.938 52.588, 65.542 60.808 C 64.937 73.363, 65.070 76.234, 66.375 78.758 C 68.583 83.028, 73.099 86.519, 79.522 88.922 C 86.211 91.425, 85.882 91.407, 85.568 89.250 C 85.428 88.287, 82.093 85.062, 78.157 82.083 C 74.222 79.103, 71.160 76.506, 71.354 76.312 C 72.131 75.535, 87.443 73, 91.338 73.004 C 96.217 73.008, 99.297 74.728, 109.928 83.381 L 117.649 89.665 114.836 91.279 C 111.311 93.303, 106.384 100.970, 104.470 107.413 C 102.989 112.400, 103.197 114.412, 106.166 123.849 L 107.220 127.198 112.115 117.255 C 115.243 110.902, 118.453 105.977, 121.005 103.616 C 123.202 101.583, 125 99.248, 125 98.428 C 125 96.038, 121.916 95.518, 118.582 97.346 L 115.500 99.035 118.306 96.517 C 119.849 95.133, 121.677 94, 122.368 94 C 125.077 94, 132.144 98.213, 132.932 100.297 C 134.105 103.398, 133.016 104.667, 131.611 101.838 C 130.105 98.804, 126.444 98.195, 125.747 100.861 C 125.397 102.197, 125.815 102.980, 127.050 103.303 C 129.645 103.981, 130.507 110.022, 129.207 118.420 C 128.608 122.287, 128.229 125.563, 128.365 125.698 C 129.150 126.484, 136.369 119.197, 138.029 115.943 C 140.440 111.217, 140.667 101.583, 138.494 96.218 L 136.988 92.500 138.898 94.948 C 139.948 96.295, 141.095 99.192, 141.446 101.387 C 142.058 105.217, 141.453 116.774, 140.367 122 L 139.847 124.500 143.047 121.500 C 144.807 119.850, 146.866 117.052, 147.623 115.282 C 149.226 111.536, 149.425 104.248, 148.025 100.565 C 147.488 99.154, 147.286 98, 147.576 98 C 148.541 98, 151 104.899, 151 107.608 C 151 109.077, 151.641 110.779, 152.424 111.390 C 153.643 112.340, 153.517 113.628, 151.555 120.325 L 149.263 128.151 151.381 127.552 C 152.547 127.222, 155.750 126.280, 158.500 125.458 L 163.500 123.962 158.500 124.474 C 152.616 125.077, 153.826 123.894, 161.616 121.429 C 165.760 120.118, 168.327 118.186, 175.116 111.268 C 179.727 106.570, 182.600 103.048, 181.500 103.443 C 180.400 103.837, 176.800 104.623, 173.500 105.188 C 170.200 105.753, 165.552 107.332, 163.171 108.696 C 160.791 110.060, 158.648 110.982, 158.410 110.744 C 158.172 110.506, 160.455 107.968, 163.483 105.105 C 167.313 101.482, 172.413 98.243, 180.244 94.458 C 186.435 91.466, 192.175 88.993, 193 88.962 C 195.690 88.862, 184.687 85.036, 177 83.399 C 169.711 81.847, 169.338 81.864, 163.734 83.979 C 157.048 86.503, 152 90.387, 152 93.007 C 152 95.540, 150.962 98, 149.893 98 C 149.402 98, 149 96.395, 149 94.434 C 149 88.839, 144.687 82.486, 138.800 79.411 C 135.191 77.526, 135.194 77.525, 134.119 81.250 C 132.464 86.982, 132.810 73.433, 134.501 66.258 C 136.112 59.425, 140.717 48.610, 143.947 44.075 C 145.076 42.489, 146 40.903, 146 40.552 C 146 39.014, 125.844 50.410, 124.012 52.984 C 122.914 54.524, 120.602 59.546, 118.874 64.143 C 115.401 73.378, 113.338 76.636, 114.527 71.008 C 114.933 69.088, 115.392 65.713, 115.548 63.508 C 115.703 61.304, 116.311 58.255, 116.897 56.733 C 117.856 54.246, 117.594 53.557, 114.315 49.927 C 108.339 43.312, 101.174 39.797, 87.088 36.571 L 80.675 35.102 85.243 39.801 M 158.987 48.750 C 158.962 51.995, 153.168 67.211, 150.043 72.238 C 147.528 76.284, 147.173 77.503, 148.163 78.696 C 148.834 79.505, 149.448 81.045, 149.527 82.119 C 149.796 85.771, 151.417 86.081, 155.537 83.268 C 157.717 81.780, 160.085 80.472, 160.800 80.362 C 162.809 80.053, 164.980 77.940, 166.696 74.622 C 167.889 72.315, 168.116 69.901, 167.655 64.446 C 166.729 53.494, 166.109 52.817, 163.238 59.625 C 160.461 66.212, 156.469 72.331, 152.606 75.924 C 149.350 78.953, 149.244 77.875, 152.386 73.683 C 157.173 67.296, 159.303 61.705, 159.790 54.250 C 160.050 50.263, 159.979 47, 159.632 47 C 159.284 47, 158.994 47.788, 158.987 48.750 M 86.500 75.500 C 85.950 75.689, 83.364 76.130, 80.753 76.482 L 76.006 77.122 80.753 80.681 C 87.287 85.580, 92.409 90.578, 97.061 96.592 C 101.731 102.630, 102.191 104.515, 98.019 100.518 L 95.037 97.662 92.922 102.443 C 90.544 107.820, 90.809 112.651, 93.858 119.491 L 95.637 123.481 96.782 120.197 C 97.411 118.390, 98.781 115.694, 99.825 114.206 C 100.868 112.718, 102.285 109.700, 102.973 107.500 C 103.661 105.300, 105.301 101.525, 106.619 99.111 C 108.519 95.629, 108.768 94.425, 107.822 93.285 C 106.892 92.165, 106.914 91.671, 107.921 91.049 C 108.831 90.486, 108.886 90.048, 108.107 89.566 C 106.344 88.477, 106.826 87.009, 108.750 87.606 C 110.865 88.262, 101.724 79.563, 97.500 76.899 C 94.847 75.226, 89.344 74.527, 86.500 75.500 M 60.245 95.750 C 56.713 98.145, 46 107.615, 46 108.343 C 46 108.487, 48.587 108.311, 51.750 107.952 C 54.913 107.593, 59.188 107.516, 61.250 107.781 C 64.961 108.258, 66.164 109.445, 63.752 110.249 C 63.066 110.478, 64.463 110.978, 66.857 111.361 C 69.251 111.744, 72.625 112.771, 74.355 113.643 C 78.051 115.506, 83 119.939, 83 121.387 C 83 121.967, 82.487 121.887, 81.800 121.200 C 80.150 119.550, 77.102 119.763, 73.301 121.792 L 70.102 123.500 76.801 123.565 C 80.485 123.601, 84.513 124.180, 85.750 124.851 C 88.412 126.294, 88.396 126.372, 86.548 121.137 C 84.929 116.547, 86.051 111, 88.598 111 C 89.549 111, 90.004 109.794, 90.014 107.250 C 90.021 105.188, 90.286 102.536, 90.602 101.357 C 91.113 99.454, 90.274 98.865, 83.121 96.107 C 72.495 92.009, 65.914 91.906, 60.245 95.750 M 150.540 114.125 C 150.984 115.526, 150.847 116.023, 150.136 115.584 C 149.515 115.200, 148.789 115.994, 148.421 117.459 C 148.070 118.857, 147.382 120, 146.892 120 C 146.401 120, 146 120.675, 146 121.500 C 146 122.325, 145.377 123, 144.617 123 C 143.856 123, 142.993 123.918, 142.700 125.041 C 142.258 126.730, 142.518 126.970, 144.208 126.434 C 145.570 126.002, 146.023 126.155, 145.566 126.893 C 145.190 127.502, 144.260 128, 143.500 128 C 141.774 128, 140.676 129.667, 141.511 131.018 C 141.899 131.645, 143.257 131.241, 145.046 129.967 C 148.957 127.182, 153.932 112, 150.933 112 C 150.299 112, 150.140 112.864, 150.540 114.125 M 87.467 115.105 C 86.734 117.414, 88.450 124.601, 90.318 127.046 C 91.956 129.189, 96.178 132, 97.758 132 C 98.760 132, 98.818 131.528, 98 130 C 97.411 128.900, 96.094 128, 95.072 128 C 94.050 128, 92.941 127.288, 92.607 126.418 C 91.668 123.972, 91.872 123.649, 93.500 125 C 95.604 126.746, 95.301 125.232, 92.500 120 C 90.927 117.063, 90.075 116.177, 90.045 117.450 C 90.010 118.967, 89.733 119.133, 88.800 118.200 C 87.867 117.267, 87.867 116.733, 88.800 115.800 C 90.232 114.368, 90.363 113, 89.067 113 C 88.554 113, 87.834 113.947, 87.467 115.105 M 115.582 115.909 C 113.991 117.668, 113.979 118.058, 115.427 120.859 C 117.372 124.620, 117.421 126.140, 115.516 123.625 C 114.605 122.421, 113.473 121.988, 112.357 122.417 C 110.863 122.990, 111.142 123.607, 114.337 126.792 C 117.201 129.647, 118.252 130.188, 118.903 129.143 C 119.495 128.195, 119.957 128.121, 120.436 128.896 C 121.533 130.671, 124.653 128.435, 125.843 125.021 C 126.826 122.200, 125.877 120.771, 124.500 123 C 124.160 123.550, 123.389 124, 122.786 124 C 122.183 124, 122.435 123.177, 123.345 122.171 C 124.971 120.374, 125.592 115.926, 124.385 114.719 C 124.047 114.381, 122.697 114.807, 121.385 115.667 C 119.211 117.092, 119 117.087, 119 115.615 C 119 113.463, 117.695 113.575, 115.582 115.909 M 99.032 126.701 C 99.014 127.911, 99.485 131.164, 100.078 133.928 C 100.969 138.081, 102.056 139.768, 106.328 143.627 C 117.402 153.632, 120.167 154.071, 129.117 147.250 C 134.418 143.210, 135.689 141.603, 137.623 136.500 C 138.874 133.200, 139.920 129.380, 139.948 128.010 L 140 125.520 137.460 128.260 C 135.682 130.177, 133.805 131.059, 131.210 131.196 C 113.673 132.124, 102 131.471, 102 129.562 C 102 128.913, 101.339 127.509, 100.532 126.441 C 99.097 124.544, 99.063 124.550, 99.032 126.701 M 132.228 126.686 C 128.209 128.633, 128.087 130, 131.933 130 C 134.022 130, 135.055 129.404, 135.524 127.925 C 136.432 125.064, 135.951 124.883, 132.228 126.686 M 103.015 126.750 C 103.058 128.820, 105.013 130.149, 107.615 129.876 C 109.202 129.710, 111.093 129.940, 111.817 130.387 C 112.541 130.834, 113.403 130.930, 113.733 130.600 C 114.760 129.573, 113.178 128.720, 110.038 128.608 C 108.382 128.548, 106.810 127.938, 106.545 127.250 C 106.031 125.918, 102.990 125.487, 103.015 126.750 M 126.250 128.662 C 124.509 129.365, 124.684 131, 126.500 131 C 127.325 131, 128 130.325, 128 129.500 C 128 128.675, 127.888 128.036, 127.750 128.079 C 127.612 128.122, 126.938 128.385, 126.250 128.662 M 113 134 C 114.939 135.253, 116 135.253, 116 134 C 116 133.450, 114.987 133.007, 113.750 133.015 C 111.931 133.028, 111.787 133.216, 113 134 M 123.039 134.547 C 123.746 135.398, 124.593 135.736, 124.923 135.297 C 125.253 134.859, 125.931 134.162, 126.428 133.750 C 126.926 133.338, 126.078 133, 124.544 133 C 122.140 133, 121.933 133.214, 123.039 134.547 M 137.753 140.163 C 136.970 142.954, 128.728 150.161, 123.356 152.753 C 118.864 154.920, 116.546 153.948, 107.250 146.001 L 99 138.949 98.884 147.224 C 98.820 151.776, 98.562 154.713, 98.311 153.750 C 97.750 151.606, 97.666 151.604, 93.700 153.655 C 90.805 155.151, 90.628 155.155, 91.840 153.693 C 92.577 152.805, 94.040 151.805, 95.090 151.471 C 96.631 150.982, 97 149.909, 97 145.912 L 97 140.959 93.197 142.899 C 91.105 143.967, 88.025 146.240, 86.351 147.952 C 83.471 150.898, 83.352 151.336, 84.114 156.158 C 84.557 158.960, 85.050 161.380, 85.210 161.535 C 85.912 162.218, 98.900 160.648, 98.459 159.933 C 98.188 159.495, 99.324 159.814, 100.983 160.642 C 105.363 162.826, 107.544 162.073, 107.301 158.461 L 107.102 155.500 108.443 157.950 C 109.181 159.297, 109.582 160.925, 109.335 161.568 C 109.089 162.211, 109.925 163.015, 111.193 163.355 C 114.928 164.355, 115.129 164.150, 113.504 161.007 C 111.519 157.168, 109.933 153, 110.457 153 C 110.681 153, 112.349 155.700, 114.163 159 C 115.977 162.300, 118.029 165, 118.723 165 C 119.417 165, 122.079 161.850, 124.639 158 C 127.199 154.150, 129.459 151, 129.661 151 C 129.863 151, 128.672 153.687, 127.014 156.971 C 125.356 160.256, 124 163.157, 124 163.419 C 124 163.682, 125.364 163.420, 127.032 162.839 C 129.064 162.131, 129.776 161.406, 129.192 160.641 C 128.651 159.934, 129.239 157.979, 130.738 155.500 C 132.717 152.224, 133.051 151.981, 132.582 154.157 C 132.267 155.619, 131.766 157.446, 131.470 158.218 C 131.028 159.369, 132.744 159.612, 140.953 159.566 L 150.976 159.509 151.988 156.605 C 153.609 151.955, 153.314 151.359, 147 146.500 L 141 141.883 141 145.654 C 141 148.535, 141.649 149.975, 143.750 151.758 L 146.500 154.092 143.250 152.520 C 140.739 151.306, 139.958 151.239, 139.817 152.224 C 139.716 152.926, 139.378 149.900, 139.067 145.500 C 138.647 139.572, 138.306 138.190, 137.753 140.163 M 116.526 139.959 C 116.167 140.539, 116.614 141.299, 117.520 141.646 C 118.837 142.151, 118.900 142.448, 117.834 143.124 C 117.100 143.589, 116.950 143.966, 117.500 143.962 C 118.050 143.959, 119.625 143.024, 121 141.885 C 122.862 140.342, 123.021 139.970, 121.623 140.424 C 120.591 140.760, 119.169 140.555, 118.462 139.969 C 117.563 139.222, 116.983 139.219, 116.526 139.959 M 118.813 146.683 C 119.534 146.972, 120.397 146.936, 120.729 146.604 C 121.061 146.272, 120.471 146.036, 119.417 146.079 C 118.252 146.127, 118.015 146.364, 118.813 146.683 M 130 163.510 C 121.231 166.390, 118.234 166.523, 107.662 164.500 C 103.351 163.675, 96.826 163.016, 93.162 163.035 C 86.837 163.069, 86.626 163.145, 89 164.533 C 90.720 165.539, 92.971 165.812, 96.215 165.408 C 100.370 164.892, 105.233 165.736, 110 167.802 C 110.825 168.160, 107.900 168.688, 103.500 168.976 C 97.323 169.381, 95.500 169.839, 95.500 170.987 C 95.500 173.149, 99.687 174.822, 108.542 176.199 C 115.461 177.275, 116.452 177.230, 117.353 175.803 C 118.252 174.377, 118.620 174.360, 120.592 175.652 C 125.720 179.012, 141.310 171.488, 137.853 167.323 C 137.009 166.306, 135.521 166.016, 133.064 166.389 L 129.500 166.932 133 165.235 C 135.220 164.159, 138.970 163.533, 143.252 163.524 C 151.637 163.507, 151.781 161.593, 143.421 161.273 C 139.321 161.116, 135.193 161.804, 130 163.510 M 64.052 168.817 C 64.005 172.726, 64.636 173.883, 70.708 181.027 C 74.397 185.367, 77.599 188.735, 77.823 188.510 C 78.048 188.286, 77.737 186.684, 77.133 184.951 C 76.203 182.285, 76.263 181.892, 77.517 182.400 C 78.333 182.730, 79.702 183.283, 80.559 183.630 C 81.417 183.976, 78.799 180.939, 74.743 176.880 C 70.686 172.821, 66.632 168.375, 65.736 167 L 64.105 164.500 64.052 168.817 M 167.731 169.759 C 166.561 171.062, 166.016 174.771, 165.566 184.500 C 164.984 197.054, 165.021 197.391, 166.629 194.322 C 168.474 190.802, 176.061 187, 181.240 187 C 183.199 187, 184.056 186.573, 183.753 185.750 C 183.499 185.063, 182.551 182.246, 181.645 179.490 C 180.740 176.735, 179.212 174.009, 178.249 173.432 C 177.287 172.856, 174.879 171.402, 172.897 170.201 C 169.483 168.133, 169.211 168.110, 167.731 169.759 M 43.500 175.079 C 40.149 178.592, 39.865 179.184, 41.750 178.730 C 44.432 178.083, 44.487 178.327, 42.385 181.535 C 40.643 184.193, 41.061 184.573, 43.999 183.001 C 45.490 182.203, 45.993 182.404, 46.500 184.001 C 47.758 187.963, 48.620 185.875, 48.256 179.750 C 48.052 176.313, 47.798 172.912, 47.692 172.193 C 47.586 171.472, 45.705 172.767, 43.500 175.079 M 135.500 178.553 C 132.750 179.307, 127.350 180.236, 123.500 180.617 L 116.500 181.309 126.930 184.713 L 137.359 188.117 142.418 183.058 C 146.701 178.775, 147.146 178, 145.320 178 C 144.134 178, 142.564 177.816, 141.832 177.590 C 141.099 177.365, 138.250 177.798, 135.500 178.553 M 39.090 190.923 C 37.914 191.668, 37.892 192.326, 38.962 194.908 C 40.190 197.874, 42.505 199.480, 41.400 196.600 C 41.058 195.710, 41.486 195.254, 42.574 195.350 C 43.515 195.432, 44.483 194.937, 44.726 194.249 C 45.001 193.470, 44.598 193.217, 43.657 193.578 C 42.521 194.014, 42.281 193.641, 42.690 192.079 C 43.272 189.851, 41.621 189.321, 39.090 190.923 M 88 191.648 C 88 191.955, 90.933 195.723, 94.517 200.020 C 99.898 206.471, 101.229 208.806, 102.155 213.417 C 102.772 216.487, 103.619 219, 104.038 219 C 104.456 219, 105.572 216.851, 106.517 214.223 C 107.877 210.441, 109.303 208.727, 113.367 205.987 L 118.500 202.528 110.014 201.640 L 101.528 200.753 108.514 198.126 L 115.500 195.500 106 194.907 C 100.775 194.580, 94.588 193.588, 92.250 192.701 C 89.912 191.814, 88 191.340, 88 191.648 M 178.641 191.692 C 178.261 192.073, 179.198 193.443, 180.725 194.738 L 183.500 197.092 180.300 195.546 C 178.539 194.696, 175.702 194, 173.995 194 C 171.189 194, 170.653 194.535, 168.431 199.559 C 166.454 204.031, 165.929 207.015, 165.752 214.809 C 165.472 227.084, 167.648 234.989, 172.591 239.651 C 174.466 241.419, 176 243.796, 176 244.933 C 176 246.104, 176.650 247, 177.500 247 C 178.325 247, 179 246.409, 179 245.687 C 179 244.965, 180.389 243.052, 182.086 241.437 C 186.771 236.978, 187.386 235.285, 188.054 225 L 188.670 215.500 188.835 225.300 C 189.008 235.589, 188.064 238.987, 183.709 243.750 L 181.651 246 189.307 246 C 196.673 246, 196.986 245.904, 197.600 243.457 C 197.967 241.994, 197.550 239.111, 196.619 236.673 C 195.691 234.242, 194.998 229.461, 194.994 225.467 C 194.988 217.912, 193.508 211, 191.896 211 C 191.341 211, 191.587 210, 192.443 208.777 C 194.090 206.427, 194.539 198.397, 193.146 196.203 C 192.488 195.165, 192.068 195.213, 191.048 196.442 C 189.543 198.255, 188 197.598, 188 195.142 C 188 192.732, 180.402 189.931, 178.641 191.692 M 44.978 197.672 C 40.447 201.485, 38.705 208.845, 39.163 222.240 C 39.483 231.589, 39.356 232.806, 38.315 230.368 C 36.620 226.399, 36.707 215.522, 38.503 206.988 C 39.782 200.907, 39.801 199.554, 38.630 197.882 C 37.283 195.959, 37.241 195.966, 36.582 198.209 C 36.212 199.469, 35.489 204.550, 34.976 209.500 C 34.462 214.450, 33.752 221.235, 33.398 224.577 C 32.872 229.541, 33.140 231.528, 34.862 235.421 C 36.406 238.912, 36.707 240.680, 35.985 242.028 C 34.133 245.489, 34.846 246, 41.531 246 C 47.754 246, 48.207 245.834, 51.164 242.466 C 52.870 240.523, 54.511 239.178, 54.810 239.477 C 55.109 239.776, 54.065 241.366, 52.490 243.010 L 49.626 246 53.813 246 C 56.750 246, 58 245.579, 58 244.590 C 58 243.814, 59.350 240.327, 60.999 236.840 C 63.055 232.493, 63.967 229.085, 63.897 226 L 63.796 221.500 62.813 225 C 62.272 226.925, 61.179 229.850, 60.384 231.500 C 59.143 234.074, 59.017 234.145, 59.492 232 C 61.417 223.316, 61.923 219.561, 61.232 219.065 C 60.799 218.754, 60.315 215.834, 60.156 212.576 C 59.872 206.780, 59.737 206.527, 53.908 200.911 L 47.950 195.171 44.978 197.672 M 71.015 212.138 L 71 218.776 79.076 226.638 C 86.727 234.086, 92.044 238.355, 89.399 234.927 C 88.793 234.142, 85.531 229.983, 82.149 225.684 C 77.880 220.259, 76 216.997, 76 215.016 C 76 213.447, 75.696 211.372, 75.325 210.405 C 74.699 208.773, 74.596 208.785, 73.895 210.573 C 73.163 212.442, 73.138 212.439, 73.055 210.500 C 73.008 209.400, 72.533 207.825, 72 207 C 71.320 205.948, 71.026 207.483, 71.015 212.138 M 180.738 217.849 C 180.078 226.819, 179.679 228.447, 177.738 230.066 C 174.956 232.387, 174.129 232.426, 171.829 230.345 C 170.310 228.971, 170 228.938, 170 230.154 C 170 230.959, 170.625 232.472, 171.388 233.516 C 172.733 235.355, 172.905 235.329, 176.937 232.660 C 179.226 231.146, 181.319 229.333, 181.588 228.632 C 181.857 227.931, 181.947 222.890, 181.788 217.429 L 181.500 207.500 180.738 217.849 M 44 218.411 C 44 225.532, 44.126 225.928, 47.223 228.534 C 52.739 233.176, 54.754 233.694, 57.292 231.125 L 59.500 228.890 56.610 229.974 C 54.240 230.862, 53.340 230.740, 51.610 229.296 C 46.808 225.291, 46.045 223.645, 46.022 217.250 C 46.010 213.765, 45.558 211, 45 211 C 44.423 211, 44 214.137, 44 218.411 M 187.079 212.583 C 187.127 213.748, 187.364 213.985, 187.683 213.188 C 187.972 212.466, 187.936 211.603, 187.604 211.271 C 187.272 210.939, 187.036 211.529, 187.079 212.583" stroke="none" fill="black" fill-rule="evenodd"/>
</svg>