<svg xmlns="http://www.w3.org/2000/svg" width="518" height="600" viewBox="0 0 518 600" version="1.1">
	<path d="M 263.500 5.640 C 254.296 9.550, 249.248 9.660, 240 6.152 C 229.692 2.241, 213.160 3.736, 201.800 9.605 C 197.612 11.768, 192.217 11.279, 182.462 7.850 L 173.500 4.700 161.950 5.704 C 152.803 6.499, 149.058 7.311, 143.950 9.604 C 135.682 13.316, 130.765 13.186, 117 8.893 C 102.326 4.316, 94.085 4.275, 84.675 8.732 C 75.934 12.873, 66.759 20.386, 64.200 25.500 C 63.099 27.700, 61.460 32.821, 60.558 36.880 C 59.655 40.939, 58.301 45.439, 57.548 46.880 C 55.805 50.216, 51.390 54.323, 47.369 56.350 C 42.077 59.018, 39.223 63.317, 38.482 69.740 C 36.808 84.241, 34.471 88.728, 26.312 93.115 C 21.043 95.948, 17.667 101.459, 17.194 107.999 C 16.548 116.929, 19.022 123.260, 29.983 140.718 C 33.028 145.568, 33.278 146.624, 33.527 155.696 C 33.791 165.357, 33.851 165.568, 39.395 176.478 C 42.475 182.540, 46.377 191.325, 48.066 196 C 50.674 203.221, 51.038 205.346, 50.485 210.119 C 49.918 215.010, 50.187 216.436, 52.561 221.119 C 59.441 234.692, 65.696 250.844, 66.901 258.144 C 67.655 262.713, 67.613 262.814, 64.292 264.398 C 62.436 265.283, 56.391 268.818, 50.859 272.254 L 40.800 278.500 41.314 283.613 C 41.596 286.425, 43.023 291.085, 44.484 293.969 L 47.141 299.213 44.821 300.828 C 31.152 310.344, 18.180 330.233, 14.452 347.390 C 12.459 356.559, 12.870 374.980, 15.263 383.720 C 16.654 388.802, 16.629 389, 14.329 391.161 C 9.907 395.315, 6 404.709, 6 411.185 C 6 426.426, 14.588 437.885, 27.319 439.630 C 34.089 440.558, 60.340 432.881, 64.869 428.649 C 70.870 423.041, 72.555 415.875, 69.326 409.700 C 68.406 407.940, 67.095 404.131, 66.413 401.236 C 64.692 393.925, 60.638 387.450, 55.764 384.228 C 52.107 381.810, 50.698 381.500, 43.370 381.500 C 33.730 381.500, 34.257 382.158, 33.373 369 C 32.203 351.587, 38.560 334.703, 51.028 322.111 C 54.900 318.200, 58.568 315, 59.179 315 C 59.790 315, 62.175 316.192, 64.478 317.649 C 67.798 319.750, 68.909 321.210, 69.843 324.701 C 70.681 327.836, 71.866 329.590, 73.956 330.790 C 77.527 332.839, 77.454 332.200, 79.036 375 C 79.656 391.775, 80.464 405.812, 80.832 406.194 C 81.602 406.994, 97.516 408.595, 113.500 409.482 C 119.550 409.817, 125.728 410.330, 127.229 410.621 L 129.958 411.150 127.567 415.868 C 126.252 418.462, 124.414 423.207, 123.483 426.411 C 122.083 431.227, 122.008 432.646, 123.050 434.592 C 124.588 437.467, 135.644 448.230, 138.750 449.877 C 139.988 450.533, 141 451.765, 141 452.614 C 141 454.827, 131.595 479.616, 126.706 490.289 L 122.560 499.338 120.779 495.252 C 119.799 493.005, 117.852 486.866, 116.453 481.610 L 113.910 472.055 117.455 466.791 C 123.345 458.045, 121.726 449.872, 113.415 446.400 C 111.629 445.654, 109.159 443.627, 107.927 441.898 C 105.794 438.902, 105.439 438.778, 100.471 439.291 C 94.483 439.909, 88.590 442.638, 85.046 446.434 C 82.604 449.050, 82.601 449.086, 84.288 453.640 C 85.221 456.157, 85.776 458.553, 85.522 458.965 C 85.267 459.376, 79.180 463.427, 71.994 467.966 C 56.142 477.979, 54.587 480.153, 55.160 491.506 C 55.597 500.156, 59.102 506.719, 65.794 511.423 C 71.692 515.568, 81.107 516.292, 85.371 512.929 C 86.950 511.683, 88.863 509.179, 89.621 507.364 C 91.456 502.974, 91.372 493.825, 89.455 489.238 C 88.028 485.824, 88.043 485.442, 89.646 484.270 C 90.601 483.571, 93.096 483, 95.191 483 C 97.286 483, 99.297 482.887, 99.659 482.750 C 100.022 482.613, 101.792 488.212, 103.593 495.194 C 109.703 518.883, 119.647 528.517, 129.269 520.069 C 134.260 515.687, 137.061 509.756, 147.057 482.408 C 152.064 468.709, 156.497 457.150, 156.909 456.722 C 157.320 456.293, 160.547 456.624, 164.078 457.457 C 167.610 458.289, 173.972 458.977, 178.215 458.985 C 184.556 458.997, 186.093 458.688, 186.847 457.250 C 187.352 456.288, 189.607 448.300, 191.859 439.500 C 199.653 409.032, 198.811 411.134, 203.454 410.569 C 205.679 410.298, 218.358 409.800, 231.628 409.461 L 255.757 408.845 259.128 422.659 C 261.177 431.052, 263.893 439.214, 266.049 443.460 C 269.256 449.774, 269.971 450.536, 273.461 451.362 C 276.221 452.014, 280.206 451.781, 287.412 450.543 C 292.960 449.591, 298.175 448.730, 299 448.629 C 302.558 448.197, 334.463 508.768, 350.026 545.500 C 356.984 561.924, 357.191 562.645, 356.114 566.764 C 354.476 573.034, 354.728 575.609, 357.394 579.832 C 360.843 585.296, 369.328 592.578, 374.586 594.586 C 378.828 596.206, 379.336 596.210, 382.610 594.649 C 387.358 592.385, 395.627 584.493, 398.642 579.347 C 400.983 575.353, 401.032 574.963, 399.558 572.113 C 396.546 566.288, 397.421 562.998, 403.588 556.966 C 410.339 550.362, 417.250 540.950, 420.134 534.430 C 425.318 522.710, 418.143 502.024, 407.282 497.377 C 400.964 494.673, 391.345 496.156, 385.995 500.658 C 380.727 505.091, 380.053 507.486, 380.236 521.132 C 380.400 533.318, 379.491 544.596, 378.173 546.712 C 377.803 547.307, 376.406 547.953, 375.068 548.147 C 372.804 548.476, 370.899 545.278, 347.568 501.993 C 333.781 476.415, 320.609 452.225, 318.298 448.239 L 314.096 440.991 318.075 438.962 C 320.263 437.845, 325.023 434.119, 328.652 430.680 L 335.251 424.429 332.489 418.978 C 330.970 415.981, 328.672 411.856, 327.381 409.812 C 325.963 407.566, 325.433 405.850, 326.041 405.475 C 326.594 405.133, 338.398 404.735, 352.273 404.590 C 366.148 404.445, 378.233 404.001, 379.129 403.603 C 380.145 403.151, 380.990 401.114, 381.375 398.189 C 383.114 384.947, 384.045 366.320, 383.921 347.257 L 383.781 326.013 386.894 322.468 C 389.973 318.961, 390.005 318.814, 389.842 308.712 C 389.688 299.152, 389.917 297.861, 393.427 288.500 C 396.838 279.404, 397.127 277.868, 396.624 271.500 C 396.320 267.650, 395.813 263.600, 395.497 262.500 C 395.028 260.869, 395.907 259.989, 400.261 257.732 C 403.198 256.210, 407.940 252.732, 410.800 250.004 L 416 245.045 416 236.412 L 416 227.779 426.250 217.138 C 435.982 207.033, 451.762 189.212, 454.735 184.968 C 455.866 183.353, 457.282 183, 462.622 183 C 470.233 183, 471.774 182.314, 477.432 176.409 C 482.703 170.909, 485.026 170.788, 494.860 175.500 C 503.587 179.683, 505.871 179.821, 509.923 176.411 C 512.348 174.371, 513 173.030, 513 170.085 C 513 163.389, 507.361 160.321, 493.167 159.294 C 476.896 158.117, 479.664 152.275, 498.275 148.511 C 502.367 147.683, 505 144.565, 505 140.547 C 505 135.559, 503.158 132.251, 499.713 131.050 C 492.883 128.669, 486.384 130.223, 478.293 136.172 C 471.981 140.812, 470 141.052, 470 137.174 C 470 135.377, 471.629 132.192, 474.473 128.424 C 477.894 123.894, 478.953 121.618, 478.973 118.750 C 479.037 109.858, 470.304 108.490, 462.363 116.148 C 458.509 119.865, 456.719 124.067, 454.432 134.766 C 453.460 139.313, 452.023 143.566, 451.237 144.218 C 448.935 146.129, 444.947 143.169, 441.475 136.974 L 438.408 131.500 430.621 131.500 C 423.089 131.500, 422.737 131.607, 419.917 134.766 C 417.655 137.299, 417 138.995, 417 142.325 C 417 144.686, 417.563 147.321, 418.250 148.181 C 419.652 149.934, 425.173 152, 428.458 152 C 432.852 152, 434.093 154.059, 434.303 161.694 C 434.460 167.381, 434.969 169.470, 436.803 171.949 L 439.105 175.061 423.924 192.781 C 415.574 202.526, 408.172 210.834, 407.474 211.242 C 406.777 211.650, 404.585 211.307, 402.603 210.479 C 399.776 209.298, 399 208.413, 399 206.375 C 399 204.946, 397.357 199.439, 395.349 194.138 C 391.008 182.679, 390.850 178.577, 394.325 167.500 C 395.885 162.527, 397.093 155.665, 397.517 149.367 C 398.180 139.516, 398.099 138.937, 394.600 128.590 C 392.620 122.735, 391 116.314, 391 114.319 C 391 112.325, 392.310 107.920, 393.912 104.530 C 398.062 95.747, 399.287 90.554, 399.230 81.982 C 399.196 76.821, 398.491 72.588, 396.982 68.482 C 395.773 65.192, 394.152 60.789, 393.379 58.698 C 392.054 55.113, 392.141 54.511, 394.887 48.198 C 400.737 34.748, 401.168 25.257, 396.382 15.274 C 391.711 5.532, 386.657 3.960, 374.596 8.500 C 365.737 11.835, 360.208 11.742, 353.121 8.141 C 345.362 4.198, 335.131 3.268, 324.988 5.583 C 311.944 8.560, 308.326 8.495, 297.274 5.085 C 283.300 0.772, 274.625 0.915, 263.500 5.640 M 262 11.703 C 251.204 16.317, 243.371 16.551, 232.075 12.598 C 221.620 8.940, 215.133 9.100, 206.362 13.235 C 196.609 17.832, 187.629 18.196, 175.702 14.477 C 168.095 12.106, 165.821 11.822, 157.746 12.239 C 151.134 12.581, 147.147 13.340, 143.749 14.906 C 136.390 18.296, 130.768 18.500, 113.702 15.998 C 95.218 13.287, 89.740 13.673, 88.184 17.796 C 86.572 22.064, 85.936 31.290, 86.998 34.993 C 87.532 36.853, 90.201 42.245, 92.931 46.975 C 99.767 58.819, 100.314 61.838, 98.242 76.260 L 96.553 88.020 102.697 100.260 C 106.076 106.992, 109.573 115.052, 110.468 118.170 C 111.954 123.347, 111.961 124.608, 110.551 132.670 C 109.701 137.527, 109.005 143.106, 109.003 145.068 C 108.999 149.950, 111.668 158.540, 114.543 162.895 C 120.098 171.312, 122.598 184.643, 121.013 197.399 C 119.870 206.590, 120.280 208.704, 126.448 225.448 C 131.023 237.869, 131.809 245.269, 129.480 254 C 126.720 264.350, 127.209 269.934, 131.976 282.500 C 136.374 294.093, 136.468 295.119, 134.432 309.188 C 133.476 315.798, 134.614 320.491, 138.153 324.521 C 140.964 327.723, 141.657 328, 146.854 327.997 C 149.959 327.995, 157.064 327.108, 162.642 326.025 C 178.288 322.987, 190.438 322.404, 197.192 324.367 C 204.124 326.383, 210.789 326.438, 219.748 324.553 C 233.818 321.593, 247.203 320.807, 255.183 322.472 C 265.364 324.596, 271.363 324.391, 283.597 321.500 C 295.792 318.619, 303.029 318.402, 316.991 320.499 C 326.892 321.986, 330.744 321.803, 344.500 319.192 C 346.700 318.775, 353.675 318.748, 360 319.133 C 381.671 320.451, 383.743 320.322, 385.566 317.539 C 387.051 315.274, 387.047 314.502, 385.516 307.789 C 382.770 295.740, 383.217 290.045, 387.883 277.658 C 392.201 266.194, 392.301 264.087, 388.937 255.381 C 388.325 253.797, 387.242 249.757, 386.532 246.405 C 385.041 239.368, 386.407 228.730, 390.131 218.393 C 393.804 208.196, 393.686 203.606, 389.466 192.367 C 387.428 186.940, 385.566 180.925, 385.328 179 C 385.091 177.075, 386.076 170.550, 387.517 164.500 C 388.959 158.450, 390.639 150.292, 391.251 146.372 C 392.335 139.425, 392.269 138.960, 388.663 128.090 C 382.984 110.972, 382.914 107.738, 387.936 94.496 C 393.827 78.962, 393.981 76.478, 389.734 65.500 C 384.468 51.891, 384.365 50.342, 388.031 39.756 C 392.051 28.145, 393.124 16.900, 390.490 13.989 C 387.753 10.964, 380.068 11.367, 368.973 15.116 C 358.217 18.751, 353.476 18.658, 347.448 14.694 C 339.486 9.459, 328.169 8.659, 316.403 12.500 C 312.191 13.875, 307.546 15, 306.081 15 C 304.616 15, 297.893 13.425, 291.141 11.500 C 284.389 9.575, 276.983 8.016, 274.682 8.035 C 272.166 8.056, 267.113 9.517, 262 11.703 M 76.832 24.750 C 72.509 29.285, 69.238 34.953, 65.005 45.242 C 61.424 53.947, 54.886 61.997, 48.930 65.036 C 46.843 66.100, 44.875 67.393, 44.557 67.908 C 44.239 68.423, 43.486 72.592, 42.885 77.172 C 41.344 88.905, 39.970 91.284, 31.399 97.068 C 25.068 101.341, 23.994 102.501, 23.370 105.750 C 21.679 114.557, 23.975 121.317, 31.874 130.786 C 37.153 137.114, 39.153 143.431, 39.886 156.095 C 40.482 166.386, 40.603 166.816, 44.094 171.095 C 53.598 182.743, 56.244 189.979, 55.829 203.191 L 55.537 212.500 59.702 219.500 C 63.841 226.457, 66.246 233.932, 67.425 243.500 C 68.942 255.812, 70.350 261.144, 71.946 260.625 C 72.801 260.347, 78 258.498, 83.500 256.516 C 94.630 252.505, 98.943 252.400, 105.945 255.972 C 112.870 259.505, 118.024 268.674, 117.978 277.376 C 117.956 281.421, 115.683 287.288, 112.408 291.750 C 110.811 293.926, 110.840 294, 113.289 294 C 116.332 294, 120.534 298.601, 121.498 302.990 C 122.337 306.812, 119.002 314.113, 115.313 316.531 C 111.226 319.209, 106.007 319.423, 102.250 317.067 C 99.005 315.033, 98.382 313.097, 98.758 306.227 C 98.910 303.455, 98.379 303.733, 90.500 310.548 C 87.200 313.402, 82.388 317.040, 79.807 318.632 L 75.115 321.527 76.689 324.777 C 79.009 329.568, 84.055 330.172, 95.122 326.985 C 99.438 325.742, 99.927 325.798, 102.507 327.827 C 106.066 330.627, 108.989 330.565, 118 327.500 C 122.043 326.125, 127.308 325, 129.701 325 L 134.051 325 132.526 322.050 C 130.736 318.589, 130.600 312.637, 132.047 301.096 C 133.065 292.975, 133.025 292.643, 130.574 289.107 C 124.480 280.313, 122.134 264.542, 125.500 255 C 128.360 246.895, 127.510 239.379, 121.791 222.172 C 116.763 207.044, 116.596 206.188, 116.997 197.500 C 117.870 178.541, 117.883 178.618, 111.310 165 C 107.992 158.125, 104.988 151.290, 104.635 149.811 C 104.281 148.332, 104.690 142.123, 105.542 136.014 C 106.947 125.938, 106.945 124.328, 105.516 118.703 C 104.649 115.291, 101.376 108, 98.241 102.500 C 92.781 92.919, 92.544 92.207, 92.579 85.500 C 92.599 81.650, 92.983 74, 93.432 68.500 L 94.247 58.500 90.470 51 C 88.392 46.875, 85.628 41.380, 84.326 38.790 C 81.901 33.962, 81.065 27.248, 82.389 23.250 C 83.552 19.740, 80.933 20.447, 76.832 24.750 M 356.503 37.250 C 353.199 40.101, 351.947 45.623, 352.722 53.922 C 353.519 62.460, 355.834 65, 362.820 65 C 368.946 65, 372.209 62.638, 374.550 56.507 C 376.907 50.337, 376.129 43.168, 372.600 38.542 C 370.095 35.258, 369.506 35, 364.505 35 C 360.351 35, 358.512 35.517, 356.503 37.250 M 366.309 37.722 C 368.126 37.995, 369.801 39.266, 371.055 41.322 C 372.121 43.070, 372.994 43.998, 372.996 43.385 C 373.005 40.826, 368.823 37.002, 366.177 37.150 L 363.500 37.300 366.309 37.722 M 120.147 41.530 C 111.065 49.172, 113.240 66.504, 124.675 77.619 C 129.923 82.719, 132.555 83.632, 137.397 82.034 C 142.797 80.252, 146.619 75.220, 147.402 68.862 C 149.067 55.347, 142.588 42.842, 132.500 40.099 C 126.362 38.430, 123.427 38.770, 120.147 41.530 M 372.345 54.543 C 372.019 55.392, 371.976 56.310, 372.249 56.583 C 372.523 56.856, 372.986 56.161, 373.279 55.040 C 373.903 52.657, 373.210 52.289, 372.345 54.543 M 210.686 60.800 L 211.257 67.601 205.054 69.325 C 201.643 70.274, 195.754 72.610, 191.968 74.516 L 185.084 77.983 181.994 73.491 C 180.294 71.021, 178.251 69, 177.452 69 C 175.389 69, 175.631 70.338, 178.678 75.795 L 181.356 80.592 176.679 86.333 C 167.254 97.904, 163.541 108.720, 163.517 124.666 L 163.500 135.832 159.688 136.975 C 155.366 138.270, 148.578 143.982, 146.435 148.125 C 143.679 153.454, 145.180 161.376, 149.235 162.910 C 152.385 164.102, 152.748 163.346, 150.177 160.950 C 147.501 158.458, 147.235 152.104, 149.636 148.040 C 153.248 141.925, 164.995 137.179, 173.599 138.359 C 183.644 139.735, 189.989 145.673, 189.996 153.703 C 190.001 159.208, 188.520 162.261, 184.772 164.476 L 181.714 166.282 185.107 167.955 C 186.973 168.875, 191.875 171.474, 196 173.731 C 200.125 175.988, 205.944 178.547, 208.932 179.417 C 215.815 181.423, 228.848 181.451, 236.431 179.476 C 242.276 177.953, 256.141 171.455, 261.154 167.888 C 262.614 166.850, 264.243 166, 264.774 166 C 265.304 166, 268.107 167.886, 271.002 170.190 C 275.511 173.781, 275.995 174.481, 274.382 175.080 C 272.720 175.698, 272.830 175.910, 275.315 176.890 C 285.008 180.712, 308.107 174.348, 334.638 160.544 C 347.400 153.904, 350.851 152.549, 357.690 151.492 C 361.801 150.857, 361.919 150.920, 363.940 154.882 C 367.904 162.652, 365.888 168.519, 356.590 176.270 C 339.964 190.132, 312.431 195.133, 284.250 189.410 C 282.284 189.011, 281 189.151, 281 189.765 C 281 190.324, 284.712 191.834, 289.250 193.120 C 295.859 194.994, 299.991 195.467, 310.024 195.496 L 322.548 195.533 328.596 199.571 C 331.922 201.792, 336.074 204.202, 337.822 204.926 C 339.570 205.650, 341 206.571, 341 206.973 C 341 208.030, 328.596 213.510, 321 215.809 C 309.422 219.314, 300.202 220.269, 282.857 219.759 C 265.436 219.248, 256.473 217.642, 241.989 212.439 C 217.226 203.543, 193.615 185.896, 181.630 167.325 C 179.084 163.379, 177 159.889, 177 159.571 C 177 159.253, 178.238 159.107, 179.750 159.246 C 183.827 159.623, 183.953 157.741, 179.980 155.798 C 175.188 153.454, 169.438 153.566, 165.368 156.082 C 160.940 158.818, 160.580 161.786, 164.950 159.526 C 166.573 158.687, 168.623 158, 169.507 158 C 172.431 158, 175.014 166.604, 178.581 188.224 C 182.546 212.258, 184.434 220.307, 189.562 235.040 C 196.734 255.644, 203.454 265.614, 218.260 277.616 C 233.324 289.828, 245.513 293.952, 266.624 293.983 C 280.529 294.003, 285.074 292.819, 291.587 287.482 C 299.241 281.211, 299.820 273.740, 293.377 264.387 C 289.850 259.265, 289.711 258.762, 290.583 254.282 L 291.500 249.568 300.195 247.534 C 308.752 245.532, 314.732 241.993, 313.346 239.751 C 313.020 239.223, 312.576 236.476, 312.360 233.646 C 312.143 230.816, 311.769 227.309, 311.528 225.853 C 311.143 223.517, 311.486 223.131, 314.445 222.576 C 319.103 221.703, 335.952 214.746, 342.537 210.979 C 345.542 209.260, 348 207.206, 348 206.414 C 348 205.622, 345.626 203.925, 342.725 202.642 C 334.085 198.821, 328.480 194.943, 330.107 193.913 C 330.873 193.428, 332.448 193.024, 333.607 193.015 C 336.781 192.992, 352.671 184.860, 359.707 179.657 C 366.522 174.618, 368.725 171.287, 369.636 164.642 C 370.444 158.741, 368.634 153.764, 364.290 149.950 L 360.703 146.800 361.851 141.824 C 363.449 134.902, 363.285 123.541, 361.485 116.460 C 358.651 105.312, 353.389 96.182, 345.008 87.873 C 337.329 80.261, 337.317 80.242, 338.779 77.373 C 339.584 75.793, 341.155 73.501, 342.268 72.279 C 343.940 70.446, 344.072 69.792, 343.024 68.529 C 340.926 66.001, 339.642 66.745, 336.597 72.251 C 335.001 75.138, 333.579 77.647, 333.437 77.827 C 333.295 78.007, 329.876 77.248, 325.839 76.139 C 321.803 75.031, 316.587 73.629, 314.250 73.023 L 310 71.923 310 64.997 C 310 59.229, 309.684 57.901, 308.110 57.059 C 305.762 55.802, 305.034 57.937, 305.014 66.135 L 305 71.770 299.250 72.477 C 296.087 72.865, 291.117 74.015, 288.204 75.032 L 282.908 76.881 279.868 71.940 C 278.196 69.223, 276.492 67, 276.081 67 C 274.158 67, 274.281 68.621, 276.545 73.089 C 277.895 75.753, 279 78.344, 279 78.845 C 279 79.347, 276.536 81.862, 273.525 84.435 L 268.049 89.112 260.063 82.612 C 255.671 79.037, 251.182 75.633, 250.089 75.047 C 248.125 73.997, 248.131 73.917, 250.540 68.742 C 253.428 62.538, 253.540 61.421, 251.357 60.583 C 249.381 59.825, 249.824 59.340, 246.553 65.849 C 244.260 70.415, 243.546 71.108, 241.683 70.580 C 235.038 68.696, 225.268 67, 221.065 67 C 216.291 67, 216.258 66.977, 215.642 63.250 C 215.301 61.188, 215.017 58.263, 215.011 56.750 C 215.002 54.504, 214.553 54, 212.558 54 C 210.153 54, 210.125 54.101, 210.686 60.800 M 206.124 73.518 C 182.332 80.182, 166.551 101.874, 168.357 125.430 C 169.016 134.024, 169.644 134.961, 174.761 134.985 C 178.672 135.003, 185.414 138.028, 189.891 141.774 C 192.731 144.150, 193.220 145.271, 193.692 150.503 C 194.079 154.803, 193.772 157.609, 192.609 160.392 C 190.343 165.817, 192.083 167.974, 203 173.272 C 208.488 175.935, 210.917 176.489, 218.606 176.826 C 228.921 177.279, 234.918 175.925, 246.750 170.472 C 263.251 162.866, 274 145.108, 274 125.451 C 274 118.964, 271.711 106.638, 269.543 101.448 C 265.248 91.169, 251.154 78.942, 238.500 74.519 C 231.522 72.080, 213.273 71.515, 206.124 73.518 M 294 77.360 C 289.548 78.662, 282.967 81.700, 282 82.899 C 281.725 83.240, 279.700 84.684, 277.500 86.108 C 275.300 87.532, 272.875 89.864, 272.112 91.290 C 270.866 93.619, 270.990 94.524, 273.328 100.191 C 277.447 110.174, 278.368 114.810, 278.358 125.500 C 278.347 136.483, 276.888 142.830, 271.996 153.170 C 270.349 156.652, 269.001 160.253, 269.001 161.173 C 269 163.444, 274.338 168.622, 279.279 171.142 C 282.513 172.792, 284.650 173.122, 289.913 172.783 C 295.636 172.415, 300.370 170.707, 326 159.762 C 359.436 145.482, 357.866 146.712, 358.728 134.142 C 359.771 118.918, 353.405 103.366, 341.034 90.921 C 333.340 83.182, 329.937 80.937, 322 78.366 C 315.635 76.305, 299.579 75.728, 294 77.360 M 60.224 80.604 C 56.178 83.792, 49.389 93.646, 47.448 99.147 C 44.787 106.688, 46.089 118.089, 50.065 122.065 C 51.340 123.340, 53.379 124, 56.040 124 C 73.834 124, 87.770 94.576, 76.385 81.045 C 74.135 78.372, 73.192 78.001, 68.661 78.011 C 64.636 78.020, 62.779 78.590, 60.224 80.604 M 130.740 100.750 C 125.676 106.037, 123.787 113.678, 126.063 119.665 C 127.464 123.349, 128.614 123.966, 134.115 123.985 C 141.931 124.011, 147 118.088, 147 108.932 C 147 105.566, 146.370 104.170, 143.600 101.400 C 139.185 96.985, 134.570 96.752, 130.740 100.750 M 292.500 100.879 C 280.884 106.207, 276.727 118.216, 282.700 129.190 C 288.917 140.613, 304.818 143.366, 314.662 134.724 C 320.669 129.449, 322.484 121.884, 319.940 112.723 C 316.932 101.892, 303.207 95.967, 292.500 100.879 M 213.994 100.934 C 204.139 103.932, 198 111.546, 198 120.772 C 198 126.308, 202.472 134.602, 207.385 138.177 C 211.237 140.980, 211.985 141.150, 219.086 140.836 C 228.621 140.414, 233.640 137.371, 237.467 129.691 C 240.611 123.381, 240.654 118.946, 237.633 112.459 C 233.110 102.746, 223.477 98.050, 213.994 100.934 M 463.619 120.132 C 459.413 125.046, 458.013 129.280, 458.006 137.115 C 457.993 149.884, 448.340 152.046, 440.439 141.049 C 434.647 132.985, 426.491 131.756, 421.678 138.221 C 420.021 140.447, 419.851 141.378, 420.745 143.341 C 421.663 145.353, 422.733 145.813, 427.404 146.200 C 434.185 146.763, 436.641 148.748, 437.474 154.339 C 438.776 163.094, 440.229 167.897, 442.080 169.572 C 443.136 170.528, 444 172.350, 444 173.622 C 444 176.259, 432.757 190.646, 419.014 205.595 C 414.056 210.988, 410 215.906, 410 216.525 C 410 217.901, 414.235 222, 415.656 222 C 416.221 222, 424.742 212.550, 434.592 201.001 C 448.893 184.231, 453.003 179.993, 455 179.957 C 465.683 179.762, 467.114 179.312, 471.859 174.662 C 479.363 167.308, 484.023 166.401, 492.950 170.556 C 503.674 175.548, 509.561 174.724, 508.822 168.334 C 508.389 164.588, 505.022 163.051, 497 162.937 C 487.925 162.808, 480.901 160.202, 479.669 156.506 C 478.833 153.998, 479.076 153.321, 481.641 151.030 C 483.250 149.592, 487.927 147.366, 492.033 146.084 C 500.484 143.445, 502 142.512, 502 139.949 C 502 136.518, 499.204 135, 492.884 135 C 487.446 135, 486.324 135.403, 480.340 139.500 C 472.977 144.541, 468.763 145.295, 466.944 141.895 C 465.245 138.721, 466.666 133.480, 471.148 126.383 C 475.959 118.765, 475.900 116.619, 470.865 116.197 C 467.682 115.930, 466.810 116.404, 463.619 120.132 M 175.558 140.775 C 174.061 142.272, 175.205 145.013, 177.573 145.608 C 180.785 146.414, 182.833 144.708, 181.125 142.650 C 179.798 141.052, 176.419 139.914, 175.558 140.775 M 156 144.378 C 156 145.135, 156.698 146.334, 157.550 147.042 C 158.832 148.105, 159.395 148.034, 160.800 146.628 C 162.291 145.137, 162.316 144.811, 161 143.979 C 158.784 142.578, 156 142.800, 156 144.378 M 63.181 149.585 C 60.248 151.640, 57 158.166, 57 162.006 C 57 163.948, 57.909 166, 59.455 167.545 C 66.493 174.584, 79.519 165.268, 76.801 155.140 C 75.532 150.413, 74.356 149.373, 69.445 148.642 C 66.600 148.219, 64.731 148.500, 63.181 149.585 M 167.177 149.643 C 167.355 150.546, 168.314 151.784, 169.309 152.393 C 170.752 153.276, 171.402 153.117, 172.527 151.603 C 174.380 149.108, 173.562 148, 169.868 148 C 167.607 148, 166.934 148.411, 167.177 149.643 M 458.367 155.918 C 454.453 158.304, 452.250 161.391, 450.902 166.377 C 449.493 171.591, 451.325 173.576, 452.964 168.610 C 454.588 163.687, 462.208 156, 465.463 156 C 466.858 156, 468 155.550, 468 155 C 468 153.301, 461.670 153.904, 458.367 155.918 M 85.682 193.987 C 75.481 200.456, 70.426 214.527, 74.578 224.902 C 75.792 227.936, 77.064 229.208, 80.098 230.422 C 85.030 232.396, 87.103 232.401, 91.782 230.449 C 96.369 228.536, 101.348 223.912, 105.130 218.054 C 107.455 214.452, 108 212.500, 108 207.764 C 108 201.272, 105.506 195.169, 101.791 192.566 C 98.055 189.950, 91.078 190.565, 85.682 193.987 M 398.349 219.250 C 397.741 221.588, 396.075 226.200, 394.646 229.500 C 392.817 233.723, 392.042 237.277, 392.029 241.500 C 392.012 247.221, 393.504 255, 394.618 255 C 395.557 255, 407.525 246.183, 409.405 244.105 C 412.073 241.157, 412.555 234.187, 410.515 228.047 C 408.914 223.224, 402.526 215, 400.382 215 C 399.872 215, 398.957 216.912, 398.349 219.250 M 246.442 223.458 C 246.085 225.360, 245.234 228.544, 244.550 230.533 C 242.285 237.119, 243.312 238.683, 251.053 240.444 C 254.816 241.300, 260.107 242, 262.810 242 L 267.725 242 268.426 233.363 C 268.811 228.613, 268.761 224.401, 268.313 224.003 C 267.449 223.234, 251.672 219.998, 248.795 219.999 C 247.643 220, 246.880 221.121, 246.442 223.458 M 286 233.750 L 286 243 292.424 243 C 295.957 243, 301.125 242.474, 303.909 241.832 L 308.970 240.663 308.331 236.667 C 307.979 234.469, 307.161 230.875, 306.513 228.680 L 305.335 224.690 295.667 224.595 L 286 224.500 286 233.750 M 348.939 227.643 C 341.389 232.332, 338.309 244.901, 342.185 255.201 C 343.767 259.403, 347.109 261, 354.319 261 C 359.649 261, 361.131 260.608, 363.257 258.637 C 367.575 254.635, 369.427 250.058, 369.381 243.500 C 369.332 236.643, 367.529 232.465, 362.959 228.619 C 359.305 225.544, 353.024 225.107, 348.939 227.643 M 349.872 229.750 C 348.629 231.336, 348.664 231.371, 350.250 230.128 C 351.916 228.821, 352.445 228, 351.622 228 C 351.415 228, 350.627 228.787, 349.872 229.750 M 356.395 228.981 C 360.429 229.759, 363.062 232.216, 365.524 237.500 C 366.825 240.292, 366.924 240.336, 366.961 238.132 C 366.985 236.680, 365.498 234.263, 363.118 231.882 C 360.050 228.815, 358.528 228.024, 355.868 228.115 L 352.500 228.230 356.395 228.981 M 151.455 235.455 C 148.582 238.327, 148.344 241.720, 150.560 248.221 C 152.399 253.620, 154.483 255.747, 158.776 256.605 C 161.397 257.129, 162.425 256.729, 164.960 254.194 C 166.918 252.236, 167.998 250.148, 167.994 248.327 C 167.971 236.561, 158.061 228.848, 151.455 235.455 M 153.029 236.961 C 152.220 237.473, 151.818 238.152, 152.136 238.470 C 152.455 238.788, 153.284 238.362, 153.980 237.524 C 155.423 235.786, 155.146 235.622, 153.029 236.961 M 362.872 254.750 C 361.629 256.336, 361.664 256.371, 363.250 255.128 C 364.916 253.821, 365.445 253, 364.622 253 C 364.415 253, 363.627 253.787, 362.872 254.750 M 81.500 261.942 C 76.550 264.698, 68.900 268.136, 64.500 269.581 C 54.850 272.750, 46.274 278.060, 45.440 281.381 C 44.854 283.719, 47.130 289.174, 50.466 293.425 C 51.810 295.137, 52.257 295.200, 54.511 293.994 C 57.527 292.380, 57.217 290.392, 54.008 290.761 C 50.026 291.220, 47.418 285.558, 50.452 283.040 C 52.583 281.272, 55.131 282.469, 60.521 287.772 C 68.446 295.569, 74.295 310.851, 70.545 313.963 C 69.112 315.152, 68.825 315.049, 68.333 313.164 C 67.706 310.768, 65 310.170, 65 312.427 C 65 314.023, 69.613 318, 71.463 318 C 73.318 318, 81.226 312.467, 86.620 307.396 C 89.304 304.872, 94.042 300.834, 97.148 298.424 C 104.264 292.901, 113.876 282.344, 114.670 279.178 C 115.542 275.705, 109.382 263.405, 105.152 260.172 C 102.683 258.285, 100.322 257.524, 96.152 257.272 C 90.935 256.956, 89.808 257.315, 81.500 261.942 M 162.252 272.516 C 157.291 276.762, 155.559 281.440, 156.298 288.595 C 156.876 294.200, 160.721 302.969, 164.265 306.767 C 166.867 309.556, 172.939 311.483, 176.391 310.617 C 177.806 310.262, 180.617 308.519, 182.639 306.744 C 194.165 296.624, 191.690 277.984, 177.885 270.941 C 171.888 267.882, 167.103 268.364, 162.252 272.516 M 168 272 C 167.175 272.533, 166.950 272.969, 167.500 272.969 C 168.050 272.969, 169.175 272.533, 170 272 C 170.825 271.467, 171.050 271.031, 170.500 271.031 C 169.950 271.031, 168.825 271.467, 168 272 M 176.500 272.643 C 177.050 273.131, 178.847 274.648, 180.493 276.015 C 183.380 278.412, 183.416 278.417, 181.504 276.157 C 180.414 274.869, 178.617 273.351, 177.511 272.785 C 176.405 272.219, 175.950 272.155, 176.500 272.643 M 343.602 277.888 C 341.403 280.317, 338 289.262, 338 292.611 C 338 294.222, 339.284 296.484, 341.400 298.600 C 346.151 303.351, 349.996 303.239, 355.035 298.201 C 361.051 292.184, 361.688 282.259, 356.328 278.043 C 352.900 275.347, 345.978 275.262, 343.602 277.888 M 343.186 280.491 C 340.536 283.860, 339.637 289.370, 341.043 293.629 C 342.582 298.293, 343.122 297.490, 341.951 292.279 C 340.531 285.958, 342.527 280.835, 347.004 279.306 C 350.244 278.200, 350.304 278.109, 347.823 278.056 C 346.114 278.020, 344.436 278.902, 343.186 280.491 M 308.624 293.545 C 311.360 301.084, 311.696 307.178, 309.476 309.020 C 307.351 310.784, 296.207 309.628, 290.347 307.035 C 283.536 304.022, 274.348 304.228, 269.898 307.493 C 264.743 311.275, 258.832 313.954, 255.585 313.978 C 251.156 314.011, 235.334 304.997, 227.750 298.120 C 222.287 293.165, 225.150 298.186, 231.256 304.269 C 239.058 312.039, 247.191 316.221, 255.627 316.798 C 261.499 317.200, 261.918 317.069, 265.702 313.650 C 267.873 311.689, 270.927 309.598, 272.487 309.005 C 276.248 307.575, 282.995 308.615, 291 311.858 C 295.583 313.715, 299.323 314.493, 303.684 314.496 C 309.120 314.500, 310.228 314.156, 312.835 311.658 C 316.607 308.044, 317.116 305.250, 315.092 299.271 C 313.506 294.586, 308.506 287, 307.005 287 C 306.589 287, 307.317 289.945, 308.624 293.545 M 52.378 302.131 C 44.177 307.473, 29.430 321.561, 24.741 328.533 C 19.955 335.650, 17.687 346.572, 17.690 362.500 C 17.692 373.679, 18.116 378.008, 19.794 383.987 L 21.896 391.473 18.868 394.434 C 11.155 401.975, 9.329 414.021, 14.346 424.275 C 17.232 430.174, 24.222 436.340, 24.823 433.517 C 25.232 431.600, 28.897 431.608, 31.441 433.532 C 34.111 435.551, 37.890 435.364, 41.729 433.024 C 43.863 431.723, 44.759 430.537, 44.372 429.527 C 43.887 428.264, 44.800 428.001, 49.643 428.005 C 57.997 428.012, 64.656 425.426, 65.967 421.665 C 67.359 417.671, 67.277 416.387, 65.377 412.381 C 64.099 409.688, 63.466 409.198, 62.403 410.080 C 61.660 410.697, 60.766 412.731, 60.415 414.600 C 59.753 418.130, 58.009 419.315, 57.988 416.250 C 57.981 415.288, 56.416 410.928, 54.510 406.561 C 52.604 402.195, 51.268 398.399, 51.540 398.126 C 51.813 397.853, 53.735 399.288, 55.811 401.315 C 57.886 403.342, 59.903 405, 60.292 405 C 60.681 405, 61 402.890, 61 400.312 C 61 394.608, 58.014 389.731, 53.078 387.376 C 49.756 385.791, 41.346 385.873, 35.441 387.549 C 32.981 388.247, 31.632 385.774, 29.469 376.601 C 26.394 363.565, 28.499 345.744, 34.588 333.250 C 38.252 325.732, 45.676 318.089, 56.387 310.806 L 65.700 304.473 63.336 300.737 C 62.035 298.681, 60.810 297, 60.614 297 C 60.417 297, 56.711 299.309, 52.378 302.131 M 347.500 325.601 C 342.508 327.208, 336.854 328.243, 332.463 328.352 C 325.992 328.514, 324.824 328.898, 317.963 333.126 C 313.858 335.655, 307.522 339.366, 303.882 341.374 L 297.265 345.024 290.561 337.917 C 286.873 334.008, 283.737 330.965, 283.591 331.155 C 283.444 331.345, 281.640 334.077, 279.581 337.227 L 275.836 342.954 276.870 349.596 C 277.439 353.249, 278.152 356.485, 278.454 356.787 C 279.031 357.365, 352.555 355.368, 366.750 354.389 L 375 353.820 375 350.066 C 375 348.001, 375.290 341.577, 375.644 335.791 L 376.287 325.271 370.894 324.669 C 355.724 322.974, 355.652 322.977, 347.500 325.601 M 299.520 325.620 C 295.131 326.412, 291.115 327.485, 290.596 328.004 C 290.004 328.596, 290.905 330.784, 293.014 333.875 L 296.376 338.802 307.688 333.171 C 313.910 330.074, 319 327.266, 319 326.931 C 319 325.756, 313.875 324.001, 310.703 324.090 C 308.941 324.139, 303.909 324.828, 299.520 325.620 M 226.830 330.846 L 216.160 334.537 222.143 338.265 L 228.127 341.993 236.564 334.889 C 241.204 330.982, 245 327.608, 245 327.392 C 245 325.983, 235.878 327.717, 226.830 330.846 M 176.500 328.646 C 175.400 328.886, 168.474 330.525, 161.108 332.288 L 147.716 335.495 148.345 347.901 C 148.691 354.724, 149.176 360.509, 149.422 360.755 C 150.083 361.416, 252.377 357.798, 253.212 357.084 C 253.604 356.749, 254.486 353.202, 255.172 349.202 C 256.375 342.186, 256.332 341.768, 253.960 337.392 C 250 330.089, 249.838 330.079, 241.924 336.632 C 230.050 346.463, 230.802 346.060, 226.528 344.880 C 224.439 344.303, 218.993 341.688, 214.425 339.069 C 203.268 332.672, 183.261 327.174, 176.500 328.646 M 116 333.581 C 109.223 336.486, 105.044 336.609, 101.727 334 C 98.838 331.727, 96.246 331.540, 89.049 333.083 L 84 334.166 84 341.936 C 84 346.210, 84.289 352.473, 84.642 355.853 L 85.285 362 101.892 361.996 C 111.027 361.994, 124.273 361.697, 131.328 361.338 L 144.157 360.683 143.423 348.592 C 143.020 341.941, 142.685 335.953, 142.678 335.285 C 142.634 330.697, 125.309 329.591, 116 333.581 M 298 430.985 C 296.742 431.785, 296.709 432.277, 297.799 434.034 C 300.411 438.247, 311.931 458.792, 317.686 469.500 C 323.546 480.404, 323.627 480.498, 326.996 480.219 C 328.865 480.065, 330.591 479.742, 330.832 479.501 C 331.073 479.261, 327.897 472.862, 323.774 465.282 C 319.652 457.702, 313.706 446.663, 310.562 440.750 C 305.468 431.173, 304.553 430.002, 302.172 430.015 C 300.703 430.024, 298.825 430.460, 298 430.985 M 136.962 474.855 C 126.778 501.683, 126.398 502.509, 123.329 504.520 C 121.004 506.043, 120.698 506.037, 118.915 504.423 C 117.097 502.778, 116.899 502.781, 115 504.500 C 113.900 505.495, 113 507.277, 113 508.459 C 113 511.481, 118.618 520, 120.610 520 C 123.708 520, 129.057 515.808, 131.121 511.763 C 133.481 507.136, 153.210 455.866, 152.783 455.470 C 152.627 455.327, 150.853 454.760, 148.840 454.210 L 145.179 453.211 136.962 474.855 M 105.308 465.010 C 104.103 465.495, 102.427 466.944, 101.585 468.230 C 100.171 470.388, 100.244 470.944, 102.527 475.453 C 103.887 478.140, 105 481.838, 105 483.669 C 105 485.501, 105.350 487, 105.777 487 C 106.393 487, 109.425 485.205, 111.831 483.417 C 112.689 482.779, 109.533 464.007, 108.577 464.063 C 107.985 464.098, 106.514 464.524, 105.308 465.010 M 327.773 483.067 C 326.157 484.009, 326.151 484.345, 327.673 488.287 C 329.851 493.925, 329.956 493.987, 334.139 492.087 L 337.778 490.434 335.287 486.217 C 332.781 481.974, 330.960 481.210, 327.773 483.067 M 109.508 489.401 C 106.949 491.960, 106.157 495, 108.050 495 C 108.627 495, 110.387 494.334, 111.961 493.520 C 114.091 492.419, 114.687 491.519, 114.291 490.004 C 113.462 486.836, 112.229 486.680, 109.508 489.401 M 334.250 495.012 C 331.465 496.155, 331.458 496.831, 334.172 502.417 C 336.103 506.391, 336.567 506.767, 338.363 505.806 C 339.474 505.211, 341.383 504.449, 342.606 504.112 L 344.828 503.500 342.664 499 C 340.391 494.274, 338.376 493.319, 334.250 495.012 M 111.200 497.200 C 110.027 498.373, 109.476 504, 110.535 504 C 110.956 504, 114.204 502.134, 116.841 500.378 C 117.029 500.253, 116.886 499.217, 116.524 498.075 C 115.797 495.784, 113.065 495.335, 111.200 497.200 M 78.074 503.877 C 74.671 504.828, 74.417 506.637, 77.574 507.429 C 79.405 507.889, 80.815 507.572, 82.094 506.415 C 85.223 503.583, 83.352 502.402, 78.074 503.877 M 341.804 508.295 L 339.108 509.500 349.160 533 C 354.688 545.925, 359.522 556.836, 359.901 557.246 C 360.281 557.656, 362.430 556.081, 364.676 553.746 L 368.760 549.500 357.692 528.250 C 351.605 516.563, 346.147 507.020, 345.562 507.045 C 344.978 507.070, 343.287 507.632, 341.804 508.295 M 385.025 512.435 C 384.323 514.281, 384.260 516.229, 384.848 517.901 L 385.762 520.500 386.881 517.685 C 388.230 514.291, 388.262 512.963, 387.042 511.034 C 386.302 509.864, 385.895 510.147, 385.025 512.435 M 403.689 517.922 C 401.029 520.866, 399.996 523.048, 399.546 526.672 C 398.349 536.293, 394.990 548.413, 391.683 555.043 L 388.304 561.817 390.742 562.928 C 392.885 563.905, 393.436 563.704, 395.280 561.270 C 396.434 559.746, 401.077 554.864, 405.597 550.420 C 413.037 543.105, 414.017 541.687, 415.962 535.420 C 419.027 525.543, 417.731 520.100, 411.305 515.863 C 409.762 514.845, 408.215 514.010, 407.866 514.007 C 407.518 514.003, 405.638 515.765, 403.689 517.922 M 386 567.362 C 386 569.301, 387.465 570.218, 392.750 571.589 C 396.163 572.474, 397 572.430, 397 571.368 C 397 569.653, 393.362 567.376, 389.250 566.519 C 386.711 565.989, 386 566.174, 386 567.362 M 380.666 577.026 C 376.041 582.171, 374.355 586.392, 375.493 589.980 C 376.003 591.584, 376.693 591.875, 378.818 591.384 C 384.153 590.150, 390.025 585.884, 393.509 580.711 L 397.012 575.509 392.256 573.832 C 389.640 572.910, 386.979 572.120, 386.343 572.078 C 385.706 572.035, 383.152 574.262, 380.666 577.026" stroke="none" fill="black" fill-rule="evenodd"/>
</svg>