<svg xmlns="http://www.w3.org/2000/svg" width="3158" height="3158" viewBox="0 0 3158 3158" version="1.1">
	<path d="M 1584.500 140.047 C 1530.140 141.603, 1489.678 144.399, 1441.500 149.930 C 1402.923 154.359, 1338.767 164.899, 1310 171.534 C 1306.425 172.358, 1295.850 174.812, 1286.500 176.986 C 1277.150 179.159, 1265.225 181.900, 1260 183.076 C 1245.822 186.267, 1223.961 191.965, 1217.500 194.153 C 1215.850 194.712, 1211.350 196.001, 1207.500 197.017 C 1203.650 198.034, 1196.450 200.073, 1191.500 201.548 C 1186.550 203.024, 1181.150 204.577, 1179.500 205 C 1175.015 206.149, 1159.929 210.728, 1156.500 211.981 C 1154.850 212.584, 1146.750 215.293, 1138.500 218.002 C 1102.855 229.704, 1097.119 232.056, 1097.052 235 C 1097.046 235.275, 1099.617 237.075, 1102.766 239 C 1105.915 240.925, 1113.042 247.049, 1118.604 252.609 C 1128.178 262.180, 1130.847 265.946, 1138.024 280.010 C 1140.289 284.449, 1143.463 296.822, 1146.615 313.500 C 1148.827 325.208, 1149.031 328.438, 1148.662 346 C 1148.253 365.530, 1146.634 381.389, 1143.712 394.500 C 1140.682 408.097, 1140.076 410.572, 1138.017 417.742 C 1136.874 421.726, 1135.077 428.026, 1134.024 431.742 C 1130.775 443.209, 1125.839 457.430, 1123.406 462.331 C 1122.633 463.888, 1122 465.632, 1122 466.206 C 1122 467.132, 1119.401 473.661, 1115.512 482.500 C 1114.786 484.150, 1113.204 487.750, 1111.996 490.500 C 1108.848 497.664, 1090.766 534.137, 1085.991 542.953 C 1081.835 550.627, 1070.848 570.002, 1068.707 573.434 C 1063.373 581.983, 1062 584.677, 1062 586.589 C 1062 589.162, 1063.692 590.043, 1066.500 588.932 C 1067.600 588.497, 1071.200 588.093, 1074.500 588.035 C 1077.800 587.977, 1081.625 587.286, 1083 586.500 C 1085.945 584.817, 1104 584.387, 1104 586 C 1104 586.550, 1104.900 587, 1106 587 C 1107.467 587, 1108 587.667, 1108 589.500 C 1108 591.789, 1108.373 592, 1112.412 592 C 1116.780 592, 1116.831 592.040, 1117.500 596 C 1118.134 599.753, 1118.386 600, 1121.588 600 C 1123.836 600, 1125 600.475, 1125 601.392 C 1125 602.157, 1126.125 603.066, 1127.500 603.411 C 1129.114 603.816, 1130 604.740, 1130 606.019 C 1130 607.616, 1130.678 608, 1133.500 608 C 1136.333 608, 1137 608.381, 1137 610 C 1137 611.467, 1137.667 612, 1139.500 612 C 1141.500 612, 1142 612.500, 1142 614.500 C 1142 616.333, 1142.533 617, 1144 617 C 1145.333 617, 1146 617.667, 1146 619 C 1146 620.778, 1146.667 621, 1152 621 L 1158 621 1158 625 C 1158 628.333, 1158.333 629, 1160 629 C 1161.333 629, 1162 629.667, 1162 631 C 1162 632.467, 1162.667 633, 1164.500 633 C 1166.333 633, 1167 633.533, 1167 635 C 1167 636.333, 1167.667 637, 1169 637 C 1170.467 637, 1171 637.667, 1171 639.500 C 1171 641.333, 1171.533 642, 1173 642 C 1174.667 642, 1175 642.667, 1175 646 C 1175 649.333, 1175.333 650, 1177 650 C 1178.333 650, 1179 650.667, 1179 652 C 1179 653.333, 1179.667 654, 1181 654 C 1182.333 654, 1183 654.667, 1183 656 C 1183 657.333, 1183.667 658, 1185 658 C 1186.704 658, 1187 658.667, 1187 662.500 L 1187 667 1191.500 667 L 1196 667 1196 671 C 1196 674.333, 1195.667 675, 1194 675 C 1192.667 675, 1192 675.667, 1192 677 C 1192 678.667, 1192.667 679, 1196 679 C 1199.333 679, 1200 679.333, 1200 681 C 1200 682.333, 1200.667 683, 1202 683 C 1203.333 683, 1204 683.667, 1204 685 C 1204 686.333, 1203.333 687, 1202 687 C 1200.533 687, 1200 687.667, 1200 689.500 C 1200 691.333, 1200.533 692, 1202 692 C 1203.778 692, 1204 692.667, 1204 698 L 1204 704 1208 704 C 1211.333 704, 1212 704.333, 1212 706 C 1212 707.333, 1211.333 708, 1210 708 C 1208.339 708, 1208 708.667, 1208 711.939 C 1208 715.840, 1208.043 715.884, 1212.500 716.552 L 1217 717.227 1217 723.114 C 1217 728.726, 1216.884 729, 1214.500 729 C 1212.667 729, 1212 729.533, 1212 731 C 1212 732.467, 1212.667 733, 1214.500 733 C 1216.333 733, 1217 733.533, 1217 735 C 1217 736.333, 1217.667 737, 1219 737 C 1220.704 737, 1221 737.667, 1221 741.500 C 1221 744.833, 1220.611 746, 1219.500 746 C 1218.667 746, 1218 746.889, 1218 748 C 1218 749.111, 1218.667 750, 1219.500 750 C 1220.333 750, 1221 750.889, 1221 752 C 1221 753.333, 1220.333 754, 1219 754 C 1217.333 754, 1217 754.667, 1217 758 C 1217 761.333, 1217.333 762, 1219 762 C 1220.873 762, 1221 762.667, 1221 772.500 C 1221 782.539, 1220.907 783, 1218.875 783 C 1217.028 783, 1216.832 783.409, 1217.375 786.125 C 1217.719 787.844, 1218 790.769, 1218 792.625 C 1218 794.958, 1218.463 796, 1219.500 796 C 1220.333 796, 1221 796.889, 1221 798 C 1221 799.333, 1220.333 800, 1219 800 C 1217.667 800, 1217 800.667, 1217 802 C 1217 803.333, 1217.667 804, 1219 804 C 1220.843 804, 1221 804.667, 1221 812.500 L 1221 821 1216.500 821 L 1212 821 1212 825 C 1212 828.600, 1212.250 829, 1214.500 829 C 1216.333 829, 1217 829.533, 1217 831 C 1217 832.467, 1216.333 833, 1214.500 833 C 1212.204 833, 1212 833.367, 1212 837.500 C 1212 841.333, 1211.704 842, 1210 842 C 1208.667 842, 1208 842.667, 1208 844 C 1208 845.333, 1208.667 846, 1210 846 C 1211.333 846, 1212 846.667, 1212 848 C 1212 849.333, 1211.333 850, 1210 850 C 1208.667 850, 1208 850.667, 1208 852 C 1208 853.373, 1207.333 854, 1205.875 854 C 1204.064 854, 1203.836 854.428, 1204.329 856.895 C 1205.303 861.763, 1204.018 867, 1201.851 867 C 1200.298 867, 1200.002 867.664, 1200.182 870.750 C 1200.303 872.813, 1200.311 876.413, 1200.201 878.750 C 1200.035 882.266, 1199.655 883, 1198 883 C 1196.667 883, 1196 883.667, 1196 885 C 1196 886.100, 1195.384 887, 1194.631 887 C 1193.262 887, 1192.033 891.810, 1192.011 897.250 C 1192.001 899.852, 1191.751 900, 1187.375 900 L 1182.750 900 1183.375 903.125 C 1183.719 904.844, 1184 906.644, 1184 907.125 C 1184 907.606, 1184.675 908, 1185.500 908 C 1186.325 908, 1187 908.675, 1187 909.500 C 1187 911.440, 1183.248 911.464, 1182.823 909.526 C 1182.604 908.528, 1182.045 908.337, 1181.090 908.934 C 1180.259 909.454, 1179.489 912.114, 1179.216 915.408 C 1178.831 920.046, 1178.432 921, 1176.876 921 C 1175.667 921, 1175 921.711, 1175 923 C 1175 924.333, 1174.333 925, 1173 925 C 1171.333 925, 1171 925.667, 1171 929 C 1171 932.333, 1170.667 933, 1169 933 C 1167.667 933, 1167 933.667, 1167 935 C 1167 936.467, 1166.333 937, 1164.500 937 C 1162.500 937, 1162 937.500, 1162 939.500 C 1162 940.955, 1161.425 942, 1160.625 942 C 1159.254 942, 1158 946.120, 1158 950.625 C 1158 954.560, 1156.303 953.295, 1155.716 948.922 C 1155.416 946.680, 1154.494 944.092, 1153.669 943.172 C 1152.844 942.253, 1151.852 939.790, 1151.464 937.701 C 1151.076 935.611, 1150.138 933.281, 1149.380 932.522 C 1148.621 931.764, 1148 930.686, 1148 930.128 C 1148 928.585, 1143.836 926, 1141.349 926 C 1138.107 926, 1136 928.656, 1136 932.743 C 1136 934.723, 1135.306 937.110, 1134.457 938.047 C 1133.609 938.985, 1132.648 941.495, 1132.322 943.626 C 1131.996 945.757, 1131.060 948.271, 1130.242 949.214 C 1129.424 950.157, 1128.356 953.066, 1127.867 955.680 C 1127.379 958.293, 1126.361 960.778, 1125.606 961.201 C 1124.850 961.624, 1123.922 964.034, 1123.544 966.557 C 1123.165 969.080, 1121.988 972.012, 1120.928 973.072 C 1119.595 974.405, 1119 976.389, 1119 979.500 C 1119 982.680, 1118.591 984, 1117.607 984 C 1115.808 984, 1115 986.196, 1115 991.082 C 1115 994.333, 1114.660 995, 1113 995 C 1111.245 995, 1111 995.667, 1111 1000.441 C 1111 1006.382, 1109.497 1008.399, 1107.304 1005.403 C 1106.373 1004.132, 1106.121 1002.255, 1106.543 999.750 C 1107.053 996.726, 1106.869 996, 1105.588 996 C 1104.667 996, 1104 996.840, 1104 998 C 1104 999.667, 1103.333 1000, 1100 1000 L 1096 1000 1096 1004 L 1096 1008 1092 1008 C 1088.742 1008, 1088 1008.351, 1088 1009.893 C 1088 1012.049, 1086.137 1013, 1081.918 1013 C 1079.667 1013, 1079 1013.457, 1079 1015 C 1079 1016.111, 1078.333 1017, 1077.500 1017 C 1076.671 1017, 1076 1017.887, 1076 1018.981 C 1076 1020.260, 1075.114 1021.184, 1073.500 1021.589 C 1072.125 1021.934, 1071 1022.843, 1071 1023.608 C 1071 1024.591, 1069.678 1025, 1066.500 1025 C 1062.667 1025, 1062 1025.296, 1062 1027 C 1062 1028.333, 1061.333 1029, 1060 1029 C 1058.667 1029, 1058 1029.667, 1058 1031 C 1058 1032.333, 1057.333 1033, 1056 1033 C 1054.667 1033, 1054 1033.667, 1054 1035 C 1054 1036.667, 1053.333 1037, 1050 1037 C 1046.400 1037, 1046 1037.250, 1046 1039.500 C 1046 1041.796, 1045.633 1042, 1041.500 1042 C 1037.667 1042, 1037 1042.296, 1037 1044 C 1037 1045.333, 1036.333 1046, 1035 1046 C 1033.889 1046, 1033 1045.333, 1033 1044.500 C 1033 1043.667, 1032.111 1043, 1031 1043 C 1029.381 1043, 1029 1043.667, 1029 1046.500 C 1029 1049.333, 1028.619 1050, 1027 1050 C 1025.667 1050, 1025 1049.333, 1025 1048 C 1025 1046.667, 1024.333 1046, 1023 1046 C 1021.667 1046, 1021 1046.667, 1021 1048 C 1021 1049.333, 1020.333 1050, 1019 1050 C 1017.667 1050, 1017 1050.667, 1017 1052 C 1017 1053.704, 1016.333 1054, 1012.500 1054 C 1008.667 1054, 1008 1054.296, 1008 1056 C 1008 1057.333, 1007.333 1058, 1006 1058 C 1004.667 1058, 1004 1057.333, 1004 1056 C 1004 1054.667, 1003.333 1054, 1002 1054 C 1000.667 1054, 1000 1054.667, 1000 1056 C 1000 1057.512, 999.330 1058.003, 997.250 1058.011 C 991.810 1058.033, 987 1059.262, 987 1060.631 C 987 1061.384, 986.100 1062, 985 1062 C 983.533 1062, 983 1062.667, 983 1064.500 C 983 1066.889, 982.733 1067, 977 1067 C 971.267 1067, 971 1066.889, 971 1064.500 C 971 1062.667, 970.467 1062, 969 1062 C 967.296 1062, 967 1062.667, 967 1066.500 L 967 1071 954.500 1071 C 942.667 1071, 942 1071.107, 942 1073 C 942 1074.704, 941.333 1075, 937.500 1075 C 933.667 1075, 933 1074.704, 933 1073 C 933 1071.667, 932.333 1071, 931 1071 C 929.667 1071, 929 1071.667, 929 1073 C 929 1074.893, 928.333 1075, 916.500 1075 C 904.667 1075, 904 1074.893, 904 1073 C 904 1071.667, 903.333 1071, 902 1071 C 900.667 1071, 900 1071.667, 900 1073 C 900 1074.795, 899.333 1075, 893.500 1075 C 887.667 1075, 887 1075.205, 887 1077 C 887 1078.333, 886.333 1079, 885 1079 C 883.667 1079, 883 1078.333, 883 1077 C 883 1075.333, 882.333 1075, 879 1075 C 875.667 1075, 875 1074.667, 875 1073 C 875 1071.333, 874.333 1071, 871 1071 C 867.667 1071, 867 1071.333, 867 1073 C 867 1074.704, 866.333 1075, 862.500 1075 C 859.167 1075, 858 1074.611, 858 1073.500 C 858 1072.667, 857.111 1072, 856 1072 C 854.889 1072, 854 1072.667, 854 1073.500 C 854 1074.583, 852.889 1075, 850 1075 C 846.667 1075, 846 1074.667, 846 1073 C 846 1071.667, 845.333 1071, 844 1071 C 842.667 1071, 842 1070.333, 842 1069 C 842 1067.107, 841.333 1067, 829.500 1067 L 817 1067 817 1064.500 C 817 1062.029, 816.900 1062, 808.500 1062 C 800.667 1062, 800 1061.843, 800 1060 C 800 1058.333, 799.333 1058, 796 1058 C 793.273 1058, 792 1057.563, 792 1056.625 C 792 1055.869, 790.650 1054.980, 789 1054.650 C 787.240 1054.298, 786 1053.419, 786 1052.525 C 786 1051.579, 785.082 1051, 783.582 1051 C 779.853 1051, 778 1049.968, 778 1047.893 C 778 1046.852, 777.325 1046, 776.500 1046 C 775.667 1046, 775 1046.889, 775 1048 C 775 1049.333, 774.333 1050, 773 1050 C 771.667 1050, 771 1049.333, 771 1048 C 771 1046.667, 770.333 1046, 769 1046 C 767.667 1046, 767 1045.333, 767 1044 C 767 1042.296, 766.333 1042, 762.500 1042 L 758 1042 758 1038.125 C 758 1034.585, 757.730 1034.196, 754.875 1033.625 C 753.156 1033.281, 750.456 1033, 748.875 1033 C 746.667 1033, 746 1032.536, 746 1031 C 746 1029.296, 745.333 1029, 741.500 1029 C 737.667 1029, 737 1028.704, 737 1027 C 737 1025.667, 736.333 1025, 735 1025 C 733.333 1025, 733 1024.333, 733 1021 C 733 1017.667, 732.667 1017, 731 1017 C 729.533 1017, 729 1016.333, 729 1014.500 C 729 1012.667, 728.467 1012, 727 1012 C 725.667 1012, 725 1011.333, 725 1010 C 725 1008.667, 724.333 1008, 723 1008 C 721.667 1008, 721 1008.667, 721 1010 C 721 1011.333, 720.333 1012, 719 1012 C 717.333 1012, 717 1011.333, 717 1008 C 717 1004.400, 716.750 1004, 714.500 1004 C 712.250 1004, 712 1003.600, 712 1000 C 712 996.010, 711.990 996, 708.061 996 C 704.160 996, 704.116 995.957, 703.448 991.500 C 702.801 987.185, 702.633 987, 699.386 987 C 696.667 987, 696 986.606, 696 985 C 696 983.667, 695.333 983, 694 983 C 692.667 983, 692 982.333, 692 981 C 692 979.667, 692.667 979, 694 979 C 695.333 979, 696 978.333, 696 977 C 696 975.296, 695.333 975, 691.500 975 C 687.051 975, 687 974.961, 687 971.608 C 687 968.825, 686.552 968.104, 684.500 967.589 C 682.674 967.131, 682 966.293, 682 964.481 C 682 962.942, 681.430 962, 680.500 962 C 679.667 962, 679 961.111, 679 960 C 679 958.667, 679.667 958, 681 958 C 683.089 958, 683.376 957.006, 682.372 953.260 C 681.879 951.419, 681.301 951.134, 679.136 951.664 C 677.686 952.018, 676.225 952.727, 675.888 953.239 C 675.552 953.752, 674.877 954.186, 674.388 954.205 C 673.900 954.224, 672.458 954.636, 671.185 955.120 C 669.912 955.604, 668.461 956, 667.962 956 C 667.462 956, 665.129 956.870, 662.777 957.934 C 660.425 958.997, 656.445 960.797, 653.934 961.934 C 651.423 963.070, 648.978 964, 648.500 964 C 648.022 964, 645.689 964.900, 643.316 966 C 640.942 967.100, 637.058 968.900, 634.684 970 C 632.311 971.100, 629.701 972, 628.884 972 C 628.068 972, 626.960 972.440, 626.422 972.978 C 625.388 974.012, 621.573 975.400, 603 981.500 C 596.675 983.577, 589.392 986.114, 586.815 987.138 C 584.238 988.162, 581.178 989, 580.015 989 C 578.852 989, 576.587 989.679, 574.981 990.510 C 573.375 991.340, 569.460 992.430, 566.281 992.932 C 563.101 993.434, 558.475 994.508, 556 995.320 C 547.505 998.104, 518.046 1000.501, 492.500 1000.485 C 469.523 1000.471, 467.988 1000.348, 456.500 997.590 C 435.355 992.513, 418.086 983.318, 404.893 970.114 C 393.194 958.404, 386.443 946.864, 377.450 923.207 C 374.982 916.715, 372.561 901.243, 371.551 885.500 C 370.240 865.076, 376.589 823.679, 384.970 798 C 385.957 794.975, 387.983 788.450, 389.472 783.500 C 390.961 778.550, 392.814 773.022, 393.590 771.216 C 395.244 767.364, 395.403 764.367, 394 763.500 C 393.450 763.160, 393 763.335, 393 763.889 C 393 764.444, 391.987 766.034, 390.750 767.425 C 389.512 768.815, 387.375 771.557, 386 773.517 C 384.625 775.478, 382.119 778.976, 380.431 781.291 C 372.569 792.074, 341.952 837.544, 334.769 849.105 C 333.267 851.522, 331.467 854.388, 330.769 855.474 C 323.813 866.293, 321.435 870.173, 316.362 878.981 C 313.138 884.578, 309.825 890.212, 309 891.501 C 306.326 895.678, 290.733 923.288, 286.693 931 C 284.532 935.125, 280.573 942.632, 277.895 947.683 C 268.198 965.972, 243 1017.096, 243 1018.479 C 243 1018.676, 240.975 1023.113, 238.500 1028.339 C 236.025 1033.565, 234 1038.094, 234 1038.403 C 234 1038.712, 232.031 1043.136, 229.624 1048.233 C 220.680 1067.177, 218 1073.098, 218 1073.917 C 218 1074.380, 216.845 1077.400, 215.433 1080.629 C 212.894 1086.434, 210.889 1091.277, 207 1101 C 205.900 1103.750, 204.144 1108.138, 203.097 1110.750 C 197.769 1124.050, 190.381 1143.898, 188.487 1150 C 186.691 1155.787, 183.175 1165.926, 182.072 1168.500 C 181.601 1169.600, 179.962 1174.550, 178.431 1179.500 C 176.899 1184.450, 174.198 1193, 172.428 1198.500 C 170.659 1204, 167.549 1214.125, 165.518 1221 C 163.488 1227.875, 161.448 1234.625, 160.986 1236 C 160.523 1237.375, 159.008 1242.775, 157.618 1248 C 153.553 1263.279, 150.959 1272.984, 148.797 1281 C 146.634 1289.020, 144.984 1295.732, 142.037 1308.500 C 141.022 1312.900, 139.249 1320.550, 138.097 1325.500 C 136.945 1330.450, 135.122 1338.775, 134.044 1344 C 132.967 1349.225, 131.651 1355.075, 131.119 1357 C 130.588 1358.925, 129.863 1362.975, 129.508 1366 C 129.154 1369.025, 128.254 1373.525, 127.510 1376 C 126.765 1378.475, 125.864 1383.200, 125.507 1386.500 C 125.150 1389.800, 124.247 1394.975, 123.500 1398 C 122.753 1401.025, 121.854 1406.200, 121.501 1409.500 C 121.148 1412.800, 119.991 1419.862, 118.930 1425.192 C 117.868 1430.523, 116.993 1436.823, 116.985 1439.192 C 116.977 1441.562, 116.291 1446.382, 115.461 1449.904 C 114.631 1453.426, 113.508 1461.769, 112.966 1468.445 C 112.424 1475.120, 111.527 1482.138, 110.974 1484.041 C 110.421 1485.943, 109.519 1494.098, 108.970 1502.162 C 108.421 1510.227, 107.539 1519.002, 107.010 1521.662 C 106.481 1524.323, 105.570 1536.175, 104.988 1548 C 104.405 1559.825, 103.436 1573.775, 102.836 1579 C 101.232 1592.955, 100.532 1711.388, 101.952 1728.657 C 102.578 1736.271, 103.699 1754.057, 104.443 1768.181 C 105.188 1782.306, 106.060 1794.289, 106.382 1794.809 C 106.704 1795.330, 107.649 1803.798, 108.482 1813.628 C 109.316 1823.458, 110.670 1835.775, 111.492 1841 C 112.314 1846.225, 112.989 1852.379, 112.993 1854.676 C 112.997 1856.974, 113.900 1863.419, 115 1869 C 116.100 1874.581, 117 1881.269, 117 1883.863 C 117 1886.457, 117.663 1891.124, 118.473 1894.234 C 119.283 1897.344, 120.430 1904.076, 121.022 1909.194 C 121.615 1914.312, 122.549 1919.850, 123.098 1921.500 C 123.647 1923.150, 124.548 1928.100, 125.102 1932.500 C 125.655 1936.900, 126.728 1942.750, 127.487 1945.500 C 128.246 1948.250, 129.152 1952.975, 129.501 1956 C 129.850 1959.025, 130.743 1963.525, 131.485 1966 C 132.227 1968.475, 133.120 1972.300, 133.469 1974.500 C 135.335 1986.243, 148.009 2038.723, 155.361 2065.151 C 165.221 2100.596, 179.231 2146.266, 182.550 2153.784 C 183.348 2155.590, 184 2157.547, 184 2158.133 C 184 2158.719, 184.667 2160.616, 185.483 2162.349 C 186.299 2164.082, 187.609 2167.525, 188.395 2170 C 192.472 2182.847, 205.908 2217.983, 211.587 2230.651 C 212.364 2232.384, 213 2234.116, 213 2234.500 C 213 2234.884, 213.647 2236.616, 214.438 2238.349 C 215.228 2240.082, 217.036 2244.425, 218.455 2248 C 219.875 2251.575, 221.910 2256.300, 222.979 2258.500 C 224.048 2260.700, 228.067 2269.700, 231.909 2278.500 C 235.752 2287.300, 240.495 2297.774, 242.448 2301.776 C 244.402 2305.778, 246 2309.274, 246 2309.544 C 246 2310.205, 268.003 2354.196, 273.987 2365.500 C 276.608 2370.450, 280.843 2378.476, 283.399 2383.336 C 287.470 2391.078, 295.460 2405.632, 298.037 2410 C 298.894 2411.452, 310.475 2431.298, 312.500 2434.785 C 315.827 2440.513, 322.457 2451.114, 329.519 2462 C 333.980 2468.875, 339.400 2477.352, 341.565 2480.837 C 347.182 2489.883, 366.758 2519.365, 372.036 2526.727 C 396.003 2560.157, 403.121 2569.841, 414.876 2585 C 422.339 2594.625, 430.483 2605.021, 432.973 2608.103 C 435.463 2611.184, 440.268 2617.259, 443.651 2621.603 C 447.033 2625.946, 450.858 2630.670, 452.151 2632.099 C 453.443 2633.529, 460.800 2642.037, 468.500 2651.008 C 498.644 2686.125, 513.007 2701.503, 558.750 2747.638 C 570.822 2759.814, 580.978 2770.501, 581.319 2771.388 C 581.659 2772.275, 582.450 2773, 583.078 2773 C 584.881 2773, 588.964 2777.321, 588.983 2779.250 C 588.992 2780.213, 589.649 2781, 590.443 2781 C 591.237 2781, 592.475 2781.795, 593.193 2782.767 C 593.912 2783.739, 595.682 2785.289, 597.128 2786.210 C 598.573 2787.132, 602.256 2790.387, 605.312 2793.443 C 608.369 2796.499, 611.349 2799, 611.935 2799 C 612.521 2799, 613 2799.438, 613 2799.974 C 613 2800.510, 614.294 2801.618, 615.875 2802.435 C 618.362 2803.721, 623.254 2807.671, 628.961 2813 C 629.844 2813.825, 632.577 2815.839, 635.034 2817.476 C 637.490 2819.112, 641.355 2822.200, 643.622 2824.337 C 645.889 2826.474, 649.744 2829.410, 652.187 2830.861 C 656.641 2833.506, 658.195 2834.695, 662.297 2838.594 C 663.509 2839.746, 666.300 2841.748, 668.500 2843.043 C 670.700 2844.337, 674.525 2847.057, 677 2849.088 C 679.475 2851.118, 682.400 2853.057, 683.500 2853.397 C 684.600 2853.737, 687.489 2855.812, 689.920 2858.008 C 692.351 2860.203, 694.846 2862, 695.466 2862 C 696.780 2862, 700.338 2864.545, 703.506 2867.750 C 704.729 2868.988, 706.065 2870, 706.475 2870 C 707.674 2870, 717 2876.265, 717 2877.071 C 717 2877.474, 718.237 2878.279, 719.750 2878.859 C 721.263 2879.439, 724.300 2881.273, 726.500 2882.935 C 728.700 2884.597, 731.611 2886.443, 732.968 2887.037 C 734.325 2887.630, 737.326 2889.665, 739.636 2891.558 C 741.946 2893.451, 744.522 2895, 745.359 2895 C 746.197 2895, 747.145 2895.426, 747.467 2895.947 C 748.179 2897.099, 756.822 2902.999, 757.800 2903.001 C 758.185 2903.002, 761.016 2904.749, 764.090 2906.883 C 767.165 2909.018, 770.593 2911.054, 771.709 2911.407 C 772.824 2911.761, 774.540 2912.940, 775.523 2914.026 C 776.506 2915.111, 778.108 2916, 779.084 2916 C 780.059 2916, 781.455 2916.598, 782.187 2917.329 C 782.918 2918.061, 784.713 2919.298, 786.176 2920.079 C 787.638 2920.861, 792.313 2923.525, 796.563 2926 C 800.814 2928.475, 807.039 2931.999, 810.396 2933.831 C 813.753 2935.663, 817.175 2937.713, 818 2938.388 C 818.825 2939.062, 820.625 2940.176, 822 2940.864 C 823.375 2941.552, 826.750 2943.404, 829.500 2944.980 C 834.082 2947.605, 851.445 2956.690, 857.829 2959.802 C 859.298 2960.518, 861.175 2961.534, 862 2962.059 C 862.825 2962.585, 864.625 2963.509, 866 2964.114 C 867.375 2964.719, 869.175 2965.621, 870 2966.119 C 870.825 2966.618, 873.300 2967.914, 875.500 2969 C 877.700 2970.086, 880.175 2971.382, 881 2971.881 C 881.825 2972.379, 883.625 2973.281, 885 2973.886 C 886.375 2974.491, 888.175 2975.423, 889 2975.958 C 889.825 2976.492, 896.350 2979.680, 903.500 2983.041 C 922.846 2992.135, 924.309 2992.794, 926.660 2993.463 C 927.848 2993.801, 929.365 2994.735, 930.032 2995.539 C 930.699 2996.342, 932.225 2997, 933.422 2997 C 934.620 2997, 936.027 2997.410, 936.550 2997.911 C 937.375 2998.703, 949.092 3004.064, 960 3008.640 C 961.925 3009.448, 964.694 3010.759, 966.154 3011.554 C 967.614 3012.349, 969.427 3013, 970.182 3013 C 970.937 3013, 972.668 3013.781, 974.027 3014.736 C 975.387 3015.690, 978.525 3017.209, 981 3018.111 C 993.089 3022.517, 999.628 3025.176, 1004 3027.462 C 1005.375 3028.181, 1008.075 3029.102, 1010 3029.509 C 1011.925 3029.916, 1014.694 3031.093, 1016.154 3032.124 C 1017.614 3033.156, 1019.770 3034, 1020.944 3034 C 1022.119 3034, 1024.844 3034.900, 1027 3036 C 1029.156 3037.100, 1031.726 3038.010, 1032.710 3038.022 C 1033.695 3038.034, 1035.625 3038.924, 1037 3040 C 1038.375 3041.076, 1040.727 3041.966, 1042.226 3041.978 C 1043.725 3041.990, 1046.425 3042.898, 1048.226 3043.996 C 1050.027 3045.094, 1052.815 3045.994, 1054.421 3045.996 C 1056.028 3045.998, 1058.110 3046.694, 1059.047 3047.543 C 1059.985 3048.391, 1062.495 3049.352, 1064.626 3049.678 C 1066.757 3050.004, 1069.209 3050.884, 1070.076 3051.633 C 1070.943 3052.382, 1073.692 3053.377, 1076.185 3053.842 C 1078.678 3054.308, 1081.782 3055.434, 1083.082 3056.345 C 1084.381 3057.255, 1087.228 3058, 1089.408 3058 C 1091.901 3058, 1094.137 3058.702, 1095.436 3059.891 C 1096.571 3060.931, 1099.647 3062.033, 1102.271 3062.340 C 1104.894 3062.647, 1107.739 3063.596, 1108.592 3064.449 C 1109.519 3065.376, 1111.897 3066, 1114.500 3066 C 1117.035 3066, 1119.483 3066.626, 1120.353 3067.496 C 1122.364 3069.507, 1126.492 3071, 1130.041 3071 C 1131.642 3071, 1134.425 3071.898, 1136.226 3072.996 C 1138.027 3074.094, 1141.229 3074.994, 1143.342 3074.996 C 1145.666 3074.999, 1148.190 3075.791, 1149.727 3077 C 1151.421 3078.332, 1153.784 3079, 1156.806 3079 C 1159.661 3079, 1162.034 3079.626, 1163.209 3080.689 C 1164.387 3081.756, 1167.364 3082.536, 1171.287 3082.809 C 1175.656 3083.111, 1178.031 3083.797, 1179.289 3085.120 C 1180.671 3086.572, 1182.513 3087, 1187.384 3087 C 1192.420 3087, 1194.055 3087.403, 1195.500 3089 C 1196.966 3090.620, 1198.580 3091, 1204.002 3091 C 1209.259 3091, 1211.189 3091.429, 1213 3093 C 1214.716 3094.488, 1216.741 3095, 1220.918 3095 C 1224.749 3095, 1227.794 3095.680, 1230.515 3097.144 C 1233.112 3098.541, 1236.663 3099.375, 1240.708 3099.538 C 1245.234 3099.720, 1247.641 3100.359, 1249.593 3101.894 C 1251.694 3103.547, 1253.674 3104, 1258.806 3104 C 1263.629 3104, 1265.849 3104.459, 1267.274 3105.750 C 1268.779 3107.114, 1271.437 3107.577, 1279.323 3107.851 C 1287.385 3108.130, 1289.931 3108.587, 1291.855 3110.101 C 1293.762 3111.601, 1295.923 3112, 1302.138 3112 C 1308.097 3112, 1310.913 3112.486, 1313.739 3114 C 1316.577 3115.521, 1319.390 3116.002, 1325.485 3116.007 C 1331.801 3116.012, 1334.136 3116.434, 1336.500 3118 C 1339.033 3119.678, 1341.212 3119.989, 1350.500 3120 C 1359.788 3120.011, 1361.967 3120.322, 1364.500 3122 C 1367.084 3123.711, 1369.207 3123.988, 1379.805 3123.993 C 1390.285 3123.999, 1392.806 3124.320, 1396.805 3126.159 C 1400.985 3128.080, 1403.132 3128.307, 1416.374 3128.222 C 1429.332 3128.139, 1431.909 3128.398, 1436.374 3130.229 C 1441.016 3132.131, 1443.804 3132.358, 1465.879 3132.626 C 1485.146 3132.861, 1490.597 3133.219, 1491.879 3134.338 C 1494.111 3136.287, 1499.256 3136.414, 1576.500 3136.433 C 1654.271 3136.452, 1658.874 3136.336, 1661.192 3134.289 C 1662.576 3133.067, 1667.293 3132.753, 1687.192 3132.562 C 1708.971 3132.352, 1712.089 3132.111, 1717.160 3130.249 C 1721.993 3128.473, 1724.986 3128.181, 1737.660 3128.248 C 1751.065 3128.319, 1752.885 3128.118, 1756.485 3126.163 C 1759.955 3124.280, 1762.056 3124, 1772.739 3124 C 1783.097 3124, 1785.588 3123.689, 1788.739 3122 C 1791.814 3120.352, 1794.381 3120, 1803.327 3120 C 1812.670 3120, 1814.539 3119.721, 1816.727 3118 C 1818.821 3116.353, 1820.790 3115.999, 1827.885 3115.993 C 1834.800 3115.988, 1837.092 3115.595, 1839.500 3114 C 1841.908 3112.405, 1844.200 3112.012, 1851.115 3112.007 C 1858.210 3112.001, 1860.179 3111.647, 1862.273 3110 C 1864.356 3108.361, 1866.330 3108, 1873.196 3108 C 1879.603 3108, 1882.501 3107.529, 1885.500 3106 C 1888.053 3104.698, 1891.397 3104, 1895.077 3104 C 1899.239 3104, 1901.409 3103.466, 1903.304 3101.975 C 1905.184 3100.497, 1907.809 3099.841, 1913.034 3099.544 C 1918.074 3099.258, 1920.776 3098.608, 1922.169 3097.347 C 1923.564 3096.085, 1926.262 3095.438, 1931.323 3095.153 C 1936.355 3094.869, 1939.213 3094.188, 1940.885 3092.874 C 1942.635 3091.499, 1944.924 3091, 1949.482 3091 C 1954.259 3091, 1956.227 3090.538, 1958 3089 C 1959.727 3087.503, 1961.741 3087, 1966.018 3087 C 1970.216 3087, 1972.404 3086.470, 1974.273 3085 C 1976.007 3083.636, 1978.355 3082.993, 1981.658 3082.978 C 1984.918 3082.963, 1987.317 3082.317, 1989 3081 C 1990.644 3079.714, 1993.081 3079.037, 1996.115 3079.022 C 1999.190 3079.007, 2001.579 3078.332, 2003.273 3077 C 2004.952 3075.679, 2007.330 3075, 2010.273 3075 C 2013.216 3075, 2015.594 3074.321, 2017.273 3073 C 2018.697 3071.879, 2021.330 3071, 2023.259 3071 C 2025.153 3071, 2028.818 3069.875, 2031.404 3068.500 C 2034.038 3067.099, 2037.774 3066, 2039.898 3066 C 2042.420 3066, 2044.296 3065.330, 2045.500 3064 C 2046.667 3062.710, 2048.586 3061.998, 2050.905 3061.993 C 2052.882 3061.990, 2055.850 3061.093, 2057.500 3060 C 2059.150 3058.907, 2062.075 3058.007, 2064 3058 C 2065.925 3057.993, 2068.850 3057.093, 2070.500 3056 C 2072.150 3054.907, 2074.902 3054.010, 2076.615 3054.007 C 2078.328 3054.003, 2080.874 3053.100, 2082.273 3052 C 2083.671 3050.900, 2086.094 3049.997, 2087.658 3049.993 C 2089.221 3049.990, 2091.850 3049.093, 2093.500 3048 C 2095.150 3046.907, 2097.781 3046.010, 2099.346 3046.007 C 2100.911 3046.003, 2103.386 3045.166, 2104.846 3044.147 C 2106.306 3043.127, 2109.243 3042.021, 2111.374 3041.689 C 2113.505 3041.357, 2116.015 3040.391, 2116.953 3039.543 C 2117.890 3038.694, 2119.747 3037.998, 2121.079 3037.996 C 2122.410 3037.994, 2124.973 3037.094, 2126.774 3035.996 C 2128.575 3034.898, 2131.102 3034, 2132.389 3034 C 2133.677 3034, 2135.874 3033.100, 2137.273 3032 C 2138.671 3030.900, 2140.546 3030, 2141.438 3030 C 2143.013 3030, 2153.806 3025.896, 2157.162 3024.021 C 2158.077 3023.510, 2162.577 3021.708, 2167.162 3020.015 C 2171.748 3018.322, 2177.164 3016.051, 2179.198 3014.969 C 2181.232 3013.886, 2183.539 3013, 2184.326 3013 C 2185.112 3013, 2186.291 3012.354, 2186.947 3011.564 C 2187.602 3010.775, 2189.570 3009.823, 2191.319 3009.449 C 2193.069 3009.075, 2194.950 3008.425, 2195.500 3008.005 C 2196.050 3007.585, 2199.875 3005.784, 2204 3004.003 C 2216.714 2998.513, 2222.437 2995.917, 2224 2994.933 C 2224.825 2994.413, 2226.175 2993.736, 2227 2993.429 C 2227.825 2993.122, 2230.300 2992.049, 2232.500 2991.044 C 2234.700 2990.039, 2238.750 2988.226, 2241.500 2987.015 C 2245.881 2985.086, 2261.322 2977.533, 2267.750 2974.175 C 2268.988 2973.529, 2271.013 2972.470, 2272.250 2971.823 C 2273.488 2971.175, 2282.825 2966.401, 2293 2961.214 C 2311.248 2951.912, 2324.806 2944.614, 2331.880 2940.285 C 2333.871 2939.067, 2336.932 2937.386, 2338.682 2936.550 C 2340.432 2935.714, 2342.124 2934.608, 2342.443 2934.092 C 2342.762 2933.576, 2344.368 2932.858, 2346.011 2932.497 C 2347.655 2932.136, 2349 2931.478, 2349 2931.034 C 2349 2930.591, 2350.688 2929.435, 2352.750 2928.466 C 2354.813 2927.497, 2356.725 2926.390, 2357 2926.007 C 2357.527 2925.271, 2361.430 2923.065, 2366.580 2920.594 C 2368.273 2919.781, 2370.241 2918.415, 2370.952 2917.558 C 2371.663 2916.701, 2372.977 2915.999, 2373.872 2915.999 C 2374.768 2915.998, 2378.092 2914.198, 2381.261 2911.999 C 2384.429 2909.799, 2387.443 2908, 2387.959 2908 C 2388.475 2908, 2390.111 2906.875, 2391.595 2905.500 C 2393.078 2904.125, 2394.672 2903, 2395.135 2903 C 2395.599 2903, 2398.571 2901.201, 2401.739 2899.001 C 2404.908 2896.802, 2408.272 2895.002, 2409.215 2895.001 C 2410.158 2895.001, 2411.411 2894.100, 2412 2893 C 2412.589 2891.900, 2413.660 2891, 2414.380 2891 C 2415.101 2891, 2416.505 2890.100, 2417.500 2889 C 2418.495 2887.900, 2419.965 2887, 2420.766 2887 C 2421.567 2887, 2424.372 2885.200, 2427 2883 C 2429.628 2880.800, 2432.216 2879, 2432.751 2879 C 2433.580 2879, 2438.428 2875.598, 2442.708 2872.012 C 2443.372 2871.455, 2444.343 2871, 2444.866 2871 C 2445.389 2871, 2448.222 2869.040, 2451.162 2866.645 C 2454.102 2864.250, 2457.435 2861.997, 2458.568 2861.637 C 2459.700 2861.278, 2462.236 2859.525, 2464.203 2857.742 C 2466.169 2855.959, 2469.897 2853.375, 2472.487 2852 C 2475.077 2850.625, 2477.714 2848.825, 2478.348 2848 C 2479.676 2846.271, 2487.230 2841, 2488.381 2841 C 2488.806 2841, 2490.501 2839.653, 2492.147 2838.007 C 2493.793 2836.361, 2497.696 2833.350, 2500.820 2831.315 C 2503.944 2829.280, 2507.175 2827.004, 2508 2826.256 C 2515.123 2819.800, 2517.863 2817.607, 2520.474 2816.270 C 2522.138 2815.418, 2523.725 2814.436, 2524 2814.088 C 2525.024 2812.793, 2535.640 2804.324, 2539.500 2801.724 C 2541.700 2800.242, 2545.300 2797.357, 2547.500 2795.313 C 2549.700 2793.270, 2554.425 2789.405, 2558 2786.724 C 2561.575 2784.044, 2568.325 2778.334, 2573 2774.036 C 2577.675 2769.737, 2584.416 2763.896, 2587.981 2761.056 C 2591.545 2758.216, 2597.193 2753.329, 2600.530 2750.196 C 2603.868 2747.063, 2612.202 2739.726, 2619.050 2733.891 C 2625.897 2728.057, 2649.725 2705.082, 2672 2682.836 C 2712.907 2641.983, 2719.688 2634.956, 2725.954 2626.926 C 2729.667 2622.167, 2734 2617.296, 2740.742 2610.301 C 2743.074 2607.880, 2748.699 2601.310, 2753.242 2595.701 C 2757.784 2590.091, 2763.300 2583.714, 2765.500 2581.529 C 2769.893 2577.167, 2778.995 2566.111, 2779.008 2565.123 C 2779.013 2564.780, 2781.509 2561.800, 2784.555 2558.500 C 2787.601 2555.200, 2791.607 2550.235, 2793.457 2547.466 C 2795.307 2544.697, 2798.908 2540.197, 2801.459 2537.466 C 2804.011 2534.735, 2806.801 2531.150, 2807.661 2529.500 C 2809.303 2526.348, 2816.918 2516.736, 2818.222 2516.170 C 2818.640 2515.988, 2819.690 2514.348, 2820.555 2512.525 C 2821.420 2510.702, 2823.588 2507.476, 2825.372 2505.355 C 2827.157 2503.235, 2829.685 2499.700, 2830.991 2497.500 C 2832.296 2495.300, 2835.083 2491.413, 2837.182 2488.861 C 2839.282 2486.310, 2841 2483.917, 2841 2483.544 C 2841 2482.684, 2846.258 2475.609, 2847.218 2475.177 C 2847.613 2475, 2849.381 2472.300, 2851.147 2469.177 C 2852.912 2466.055, 2855.228 2462.600, 2856.293 2461.500 C 2858.629 2459.088, 2863.578 2451.707, 2868.467 2443.345 C 2870.446 2439.960, 2872.726 2436.642, 2873.533 2435.973 C 2874.340 2435.303, 2875 2434.216, 2875 2433.558 C 2875 2432.900, 2876.800 2429.949, 2879 2427 C 2881.200 2424.051, 2883 2421.104, 2883 2420.450 C 2883 2419.796, 2884.800 2417.001, 2887 2414.237 C 2889.200 2411.474, 2891 2408.816, 2891 2408.330 C 2891 2407.844, 2892.800 2405.051, 2895 2402.123 C 2897.200 2399.195, 2899 2396.248, 2899 2395.574 C 2899 2394.900, 2900.125 2393.292, 2901.500 2392 C 2902.875 2390.708, 2904 2388.890, 2904 2387.961 C 2904 2387.031, 2904.828 2385.197, 2905.841 2383.885 C 2906.853 2382.573, 2908.968 2379.250, 2910.541 2376.500 C 2912.114 2373.750, 2913.967 2371.150, 2914.660 2370.723 C 2915.353 2370.295, 2916.207 2368.414, 2916.558 2366.542 C 2916.909 2364.670, 2917.778 2362.915, 2918.488 2362.643 C 2919.199 2362.370, 2920.431 2360.877, 2921.226 2359.324 C 2925.907 2350.185, 2930.347 2342.295, 2931.581 2340.921 C 2932.362 2340.053, 2933 2338.421, 2933 2337.294 C 2933 2336.167, 2933.712 2334.654, 2934.582 2333.932 C 2936.179 2332.607, 2936.672 2331.753, 2943 2319.356 C 2944.925 2315.585, 2947.063 2311.905, 2947.750 2311.179 C 2948.438 2310.452, 2949 2309.275, 2949 2308.563 C 2949 2307.852, 2949.872 2306.161, 2950.938 2304.806 C 2952.004 2303.451, 2953.169 2301.173, 2953.528 2299.745 C 2953.887 2298.316, 2955.039 2296.369, 2956.090 2295.419 C 2957.140 2294.468, 2958 2292.705, 2958 2291.500 C 2958 2290.295, 2958.900 2288.495, 2960 2287.500 C 2961.100 2286.505, 2962 2284.705, 2962 2283.500 C 2962 2282.295, 2962.900 2280.495, 2964 2279.500 C 2965.100 2278.505, 2966 2276.652, 2966 2275.384 C 2966 2274.116, 2966.848 2272.273, 2967.884 2271.289 C 2968.919 2270.305, 2970.080 2268.037, 2970.463 2266.250 C 2970.846 2264.463, 2971.538 2263, 2972.002 2263 C 2972.466 2263, 2973.387 2261.313, 2974.049 2259.250 C 2974.711 2257.188, 2975.818 2254.825, 2976.508 2254 C 2977.199 2253.175, 2978.105 2251.375, 2978.522 2250 C 2978.939 2248.625, 2980.117 2245.932, 2981.140 2244.015 C 2982.163 2242.098, 2983 2240.016, 2983 2239.387 C 2983 2238.759, 2983.663 2237.695, 2984.474 2237.022 C 2985.284 2236.349, 2986.231 2234.285, 2986.578 2232.435 C 2986.925 2230.585, 2987.808 2228.574, 2988.540 2227.967 C 2989.272 2227.359, 2990.184 2225.430, 2990.566 2223.681 C 2990.948 2221.931, 2992.102 2219.427, 2993.130 2218.115 C 2994.159 2216.803, 2995 2215.222, 2995 2214.600 C 2995 2213.979, 2995.840 2211.902, 2996.867 2209.985 C 2997.893 2208.068, 2999.047 2205.069, 2999.431 2203.319 C 2999.815 2201.570, 3000.775 2199.602, 3001.564 2198.947 C 3002.354 2198.291, 3003 2196.746, 3003 2195.512 C 3003 2194.279, 3003.904 2192.121, 3005.009 2190.716 C 3006.114 2189.311, 3007.308 2186.663, 3007.664 2184.831 C 3008.019 2182.999, 3009.140 2180.427, 3010.155 2179.115 C 3011.170 2177.803, 3012 2175.496, 3012 2173.988 C 3012 2172.479, 3012.646 2170.709, 3013.436 2170.053 C 3014.225 2169.398, 3015.174 2167.430, 3015.544 2165.681 C 3015.913 2163.931, 3017.067 2161.097, 3018.108 2159.382 C 3019.149 2157.667, 3020 2155.263, 3020 2154.040 C 3020 2152.816, 3020.900 2150.671, 3022 2149.273 C 3023.100 2147.874, 3024.002 2145.778, 3024.004 2144.615 C 3024.006 2143.452, 3024.906 2141.027, 3026.004 2139.226 C 3027.102 2137.425, 3028 2134.630, 3028 2133.015 C 3028 2131.400, 3028.842 2129.273, 3029.872 2128.289 C 3030.901 2127.305, 3032.049 2124.399, 3032.421 2121.832 C 3032.793 2119.264, 3033.751 2116.622, 3034.549 2115.959 C 3035.347 2115.297, 3036 2113.780, 3036 2112.589 C 3036 2111.398, 3036.940 2108.640, 3038.088 2106.461 C 3039.237 2104.283, 3040.406 2100.925, 3040.688 2099 C 3040.969 2097.075, 3041.867 2094.747, 3042.684 2093.828 C 3043.501 2092.908, 3044.416 2090.208, 3044.716 2087.828 C 3045.017 2085.447, 3045.917 2082.747, 3046.716 2081.828 C 3047.516 2080.908, 3048.416 2078.208, 3048.716 2075.828 C 3049.017 2073.447, 3049.897 2070.770, 3050.672 2069.877 C 3051.447 2068.984, 3052.433 2066.023, 3052.864 2063.298 C 3053.295 2060.572, 3054.402 2057.265, 3055.324 2055.948 C 3056.246 2054.632, 3057.002 2052.193, 3057.004 2050.527 C 3057.006 2048.862, 3057.839 2046.136, 3058.855 2044.470 C 3059.872 2042.803, 3060.929 2039.086, 3061.206 2036.210 C 3061.482 2033.333, 3062.449 2030.161, 3063.354 2029.161 C 3064.310 2028.105, 3065 2025.650, 3065 2023.306 C 3065 2020.784, 3065.750 2018.316, 3067 2016.727 C 3068.309 2015.063, 3069 2012.670, 3069 2009.804 C 3069 2007.394, 3069.900 2003.658, 3071 2001.500 C 3072.100 1999.342, 3073 1996.239, 3073 1994.604 C 3073 1992.969, 3073.852 1989.802, 3074.893 1987.566 C 3075.934 1985.330, 3077.045 1981.081, 3077.361 1978.124 C 3077.677 1975.166, 3078.636 1971.679, 3079.492 1970.373 C 3080.347 1969.067, 3081.233 1965.636, 3081.459 1962.749 C 3081.685 1959.862, 3082.773 1955.470, 3083.876 1952.990 C 3084.979 1950.509, 3085.867 1946.684, 3085.850 1944.490 C 3085.832 1942.295, 3086.749 1938.475, 3087.887 1936 C 3089.047 1933.476, 3089.966 1929.393, 3089.978 1926.702 C 3089.990 1923.992, 3090.871 1920.101, 3092 1917.764 C 3093.110 1915.467, 3094 1911.578, 3094 1909.028 C 3094 1906.499, 3094.900 1901.870, 3096 1898.740 C 3097.100 1895.611, 3098 1890.886, 3098 1888.240 C 3098 1885.595, 3098.900 1880.870, 3100 1877.740 C 3101.100 1874.611, 3102.015 1869.676, 3102.033 1866.775 C 3102.051 1863.874, 3102.936 1859.025, 3104 1856 C 3105.131 1852.786, 3105.948 1847.784, 3105.967 1843.965 C 3105.987 1840.074, 3106.809 1835.129, 3108 1831.740 C 3109.351 1827.896, 3110 1823.487, 3110 1818.147 C 3110 1813.103, 3110.588 1808.844, 3111.627 1806.372 C 3112.629 1803.986, 3113.541 1797.702, 3114.003 1790 C 3114.415 1783.125, 3115.309 1776.150, 3115.990 1774.500 C 3116.670 1772.850, 3117.569 1764.750, 3117.986 1756.500 C 3118.404 1748.250, 3119.293 1739.925, 3119.961 1738 C 3120.675 1735.943, 3121.398 1726.050, 3121.715 1714 C 3122.236 1694.161, 3122.338 1693.355, 3124.877 1689 L 3127.500 1684.500 3127.500 1586 L 3127.500 1487.500 3124.866 1482.500 C 3122.339 1477.702, 3122.213 1476.693, 3121.736 1457.500 C 3121.442 1445.686, 3120.740 1436.067, 3120.020 1434 C 3119.350 1432.075, 3118.429 1423.525, 3117.974 1415 C 3117.463 1405.416, 3116.547 1397.830, 3115.574 1395.124 C 3114.600 1392.418, 3114 1387.446, 3114 1382.092 C 3114 1377.129, 3113.320 1371.103, 3112.407 1367.968 C 3111.531 1364.961, 3110.461 1358, 3110.028 1352.500 C 3109.596 1347, 3108.513 1340.758, 3107.621 1338.628 C 3106.715 1336.464, 3106 1332.012, 3106 1328.537 C 3106 1325.116, 3105.292 1320.109, 3104.426 1317.409 C 3103.561 1314.709, 3102.480 1308.851, 3102.024 1304.390 C 3101.569 1299.930, 3100.477 1294.889, 3099.598 1293.190 C 3098.608 1291.276, 3098 1287.591, 3098 1283.510 C 3098 1278.894, 3097.401 1275.746, 3096 1273 C 3094.744 1270.538, 3094 1267.106, 3094 1263.775 C 3094 1260.381, 3093.280 1257.126, 3092 1254.739 C 3090.668 1252.253, 3089.998 1249.086, 3089.993 1245.254 C 3089.989 1241.194, 3089.402 1238.616, 3088 1236.500 C 3086.643 1234.451, 3086.011 1231.806, 3086.007 1228.154 C 3086.002 1224.251, 3085.404 1221.972, 3083.792 1219.708 C 3082.058 1217.273, 3081.618 1215.359, 3081.744 1210.798 C 3081.877 1206.007, 3081.527 1204.637, 3079.744 1202.976 C 3078.006 1201.356, 3077.567 1199.763, 3077.503 1194.832 C 3077.432 1189.381, 3077.167 1188.606, 3075.119 1187.848 C 3073.072 1187.091, 3072.840 1186.412, 3073.032 1181.748 C 3073.364 1173.689, 3073.117 1172, 3071.607 1172 C 3069.682 1172, 3069 1169.756, 3069 1163.418 C 3069 1159.121, 3068.669 1158, 3067.402 1158 C 3066.034 1158, 3065.904 1158.901, 3066.496 1164.250 C 3066.878 1167.688, 3067.815 1171.486, 3068.579 1172.691 C 3069.343 1173.896, 3070.271 1177.496, 3070.640 1180.691 C 3071.010 1183.886, 3071.864 1187.400, 3072.538 1188.500 C 3074.339 1191.439, 3075.231 1198.739, 3073.890 1199.568 C 3072.320 1200.538, 3071.033 1198.095, 3071.015 1194.110 C 3071.007 1192.246, 3070.354 1190.221, 3069.564 1189.610 C 3068.219 1188.570, 3065.767 1182.454, 3062.506 1172 C 3061.734 1169.525, 3059.714 1163.675, 3058.018 1159 C 3056.322 1154.325, 3054.311 1148.700, 3053.550 1146.500 C 3052.789 1144.300, 3051.070 1139.575, 3049.730 1136 C 3048.389 1132.425, 3045.694 1125.225, 3043.741 1120 C 3041.787 1114.775, 3038.076 1105.325, 3035.493 1099 C 3019.910 1060.834, 3021.213 1063.902, 3012.569 1045 C 3009.425 1038.125, 3006.247 1031.150, 3005.508 1029.500 C 2991.099 997.344, 2957.042 929.221, 2952.016 922.500 C 2951.604 921.950, 2948.964 917.157, 2946.149 911.849 C 2929.336 880.149, 2882.737 807.376, 2858.123 774.379 C 2855.580 770.970, 2850.350 763.790, 2846.500 758.423 C 2842.650 753.055, 2838.113 747.052, 2836.417 745.082 C 2834.722 743.112, 2831.508 739.025, 2829.276 736 C 2827.043 732.975, 2821.230 725.478, 2816.358 719.340 C 2811.486 713.201, 2804.354 704.201, 2800.509 699.340 C 2789.739 685.722, 2774.071 667.234, 2757.016 648.019 C 2741.344 630.362, 2687.931 574.616, 2681.812 569.529 C 2679.990 568.014, 2673.758 562.214, 2667.961 556.638 C 2652.290 541.562, 2643.459 533.325, 2634.032 524.988 C 2629.375 520.870, 2623.075 515.221, 2620.032 512.435 C 2616.990 509.650, 2613.287 506.455, 2611.806 505.335 C 2610.324 504.216, 2606.533 501.095, 2603.381 498.400 C 2592.043 488.704, 2589.203 486.381, 2579.050 478.500 C 2564.119 466.910, 2542.823 450.197, 2540.500 448.248 C 2538.340 446.434, 2523.393 435.389, 2518.500 431.990 C 2516.850 430.844, 2507.850 424.395, 2498.500 417.659 C 2480.252 404.512, 2470.594 397.858, 2459.500 390.787 C 2455.650 388.333, 2448.675 383.866, 2444 380.859 C 2418.200 364.266, 2414.924 362.221, 2396.772 351.373 C 2355.785 326.877, 2304.888 300.445, 2257.500 279.044 C 2244.850 273.331, 2230.225 266.655, 2225 264.208 C 2215.073 259.560, 2199.477 253.030, 2180 245.368 C 2158.240 236.808, 2151.449 234.262, 2132.500 227.562 C 2122.050 223.867, 2111.925 220.246, 2110 219.516 C 2103.565 217.074, 2074.312 208.092, 2056 202.936 C 2048.240 200.751, 2036.936 197.527, 2028 194.950 C 2010.801 189.989, 1995.608 186.058, 1980 182.529 C 1973.675 181.099, 1966.025 179.301, 1963 178.534 C 1943.087 173.481, 1923.959 169.338, 1903 165.540 C 1895.025 164.095, 1886.475 162.482, 1884 161.956 C 1873.494 159.724, 1822.823 152.466, 1797 149.494 C 1751.012 144.201, 1709.475 141.310, 1668 140.515 C 1652.325 140.214, 1633.875 139.793, 1627 139.578 C 1620.125 139.364, 1601 139.575, 1584.500 140.047 M 2905 789.441 C 2905 790.298, 2905.450 791, 2906 791 C 2906.550 791, 2907 790.577, 2907 790.059 C 2907 789.541, 2906.550 788.840, 2906 788.500 C 2905.450 788.160, 2905 788.584, 2905 789.441 M 2917.553 809.915 C 2917.231 810.436, 2917.394 811.125, 2917.915 811.447 C 2918.436 811.769, 2919.125 811.606, 2919.447 811.085 C 2919.769 810.564, 2919.606 809.875, 2919.085 809.553 C 2918.564 809.231, 2917.875 809.394, 2917.553 809.915 M 2922 818.559 C 2922 819.416, 2922.457 819.835, 2923.016 819.490 C 2923.575 819.144, 2923.774 818.443, 2923.457 817.931 C 2922.600 816.544, 2922 816.802, 2922 818.559 M 2926 827.059 C 2926 827.641, 2926.450 827.840, 2927 827.500 C 2927.550 827.160, 2928 826.684, 2928 826.441 C 2928 826.198, 2927.550 826, 2927 826 C 2926.450 826, 2926 826.477, 2926 827.059 M 2934 839.441 C 2934 840.234, 2934.450 841.160, 2935 841.500 C 2935.550 841.840, 2936 841.191, 2936 840.059 C 2936 838.927, 2935.550 838, 2935 838 C 2934.450 838, 2934 838.648, 2934 839.441 M 2938.500 847 C 2938.101 847.646, 2938.224 848.624, 2938.774 849.174 C 2939.441 849.841, 2940.016 849.783, 2940.500 849 C 2940.899 848.354, 2940.776 847.376, 2940.226 846.826 C 2939.559 846.159, 2938.984 846.217, 2938.500 847 M 2942.512 854.980 C 2942.106 855.637, 2942.224 856.624, 2942.774 857.174 C 2944.077 858.477, 2945.113 856.801, 2944.059 855.095 C 2943.444 854.101, 2943.073 854.073, 2942.512 854.980 M 2947 864.059 C 2947 865.191, 2947.430 865.852, 2947.956 865.527 C 2948.482 865.202, 2948.659 864.275, 2948.349 863.468 C 2947.556 861.401, 2947 861.644, 2947 864.059 M 2951 871.941 C 2951 873.073, 2951.450 874, 2952 874 C 2952.550 874, 2953 873.352, 2953 872.559 C 2953 871.766, 2952.550 870.840, 2952 870.500 C 2951.450 870.160, 2951 870.809, 2951 871.941 M 2955.015 879.250 C 2955.007 880.763, 2955.450 882, 2956 882 C 2957.264 882, 2957.264 879.957, 2956 878 C 2955.245 876.831, 2955.027 877.107, 2955.015 879.250 M 2959 887.500 C 2959 888.875, 2959.450 890, 2960 890 C 2960.550 890, 2961 888.875, 2961 887.500 C 2961 886.125, 2960.550 885, 2960 885 C 2959.450 885, 2959 886.125, 2959 887.500 M 2963.548 894.250 C 2963.129 895.212, 2963.129 896.788, 2963.548 897.750 C 2964.273 899.417, 2964.329 899.417, 2964.728 897.750 C 2964.958 896.788, 2964.958 895.212, 2964.728 894.250 C 2964.329 892.583, 2964.273 892.583, 2963.548 894.250 M 2967.739 903.889 C 2967.467 904.928, 2967.633 906.391, 2968.107 907.139 C 2968.693 908.064, 2968.974 907.460, 2968.985 905.250 C 2969.002 901.612, 2968.483 901.045, 2967.739 903.889 M 2971.545 911.859 C 2970.826 914.122, 2971.513 916, 2973.059 916 C 2974.238 916, 2974.260 912.958, 2973.094 911.118 C 2972.406 910.031, 2972.074 910.190, 2971.545 911.859 M 2975.636 920.506 C 2974.955 922.281, 2975.845 925, 2977.107 925 C 2978.272 925, 2978.270 920.285, 2977.105 919.565 C 2976.612 919.260, 2975.952 919.684, 2975.636 920.506 M 2979.636 929.506 C 2978.955 931.281, 2979.845 934, 2981.107 934 C 2982.272 934, 2982.270 929.285, 2981.105 928.565 C 2980.612 928.260, 2979.952 928.684, 2979.636 929.506 M 2983.392 938.422 C 2983.092 939.204, 2983.416 940.891, 2984.112 942.172 L 2985.377 944.500 2986.021 942 C 2987.073 937.912, 2984.783 934.795, 2983.392 938.422 M 2988 948.941 C 2988 950.559, 2988.399 952.128, 2988.886 952.430 C 2989.980 953.106, 2991.062 949.325, 2990.325 947.404 C 2989.389 944.964, 2988 945.883, 2988 948.941 M 2992 957.858 C 2992 961.274, 2993.918 963.238, 2994.150 960.059 C 2994.233 958.927, 2994.345 957.475, 2994.400 956.833 C 2994.455 956.192, 2993.938 955.479, 2993.250 955.250 C 2992.434 954.978, 2992 955.883, 2992 957.858 M 2996.187 967.173 C 2996.532 970.666, 2999 972.414, 2999 969.165 C 2999 966.423, 2997.982 964, 2996.830 964 C 2996.304 964, 2996.014 965.428, 2996.187 967.173 M 3000.385 974.439 C 2999.564 976.578, 3000.828 981.224, 3002.029 980.482 C 3003.309 979.691, 3003.281 974.292, 3001.993 973.496 C 3001.439 973.153, 3000.716 973.578, 3000.385 974.439 M 3004.385 983.439 C 3003.611 985.456, 3004.743 990, 3006.019 990 C 3007.313 990, 3007.290 983.297, 3005.993 982.496 C 3005.439 982.153, 3004.716 982.578, 3004.385 983.439 M 3008.495 993.008 C 3007.689 994.312, 3008.837 999.781, 3010.077 1000.548 C 3010.585 1000.861, 3011 999.318, 3011 997.118 C 3011 993.133, 3009.718 991.029, 3008.495 993.008 M 3012.542 1003.868 C 3012.216 1004.895, 3012.457 1007.033, 3013.078 1008.618 L 3014.206 1011.500 3015.101 1009.167 C 3016.061 1006.666, 3015.318 1002, 3013.959 1002 C 3013.506 1002, 3012.868 1002.841, 3012.542 1003.868 M 1104.250 1010.732 C 1102.646 1014.153, 1102.674 1015.485, 1104.378 1016.899 C 1106.158 1018.376, 1107.049 1015.441, 1106.138 1011.103 L 1105.500 1008.065 1104.250 1010.732 M 3016.783 1013.550 C 3016.221 1014.112, 3017.459 1020.792, 3018.277 1021.610 C 3018.939 1022.272, 3020.018 1014.838, 3019.403 1013.844 C 3018.807 1012.879, 3017.590 1012.743, 3016.783 1013.550 M 1099.934 1023.673 C 1099.144 1025.752, 1099.260 1026.689, 1100.459 1027.887 C 1101.847 1029.276, 1102 1029.010, 1102 1025.214 C 1102 1020.351, 1101.375 1019.884, 1099.934 1023.673 M 3021.729 1022.604 C 3020.703 1023.630, 3020.849 1029.213, 3021.947 1030.948 C 3022.666 1032.086, 3023.005 1031.827, 3023.529 1029.741 C 3024.259 1026.833, 3022.898 1021.436, 3021.729 1022.604 M 1096.553 1036.645 C 1096.187 1038.105, 1096.362 1039.762, 1096.945 1040.345 C 1097.685 1041.085, 1098 1040.296, 1098 1037.700 C 1098 1033.345, 1097.477 1032.963, 1096.553 1036.645 M 3024.756 1034.577 C 3024.416 1034.917, 3024.294 1035.714, 3024.485 1036.348 C 3024.677 1036.981, 3025.104 1038.737, 3025.436 1040.250 C 3026.384 1044.580, 3028.153 1043.519, 3027.807 1038.828 C 3027.522 1034.948, 3026.211 1033.122, 3024.756 1034.577 M 3029.014 1047.167 C 3029.034 1050.620, 3030.103 1054, 3031.174 1054 C 3032.576 1054, 3031.703 1045.722, 3030.250 1045.244 C 3029.488 1044.994, 3029.005 1045.743, 3029.014 1047.167 M 1093.195 1049.500 C 1093.215 1051.150, 1093.439 1051.704, 1093.693 1050.731 C 1093.947 1049.758, 1093.930 1048.408, 1093.656 1047.731 C 1093.382 1047.054, 1093.175 1047.850, 1093.195 1049.500 M 3032.787 1055.547 C 3032.044 1056.289, 3033.861 1063.164, 3035.153 1064.500 C 3035.779 1065.147, 3036.011 1063.764, 3035.810 1060.578 C 3035.527 1056.090, 3034.295 1054.039, 3032.787 1055.547 M 3037.045 1069.750 C 3037.070 1071.263, 3037.708 1073.850, 3038.464 1075.500 C 3039.823 1078.467, 3039.838 1078.437, 3039.919 1072.750 C 3039.982 1068.269, 3039.669 1067, 3038.500 1067 C 3037.519 1067, 3037.016 1067.952, 3037.045 1069.750 M 3041.076 1081.250 C 3041.118 1082.487, 3041.718 1085.069, 3042.411 1086.986 L 3043.669 1090.472 3044.334 1086.315 C 3044.699 1084.029, 3044.725 1081.448, 3044.392 1080.579 C 3043.467 1078.170, 3040.989 1078.671, 3041.076 1081.250 M 3045.374 1092.467 C 3045.065 1093.274, 3045.471 1095.861, 3046.278 1098.217 L 3047.744 1102.500 3048.467 1098.837 C 3049.576 1093.221, 3047.067 1088.055, 3045.374 1092.467 M 3049.545 1104.927 C 3048.839 1106.070, 3050.828 1113.926, 3052.223 1115.500 C 3052.748 1116.091, 3052.985 1114.080, 3052.805 1110.579 C 3052.520 1105.040, 3051.050 1102.492, 3049.545 1104.927 M 3053.667 1116.730 C 3052.975 1117.850, 3054.962 1127.238, 3056.158 1128.500 C 3056.759 1129.134, 3056.995 1127.149, 3056.803 1123.079 C 3056.529 1117.264, 3055.111 1114.394, 3053.667 1116.730 M 3058.315 1129.816 C 3057.103 1130.577, 3059.075 1142.137, 3060.785 1144.295 C 3061.310 1144.958, 3062.047 1147.300, 3062.423 1149.500 C 3064.117 1159.408, 3065.627 1159.685, 3065.168 1150.002 C 3064.878 1143.882, 3064.594 1143, 3062.918 1143 C 3061.226 1143, 3061 1142.241, 3061 1136.559 C 3061 1130.122, 3060.365 1128.529, 3058.315 1129.816 M 611.500 1131.970 C 597.044 1134.324, 576.914 1149.027, 557.380 1171.500 C 553.556 1175.900, 549.659 1180.625, 548.721 1182 C 542.111 1191.689, 539.730 1195.321, 535.938 1201.500 C 522.866 1222.802, 514.780 1242.188, 510.462 1262.579 C 506.376 1281.877, 507.720 1295.522, 514.596 1304.537 C 518.179 1309.234, 525.919 1312.984, 532 1312.969 C 537.784 1312.955, 547.678 1309.445, 556.565 1304.254 C 569.465 1296.720, 591.279 1275.636, 601.317 1261 C 624.661 1226.963, 632.684 1209.590, 640.112 1177 C 642.073 1168.394, 641.522 1154.137, 638.956 1147.099 C 636.911 1141.490, 632.965 1136.329, 628.500 1133.422 C 625.811 1131.671, 617.630 1130.972, 611.500 1131.970" stroke="none" fill="black" fill-rule="evenodd"/>
</svg>